<?xml version="1.0" encoding="utf-8"?>
<!-- Generator: Adobe Illustrator 21.1.0, SVG Export Plug-In . SVG Version: 6.00 Build 0)  -->
<svg version="1.1" id="Layer_1" xmlns="http://www.w3.org/2000/svg" xmlns:xlink="http://www.w3.org/1999/xlink" x="0px" y="0px"
	 viewBox="0 0 113.5 82.9" style="enable-background:new 0 0 113.5 82.9;" xml:space="preserve">
<style type="text/css">
	.st0{fill:#B8B8B8;}
</style>
<title>Asset 9</title>
<g id="Layer_2">
	<g id="guides">
		<path class="st0" d="M77.1,41.4c0,11.3-9.1,20.4-20.4,20.4s-20.4-9.1-20.4-20.4S45.5,21.1,56.7,21c5.2,0,10.3,2,14,5.6
			C74.8,30.5,77.1,35.8,77.1,41.4c0,0.7,0.6,1.3,1.4,1.3c0.7,0,1.3-0.6,1.3-1.3c0-12.7-10.3-23.1-23.1-23.1
			c-12.7,0-23.1,10.3-23.1,23.1c0,9.2,5.4,17.5,13.8,21.1c11.7,5.1,25.3-0.2,30.3-11.9c1.3-2.9,1.9-6.1,1.9-9.2
			c0-0.7-0.6-1.3-1.4-1.3C77.7,40.1,77.1,40.7,77.1,41.4z"/>
		<path class="st0" d="M0,12.8v57.3c0,0.7,0.6,1.3,1.4,1.3h110.8c0.7,0,1.3-0.6,1.3-1.3V12.8c0-0.7-0.6-1.3-1.3-1.3H1.4
			C0.6,11.4,0,12,0,12.8c0,0.7,0.6,1.3,1.4,1.4h110.8l-1.3-1.4v57.3l1.3-1.3H1.4l1.4,1.3V12.8c0-0.7-0.6-1.3-1.4-1.3
			C0.6,11.4,0,12,0,12.8z"/>
		<path class="st0" d="M7.9,23.7v-5.8l-1.3,1.4h6.9c0.7,0,1.3-0.6,1.3-1.4c0-0.7-0.6-1.3-1.3-1.3H6.5c-0.7,0-1.3,0.6-1.3,1.4v5.8
			c0,0.7,0.6,1.3,1.4,1.3C7.3,25,7.9,24.4,7.9,23.7z"/>
		<path class="st0" d="M108.4,23.7v-5.8c0-0.8-0.6-1.4-1.4-1.4c0,0,0,0,0,0h-6.9c-0.7,0-1.3,0.6-1.3,1.4c0,0.7,0.6,1.3,1.3,1.3h6.9
			l-1.3-1.4v5.8c0,0.7,0.6,1.3,1.4,1.3C107.7,25,108.3,24.4,108.4,23.7L108.4,23.7z"/>
		<path class="st0" d="M5.2,59.2V65c0,0.7,0.6,1.3,1.3,1.3h6.9c0.7,0,1.4-0.6,1.4-1.3c0-0.7-0.6-1.4-1.4-1.4H6.5l1.3,1.3v-5.7
			c0-0.7-0.6-1.3-1.4-1.3C5.8,57.9,5.2,58.5,5.2,59.2z"/>
		<path class="st0" d="M105.7,59.2V65l1.3-1.4h-6.9c-0.7,0-1.3,0.6-1.3,1.4c0,0.7,0.6,1.3,1.3,1.3h6.9c0.7,0,1.3-0.6,1.3-1.3v-5.8
			c0-0.7-0.6-1.3-1.4-1.3C106.3,57.9,105.7,58.5,105.7,59.2L105.7,59.2z"/>
		<path class="st0" d="M56.8,40.2c-2.1,0-3.8-1.7-3.8-3.8c0-0.9,0.4-1.9,1-2.5c1.1-1.1,2.8-1.5,4.2-0.9c1.4,0.6,2.3,2,2.3,3.5
			c0,0.7,0.6,1.4,1.4,1.4c0.7,0,1.3-0.6,1.3-1.4c0-3.6-2.9-6.5-6.5-6.5c-3.6,0-6.5,2.9-6.5,6.5s2.9,6.5,6.5,6.5l0,0
			c0.7,0,1.4-0.6,1.4-1.3C58.1,40.8,57.5,40.2,56.8,40.2L56.8,40.2z"/>
		<path class="st0" d="M56.8,42.9c2.1,0,3.8,1.8,3.7,3.9c0,0.9-0.4,1.8-1,2.5c-1.1,1.1-2.8,1.5-4.2,0.9c-1.4-0.6-2.3-2-2.2-3.5
			c0-0.7-0.6-1.4-1.3-1.4c-0.7,0-1.4,0.6-1.4,1.4c0,3.6,2.9,6.5,6.5,6.5s6.5-2.9,6.5-6.5s-2.9-6.5-6.5-6.5l0,0
			c-0.7,0-1.3,0.6-1.3,1.4C55.4,42.3,56,42.9,56.8,42.9L56.8,42.9z"/>
		<path class="st0" d="M55.4,28.7v25.5c0,0.7,0.6,1.3,1.4,1.3c0.7,0,1.3-0.6,1.3-1.3V28.7c0-0.7-0.6-1.4-1.3-1.4
			C56,27.4,55.4,28,55.4,28.7z"/>
		<path class="st0" d="M20.9,41.4c0,1.8-1.5,3.3-3.3,3.3s-3.3-1.5-3.3-3.3c0-1.8,1.5-3.3,3.3-3.3c0,0,0,0,0,0
			C19.4,38.1,20.9,39.6,20.9,41.4c0,0.7,0.6,1.4,1.4,1.4s1.4-0.6,1.4-1.4c0-3.3-2.7-6-6-6s-6,2.7-6,6s2.7,6,6,6c3.3,0,6-2.7,6-6
			c0-0.7-0.6-1.3-1.4-1.3S20.9,40.7,20.9,41.4L20.9,41.4z"/>
		<path class="st0" d="M99.2,41.4c0,1.8-1.5,3.3-3.3,3.3c-1.8,0-3.3-1.5-3.3-3.3c0-1.8,1.5-3.3,3.3-3.3
			C97.7,38.1,99.2,39.6,99.2,41.4c0,0.7,0.6,1.3,1.4,1.3c0.7,0,1.3-0.6,1.3-1.3c0-3.3-2.7-6-6-6s-6,2.7-6,6s2.7,6,6,6
			c3.3,0,6-2.7,6-6c0-0.7-0.6-1.3-1.4-1.3C99.8,40.1,99.2,40.7,99.2,41.4z"/>
	</g>
</g>
</svg>
