<svg xmlns="http://www.w3.org/2000/svg" viewBox="0 0 94.49 69.2"><defs><style>.cls-1{fill:#b8b8b8;}</style></defs><title>Asset 11</title><g id="Layer_2" data-name="Layer 2"><g id="guides"><path class="cls-1" d="M8.29,46.21h8a1.13,1.13,0,0,0,0-2.25h-8a1.13,1.13,0,0,0,0,2.25Z"/><path class="cls-1" d="M17,26.94v7.34a.14.14,0,0,1-.13.14H9.55a.14.14,0,0,1-.13-.14V26.94c0-.08.07-.12.16-.12h7.31a.14.14,0,0,1,.14.12c.08,1.44,2.33,1.45,2.25,0a2.42,2.42,0,0,0-2.43-2.38H10.48a8,8,0,0,0-1.38,0A2.41,2.41,0,0,0,7.17,27V33.5A5.28,5.28,0,0,0,7.28,35c.56,1.9,2.6,1.65,4.14,1.65h4.82A4.2,4.2,0,0,0,18,36.39a2.43,2.43,0,0,0,1.26-2.33V26.94A1.13,1.13,0,0,0,17,26.94Z"/><path class="cls-1" d="M65.5,57.59A3.32,3.32,0,0,1,59.93,60a1.14,1.14,0,0,0-1.59,0,3.3,3.3,0,1,1,0-4.76,1.14,1.14,0,0,0,1.59,0,3.32,3.32,0,0,1,5.57,2.38,1.13,1.13,0,0,0,2.25,0,5.55,5.55,0,0,0-9.42-4h1.59a5.67,5.67,0,0,0-6.38-1,5.55,5.55,0,1,0,6.38,8.92H58.34a5.67,5.67,0,0,0,6.38,1,5.58,5.58,0,0,0,3-4.94A1.13,1.13,0,0,0,65.5,57.59Z"/><path class="cls-1" d="M8.29,58.71H30.61a1.13,1.13,0,0,0,0-2.25H8.29a1.13,1.13,0,0,0,0,2.25Z"/><path class="cls-1" d="M22.63,46.21h8a1.13,1.13,0,0,0,0-2.25h-8a1.13,1.13,0,0,0,0,2.25Z"/><path class="cls-1" d="M37,46.21h8a1.13,1.13,0,0,0,0-2.25H37a1.13,1.13,0,0,0,0,2.25Z"/><path class="cls-1" d="M51.3,46.21h8a1.13,1.13,0,0,0,0-2.25h-8a1.13,1.13,0,0,0,0,2.25Z"/><path class="cls-1" d="M74.83,23.59a7.37,7.37,0,0,0-5.35-6,8.41,8.41,0,0,0-2.24-.24H7.31A7.4,7.4,0,0,0,0,24.88v37A7.4,7.4,0,0,0,7.48,69.2H67.53a7.4,7.4,0,0,0,7.39-7.33V24.77a7.82,7.82,0,0,0-.05-.89,1.15,1.15,0,0,0-1.13-1.13,1.13,1.13,0,0,0-1.13,1.13A36.83,36.83,0,0,1,72.67,28V61.64a5.47,5.47,0,0,1-1,3.31,5.06,5.06,0,0,1-4.08,2h-60A5.45,5.45,0,0,1,5,66.37a5.09,5.09,0,0,1-2.71-4.5V24.78a5.12,5.12,0,0,1,5.2-5.14H67.31a6.5,6.5,0,0,1,1.42.12,5.17,5.17,0,0,1,3.93,4.42A1.13,1.13,0,0,0,74,25,1.15,1.15,0,0,0,74.83,23.59Z"/><path class="cls-1" d="M17,34.3c0,.08-.06.12-.16.12H9.56c-.13,0-.14-.07-.14-.2V27.8a3,3,0,0,1,0-1s.08,0,.18,0h7.13c.25,0,.25,0,.25.28v4.32q0,1.44,0,2.88a1.13,1.13,0,0,0,2.25,0V27a2.41,2.41,0,0,0-2.38-2.39H9.55A2.41,2.41,0,0,0,7.17,27v3.91c0,1.18-.06,2.38,0,3.56a2.41,2.41,0,0,0,2.44,2.23h7.27a2.42,2.42,0,0,0,2.39-2.38C19.36,32.85,17.11,32.85,17,34.3Z"/><path class="cls-1" d="M62.21,60.89A3.36,3.36,0,0,1,59.93,60a1.14,1.14,0,0,0-1.59,0,3.3,3.3,0,1,1,0-4.76,1.14,1.14,0,0,0,1.59,0,3.3,3.3,0,1,1,2.28,5.68,1.13,1.13,0,0,0,0,2.25,5.55,5.55,0,1,0-3.87-9.52h1.59a5.67,5.67,0,0,0-6.38-1,5.55,5.55,0,1,0,6.38,8.92H58.34a5.75,5.75,0,0,0,3.87,1.57A1.13,1.13,0,0,0,62.21,60.89Z"/><path class="cls-1" d="M17,26.94v7.34a.14.14,0,0,1-.13.14H9.55a.14.14,0,0,1-.13-.14V26.94c0-.08.07-.12.16-.12h7.31a.14.14,0,0,1,.14.12c.08,1.44,2.33,1.45,2.25,0a2.42,2.42,0,0,0-2.43-2.38H10.48a8,8,0,0,0-1.38,0A2.41,2.41,0,0,0,7.17,27V33.5A5.28,5.28,0,0,0,7.28,35c.56,1.9,2.6,1.65,4.14,1.65h4.82A4.2,4.2,0,0,0,18,36.39a2.43,2.43,0,0,0,1.26-2.33V26.94A1.13,1.13,0,0,0,17,26.94Z"/><path class="cls-1" d="M65.5,57.59A3.32,3.32,0,0,1,59.93,60a1.14,1.14,0,0,0-1.59,0,3.3,3.3,0,1,1,0-4.76,1.14,1.14,0,0,0,1.59,0,3.32,3.32,0,0,1,5.57,2.38,1.13,1.13,0,0,0,2.25,0,5.55,5.55,0,0,0-9.42-4h1.59a5.67,5.67,0,0,0-6.38-1,5.55,5.55,0,1,0,6.38,8.92H58.34a5.67,5.67,0,0,0,6.38,1,5.58,5.58,0,0,0,3-4.94A1.13,1.13,0,0,0,65.5,57.59Z"/><path class="cls-1" d="M92.24,7.31v37a5.07,5.07,0,0,1-5.37,5.23H73.8l1.13,1.13V24.82a7.4,7.4,0,0,0-2.65-5.73,7.47,7.47,0,0,0-4.79-1.69H20.7l1.13,1.13V7.37a5.13,5.13,0,0,1,2.71-4.55,7.78,7.78,0,0,1,3.91-.58H87.18a5.11,5.11,0,0,1,5.06,5.06,1.13,1.13,0,0,0,2.25,0A7.41,7.41,0,0,0,87,0H27a7.4,7.4,0,0,0-7.39,7.39V18.52a1.14,1.14,0,0,0,1.13,1.13H67.6a5.1,5.1,0,0,1,4.71,3.16,7.12,7.12,0,0,1,.36,2.73V50.68A1.14,1.14,0,0,0,73.8,51.8h12a13.22,13.22,0,0,0,3.32-.25,7.38,7.38,0,0,0,5.16-5.16,9.06,9.06,0,0,0,.25-2.46V7.31A1.13,1.13,0,0,0,92.24,7.31Z"/><path class="cls-1" d="M92.24,13.49v10.4l1.13-1.13H73.74l1.09.83a7.37,7.37,0,0,0-5.35-6,8.78,8.78,0,0,0-2.34-.24H20.7l1.13,1.13v-5L20.7,14.62H93.37a1.13,1.13,0,0,0,0-2.25H20.7a1.14,1.14,0,0,0-1.13,1.13v5a1.14,1.14,0,0,0,1.13,1.13H67.61a5.15,5.15,0,0,1,5,4.54,1.12,1.12,0,0,0,1.09.83H93.37a1.14,1.14,0,0,0,1.13-1.13V13.49A1.13,1.13,0,0,0,92.24,13.49Z"/><path class="cls-1" d="M85.07,34.13V40.4a.14.14,0,0,1-.15.13H73.8l1.13,1.13V32.88L73.8,34H84.73c.23,0,.33,0,.34.12.08,1.44,2.33,1.45,2.25,0a2.42,2.42,0,0,0-2.38-2.38H73.8a1.14,1.14,0,0,0-1.13,1.13v8.78a1.14,1.14,0,0,0,1.13,1.13H84.88a2.4,2.4,0,0,0,2.39-1.93,8.81,8.81,0,0,0,0-1.51V34.13A1.13,1.13,0,0,0,85.07,34.13Z"/></g></g></svg>