<?xml version="1.0" encoding="utf-8"?>
<!-- Generator: Adobe Illustrator 21.1.0, SVG Export Plug-In . SVG Version: 6.00 Build 0)  -->
<svg version="1.1" id="Layer_1" xmlns="http://www.w3.org/2000/svg" xmlns:xlink="http://www.w3.org/1999/xlink" x="0px" y="0px"
	 viewBox="0 0 113.5 82.9" style="enable-background:new 0 0 113.5 82.9;" xml:space="preserve">
<style type="text/css">
	.st0{fill:#B8B8B8;}
</style>
<title>Asset 11</title>
<g id="Layer_2">
	<g id="guides">
		<path class="st0" d="M10.1,55.3h9.6c0.7-0.1,1.3-0.7,1.2-1.5c-0.1-0.6-0.6-1.2-1.2-1.2h-9.6c-0.7,0.1-1.3,0.7-1.2,1.5
			C8.9,54.8,9.4,55.3,10.1,55.3z"/>
		<path class="st0" d="M20.5,32.3V41c0,0.1-0.1,0.2-0.2,0.2h-8.8c-0.1,0-0.2-0.1-0.2-0.2v-8.8c0-0.1,0.1-0.1,0.2-0.1h8.8
			C20.5,32.1,20.5,32.2,20.5,32.3c0.1,1.7,2.8,1.7,2.7,0c0-1.6-1.3-2.9-2.9-2.8h-7.6c-0.5,0-1.1,0-1.7,0c-1.4,0.3-2.4,1.5-2.3,2.9
			v7.8c0,0.6,0,1.2,0.1,1.8c0.7,2.3,3.1,2,5,2h5.8c0.7,0,1.4-0.1,2.1-0.3c1-0.6,1.6-1.6,1.5-2.8v-8.5c0-0.7-0.6-1.4-1.4-1.4
			C21.1,30.9,20.5,31.5,20.5,32.3z"/>
		<path class="st0" d="M78.6,69c0,2.2-1.8,4-4,3.9c-1,0-1.9-0.4-2.7-1.1c-0.5-0.5-1.4-0.5-1.9,0c-1.6,1.5-4.1,1.5-5.6-0.1
			c-1.5-1.6-1.5-4.1,0.1-5.6c1.5-1.5,3.9-1.5,5.5,0c0.5,0.5,1.4,0.5,1.9,0c1.6-1.5,4.1-1.4,5.6,0.2C78.2,67.1,78.6,68,78.6,69
			c0.1,0.8,0.7,1.3,1.5,1.3c0.6-0.1,1.2-0.6,1.2-1.2c0-3.7-2.9-6.7-6.6-6.7c-1.7,0-3.4,0.7-4.7,1.9h1.9c-2-2-5.1-2.4-7.6-1.2
			c-3.3,1.6-4.6,5.6-3,8.9c1.6,3.3,5.6,4.6,8.9,3c0.6-0.3,1.2-0.7,1.7-1.2H70c2,2,5.1,2.4,7.6,1.2c2.2-1.1,3.6-3.4,3.6-5.9
			c-0.1-0.7-0.8-1.2-1.6-1.1C79.1,68,78.7,68.4,78.6,69z"/>
		<path class="st0" d="M10.1,70.3h26.7c0.7-0.1,1.3-0.7,1.2-1.5c-0.1-0.6-0.6-1.2-1.2-1.2H10.1c-0.7,0.1-1.3,0.7-1.2,1.5
			C8.9,69.7,9.4,70.2,10.1,70.3z"/>
		<path class="st0" d="M27.3,55.3h9.6c0.7-0.1,1.3-0.7,1.2-1.5c-0.1-0.6-0.6-1.2-1.2-1.2h-9.6c-0.7,0.1-1.3,0.7-1.2,1.5
			C26.1,54.8,26.6,55.3,27.3,55.3z"/>
		<path class="st0" d="M44.5,55.3h9.6c0.7-0.1,1.3-0.7,1.2-1.5c-0.1-0.6-0.6-1.2-1.2-1.2h-9.6c-0.7,0.1-1.3,0.7-1.2,1.5
			C43.3,54.8,43.8,55.3,44.5,55.3z"/>
		<path class="st0" d="M61.6,55.3h9.6c0.7-0.1,1.3-0.7,1.2-1.5c-0.1-0.6-0.6-1.2-1.2-1.2h-9.6c-0.7,0.1-1.3,0.7-1.2,1.5
			C60.4,54.8,60.9,55.3,61.6,55.3z"/>
		<path class="st0" d="M89.8,28.2c-0.5-3.5-3-6.3-6.4-7.2c-0.9-0.2-1.8-0.3-2.7-0.3H8.9c-4.9,0.1-8.8,4.1-8.8,9c0,0,0,0,0,0v44.3
			c0.1,4.9,4.1,8.8,9,8.8c0,0,0,0,0,0H81c4.9,0,8.8-3.9,8.8-8.8V29.7c0-0.4,0-0.7-0.1-1.1c0-0.7-0.6-1.3-1.4-1.4
			c-0.7,0-1.4,0.6-1.4,1.4c0.1,1.6,0.1,3.3,0.1,4.9v40.3c0,1.4-0.4,2.8-1.2,4c-1.2,1.5-3,2.4-4.9,2.4H9.3c-1.1,0-2.1-0.2-3.1-0.7
			c-2-1.1-3.2-3.1-3.2-5.4V29.7c0-3.4,2.7-6.1,6.1-6.2c0,0,0.1,0,0.1,0h71.6c0.6,0,1.1,0,1.7,0.1c2.5,0.6,4.4,2.7,4.7,5.3
			c0.2,0.7,0.9,1.1,1.6,1C89.5,29.8,90,29,89.8,28.2C89.8,28.3,89.8,28.3,89.8,28.2z"/>
		<path class="st0" d="M20.5,41.1c0,0.1-0.1,0.1-0.2,0.1h-8.7c-0.2,0-0.2-0.1-0.2-0.2v-7.7c-0.1-0.4-0.1-0.8,0-1.2c0,0,0.1,0,0.2,0
			h8.5c0.3,0,0.3,0,0.3,0.3v5.2C20.5,38.7,20.5,39.9,20.5,41.1c0,0.7,0.7,1.3,1.5,1.2c0.6-0.1,1.2-0.6,1.2-1.2v-8.7
			c0-1.6-1.3-2.8-2.8-2.9h-8.7c-1.6,0-2.8,1.3-2.8,2.9V37c0,1.4-0.1,2.8,0,4.3c0.1,1.5,1.4,2.7,2.9,2.7h8.7c1.6,0,2.8-1.3,2.9-2.8
			C23.3,39.3,20.7,39.3,20.5,41.1z"/>
		<path class="st0" d="M74.7,72.9c-1,0-2-0.4-2.7-1.1c-0.5-0.5-1.4-0.5-1.9,0c-1.6,1.5-4.1,1.5-5.6-0.1c-1.5-1.6-1.5-4.1,0.1-5.6
			c1.5-1.5,3.9-1.5,5.5,0c0.5,0.5,1.4,0.5,1.9,0c1.6-1.5,4.1-1.5,5.6,0.1c1.5,1.6,1.5,4.1-0.1,5.6C76.7,72.6,75.7,73,74.7,72.9
			c-0.7,0.1-1.3,0.8-1.2,1.5c0.1,0.6,0.6,1.2,1.2,1.2c3.7,0,6.7-3,6.7-6.6c0-3.7-3-6.7-6.6-6.7c-1.7,0-3.4,0.7-4.7,1.9h1.9
			c-2-2-5.1-2.4-7.6-1.2c-3.3,1.6-4.6,5.6-3,8.9c1.6,3.3,5.6,4.6,8.9,3c0.6-0.3,1.2-0.7,1.7-1.2H70c1.3,1.2,2.9,1.9,4.6,1.9
			c0.7-0.1,1.3-0.7,1.2-1.5C75.8,73.5,75.3,73,74.7,72.9z"/>
		<path class="st0" d="M20.5,32.3V41c0,0.1-0.1,0.2-0.2,0.2h-8.8c-0.1,0-0.2-0.1-0.2-0.2v-8.8c0-0.1,0.1-0.1,0.2-0.1h8.8
			C20.5,32.1,20.5,32.2,20.5,32.3c0.1,1.7,2.8,1.7,2.7,0c0-1.6-1.3-2.9-2.9-2.8h-7.6c-0.5,0-1.1,0-1.7,0c-1.4,0.3-2.4,1.5-2.3,2.9
			v7.8c0,0.6,0,1.2,0.1,1.8c0.7,2.3,3.1,2,5,2h5.8c0.7,0,1.4-0.1,2.1-0.3c1-0.6,1.6-1.6,1.5-2.8v-8.5c0-0.7-0.6-1.4-1.4-1.4
			C21.1,30.9,20.5,31.5,20.5,32.3z"/>
		<path class="st0" d="M78.6,69c0,2.2-1.8,4-4,3.9c-1,0-1.9-0.4-2.7-1.1c-0.5-0.5-1.4-0.5-1.9,0c-1.6,1.5-4.1,1.5-5.6-0.1
			c-1.5-1.6-1.5-4.1,0.1-5.6c1.5-1.5,3.9-1.5,5.5,0c0.5,0.5,1.4,0.5,1.9,0c1.6-1.5,4.1-1.4,5.6,0.2C78.2,67.1,78.6,68,78.6,69
			c0.1,0.8,0.7,1.3,1.5,1.3c0.6-0.1,1.2-0.6,1.2-1.2c0-3.7-2.9-6.7-6.6-6.7c-1.7,0-3.4,0.7-4.7,1.9h1.9c-2-2-5.1-2.4-7.6-1.2
			c-3.3,1.6-4.6,5.6-3,8.9c1.6,3.3,5.6,4.6,8.9,3c0.6-0.3,1.2-0.7,1.7-1.2H70c2,2,5.1,2.4,7.6,1.2c2.2-1.1,3.6-3.4,3.6-5.9
			c-0.1-0.7-0.8-1.2-1.6-1.1C79.1,68,78.7,68.4,78.6,69z"/>
		<path class="st0" d="M110.6,8.8v44.3c0.1,3.4-2.5,6.2-5.9,6.3c-0.2,0-0.4,0-0.6,0H88.5l1.4,1.4v-31c0-2.6-1.1-5.2-3.2-6.9
			c-1.6-1.3-3.6-2-5.7-2H25l1.4,1.4V8.8c0-2.3,1.2-4.4,3.2-5.4c1.5-0.6,3.1-0.9,4.7-0.7h70.3C107.9,2.7,110.6,5.4,110.6,8.8
			c0.1,0.7,0.7,1.3,1.5,1.2c0.6-0.1,1.2-0.6,1.2-1.2c-0.1-4.9-4.1-8.8-9-8.7H32.5c-4.9,0-8.8,4-8.8,8.8v13.3c0,0.7,0.6,1.3,1.4,1.4
			h56.1c2.5,0,4.7,1.5,5.6,3.8c0.4,1.1,0.5,2.2,0.4,3.3v30.1c0,0.7,0.6,1.3,1.4,1.3h14.4c1.3,0.1,2.7,0,4-0.3c3-0.8,5.4-3.2,6.2-6.2
			c0.2-1,0.3-2,0.3-2.9V8.8c0-0.8-0.6-1.4-1.4-1.4C111.2,7.4,110.6,8,110.6,8.8L110.6,8.8z"/>
		<path class="st0" d="M110.6,16.2v12.5l1.4-1.4H88.5l1.3,1c-0.5-3.5-3-6.3-6.4-7.2c-0.9-0.2-1.9-0.3-2.8-0.3H25l1.4,1.4v-6L25,17.5
			h87c0.7-0.1,1.3-0.7,1.2-1.5c-0.1-0.6-0.6-1.2-1.2-1.2H25c-0.7,0-1.3,0.6-1.4,1.4v6c0,0.7,0.6,1.3,1.4,1.4h56.2
			c3.1,0.1,5.6,2.4,6,5.4c0.2,0.6,0.7,1,1.3,1H112c0.7,0,1.3-0.6,1.4-1.4V16.2c0-0.7-0.6-1.4-1.4-1.4
			C111.2,14.8,110.6,15.4,110.6,16.2z"/>
		<path class="st0" d="M102,40.9v7.5c0,0.1-0.1,0.2-0.2,0.2c0,0,0,0,0,0H88.5l1.4,1.4V39.4l-1.4,1.3h13.1
			C101.9,40.7,102,40.7,102,40.9c0.1,1.7,2.8,1.7,2.7,0c0-1.6-1.3-2.8-2.8-2.8H88.5c-0.7,0-1.3,0.6-1.4,1.4v10.5
			c0,0.7,0.6,1.3,1.4,1.4h13.3c1.4,0,2.6-1,2.9-2.3c0.1-0.6,0.1-1.2,0-1.8v-6.2c-0.2-0.7-0.9-1.2-1.6-1
			C102.5,40,102.1,40.4,102,40.9z"/>
	</g>
</g>
</svg>
