<svg xmlns="http://www.w3.org/2000/svg" viewBox="0 0 187.88 116.85"><defs><style>.cls-1{fill:#f9b916;}</style></defs><title>Asset 4</title><g id="Layer_2" data-name="Layer 2"><g id="guides"><path class="cls-1" d="M74.8,100.67a57,57,0,0,1-8.58-14.38H52.51q-1.54,0-1.77-.69t1-1.62L54,82.12c.51-.41.95-.77,1.31-1.08s.79-.67,1.3-1.08,1.28-1.08,2.3-2c1.28-1.06,2.5-2.12,3.69-3.18a77.15,77.15,0,0,1-1.74-16.42,76,76,0,0,1,3.9-24.83A58.65,58.65,0,0,1,75.06,15a36.45,36.45,0,0,0-2.59-3A38.33,38.33,0,0,0,59.73,3.32,45.61,45.61,0,0,0,41.55,0,34.1,34.1,0,0,0,25.89,3.49a44.56,44.56,0,0,0-12,8.77,54.16,54.16,0,0,0-8.49,11.4A79.65,79.65,0,0,0,.19,34.88a3.31,3.31,0,0,0,.23,2.7,3.56,3.56,0,0,0,2.24,1.77L25,45.07a3.92,3.92,0,0,0,2.86-.46,3.87,3.87,0,0,0,1.78-2.16,44.92,44.92,0,0,1,1.7-4.25,27,27,0,0,1,2.55-4.48,15.92,15.92,0,0,1,3.4-3.55,6.86,6.86,0,0,1,4.24-1.47,14.22,14.22,0,0,1,7,1.85q3.32,1.85,3.32,6.93a21.12,21.12,0,0,1-.31,3.62A12.48,12.48,0,0,1,50.12,45a23.81,23.81,0,0,1-3.47,4.55,72.64,72.64,0,0,1-6.17,5.7q-2,1.7-4.71,3.85T29,64.61Q25,68,19.17,72.86T5,84.64a7.89,7.89,0,0,0-2,2.85,8.3,8.3,0,0,0-.77,3.31V111a3.56,3.56,0,0,0,1.08,2.62,3.57,3.57,0,0,0,2.62,1.08H80a3.69,3.69,0,0,0,3.69-3.7v-1.43A53.19,53.19,0,0,1,74.8,100.67Z"/><path class="cls-1" d="M149.72,102.39l-.6,0a13.69,13.69,0,0,1-5.55-1.13,13.44,13.44,0,0,1-4.45-3.15,14.39,14.39,0,0,1-2.89-4.65,15.79,15.79,0,0,1-1-5.73,16,16,0,0,1,1-5.75,14.34,14.34,0,0,1,2.89-4.69,13.45,13.45,0,0,1,4.45-3.15,14.14,14.14,0,0,1,11.1,0,13.19,13.19,0,0,1,4.45,3.18A14.61,14.61,0,0,1,162,82c.09.25.17.5.25.75q.47-1.22.89-2.47a68.38,68.38,0,0,0,3.47-21.92A68,68,0,0,0,162.72,35a57.68,57.68,0,0,0-10.65-18.45A48.74,48.74,0,0,0,135.94,4.4,47.39,47.39,0,0,0,115.49,0,49.6,49.6,0,0,0,94.73,4.25a47.36,47.36,0,0,0-16.13,12A54.46,54.46,0,0,0,68.1,34.65a72.21,72.21,0,0,0-3.7,23.69,71.25,71.25,0,0,0,3.32,21.92,54.51,54.51,0,0,0,9.8,18.21,48.09,48.09,0,0,0,16.67,13.58,49.14,49.14,0,0,0,42.14.08A47,47,0,0,0,149.72,102.39ZM129.15,80a19.61,19.61,0,0,1-6.41,5.56,16,16,0,0,1-16.28-.77,21.39,21.39,0,0,1-6.25-6.79,33.34,33.34,0,0,1-3.7-9.34,44,44,0,0,1-1.23-10.26,40.88,40.88,0,0,1,1.85-13,29.22,29.22,0,0,1,4.71-9A18.31,18.31,0,0,1,108.31,31a16.83,16.83,0,0,1,7.18-1.7q8.18,0,14,6.79a25.9,25.9,0,0,1,4.48,9.8,50.53,50.53,0,0,1,1.54,12.43,40.11,40.11,0,0,1-1.78,12.5A30.28,30.28,0,0,1,129.15,80Z"/><path class="cls-1" d="M138.69,87.73a12.48,12.48,0,0,1,.79-4.5,10.83,10.83,0,0,1,2.19-3.56A10,10,0,0,1,145,77.33a10.66,10.66,0,0,1,8.29,0,9.68,9.68,0,0,1,3.28,2.34,11.08,11.08,0,0,1,2.16,3.56,12.5,12.5,0,0,1,.79,4.5,12.35,12.35,0,0,1-.79,4.45,10.84,10.84,0,0,1-2.19,3.56,10,10,0,0,1-3.31,2.34,10.05,10.05,0,0,1-4.09.84,10.17,10.17,0,0,1-4.15-.84,9.94,9.94,0,0,1-3.31-2.34,10.87,10.87,0,0,1-2.19-3.53A12.27,12.27,0,0,1,138.69,87.73Zm9.1,0c0,.1,0,.34,0,.71a5.1,5.1,0,0,0,.18,1.12,4.51,4.51,0,0,0,.41,1,.78.78,0,0,0,.71.46.75.75,0,0,0,.61-.33,2.61,2.61,0,0,0,.41-.81,6.21,6.21,0,0,0,.23-1.07,8.47,8.47,0,0,0,.08-1.09,7.59,7.59,0,0,0-.08-1,7,7,0,0,0-.23-1.07,2.6,2.6,0,0,0-.41-.84.75.75,0,0,0-.61-.33.79.79,0,0,0-.71.43,4.12,4.12,0,0,0-.41,1,4.74,4.74,0,0,0-.18,1.09C147.81,87.34,147.8,87.6,147.8,87.73Zm.81,25.18,21-35.19a2.17,2.17,0,0,1,.79-.71,2.1,2.1,0,0,1,1-.31h6a.73.73,0,0,1,.69.31.66.66,0,0,1-.08.71l-21,35.19a2,2,0,0,1-.79.76,2.1,2.1,0,0,1-1,.31h-6.05a.73.73,0,0,1-.69-.31A.75.75,0,0,1,148.61,112.91Zm18.46-9.46a12.28,12.28,0,0,1,.79-4.48A10.89,10.89,0,0,1,170,95.44a10,10,0,0,1,3.31-2.34,10.66,10.66,0,0,1,8.29,0,9.68,9.68,0,0,1,3.28,2.34A11.15,11.15,0,0,1,187.09,99a13,13,0,0,1,0,8.93,10.84,10.84,0,0,1-2.19,3.56,10.26,10.26,0,0,1-3.31,2.36,9.8,9.8,0,0,1-4.09.86,10.17,10.17,0,0,1-4.15-.84,9.94,9.94,0,0,1-3.31-2.34,10.82,10.82,0,0,1-2.19-3.56A12.48,12.48,0,0,1,167.07,103.45Zm9.1,0c0,.1,0,.34,0,.71a5.1,5.1,0,0,0,.18,1.12,4.52,4.52,0,0,0,.41,1,.78.78,0,0,0,.71.46.75.75,0,0,0,.61-.33,2.61,2.61,0,0,0,.41-.81,6.21,6.21,0,0,0,.23-1.07,8.47,8.47,0,0,0,.08-1.09,8.15,8.15,0,0,0-.08-1,6.24,6.24,0,0,0-.23-1.07,3,3,0,0,0-.41-.84.74.74,0,0,0-.61-.36.79.79,0,0,0-.71.43,4,4,0,0,0-.41,1,5.11,5.11,0,0,0-.18,1.12C176.19,103.06,176.18,103.31,176.18,103.45Z"/></g></g></svg>