<?xml version="1.0" encoding="utf-8"?>
<!-- Generator: Adobe Illustrator 21.1.0, SVG Export Plug-In . SVG Version: 6.00 Build 0)  -->
<svg version="1.1" id="Layer_1" xmlns="http://www.w3.org/2000/svg" xmlns:xlink="http://www.w3.org/1999/xlink" x="0px" y="0px"
	 viewBox="0 0 187.9 116.8" style="enable-background:new 0 0 187.9 116.8;" xml:space="preserve">
<style type="text/css">
	.st0{fill:#F9B916;}
</style>
<title>Asset 6</title>
<g id="Layer_2">
	<g id="guides">
		<path class="st0" d="M124.5,12.1h-4.3V4.6c0-1.8-1.4-3.2-3.2-3.2c-1.8,0-3.2,1.4-3.2,3.2v7.5H73.9V4.6c0-1.8-1.4-3.2-3.2-3.2
			s-3.2,1.4-3.2,3.2v7.5h-4.3c-12.3,0-22.3,10-22.3,22.3v58.6c0,12.3,10,22.3,22.3,22.3h61.5c12.3,0,22.3-10,22.3-22.3V34.5
			C146.9,22.1,136.8,12.2,124.5,12.1z M124.5,109H63.2c-8.8,0-16-7.2-16-16V48.9h93.4v44.2C140.5,101.9,133.3,109,124.5,109
			L124.5,109z M140.5,42.5H47.3v-8c0-8.8,7.2-16,16-16c0,0,0,0,0,0h4.3V26c0,1.8,1.4,3.2,3.2,3.2c1.8,0,3.2-1.4,3.2-3.2c0,0,0,0,0,0
			v-7.5h39.9V26c0,1.8,1.4,3.2,3.2,3.2s3.2-1.4,3.2-3.2c0,0,0,0,0,0v-7.5h4.3c8.8,0,16,7.2,16,16L140.5,42.5z"/>
		<path class="st0" d="M120.9,84h-54c-1.8,0-3.2,1.4-3.2,3.2c0,1.8,1.4,3.2,3.2,3.2h53.8c1.8,0,3.2-1.4,3.2-3.2
			C123.9,85.5,122.6,84,120.9,84C120.9,84,120.9,84,120.9,84z"/>
		<path class="st0" d="M76,72.3h35.9c1.8,0,3.2-1.4,3.2-3.2c0-1.8-1.4-3.2-3.2-3.2H76c-1.8,0-3.2,1.4-3.2,3.2
			C72.8,70.9,74.2,72.3,76,72.3z"/>
	</g>
</g>
</svg>
