<svg xmlns="http://www.w3.org/2000/svg" viewBox="0 0 58.12 61.32"><defs><style>.cls-1{fill:#b8b8b8;}</style></defs><title>Asset 10</title><g id="Layer_2" data-name="Layer 2"><g id="guides"><path class="cls-1" d="M45.49,40.39c-2.5-.89-4-1.54-4-3.69a3.78,3.78,0,0,1,7.56,0h1.57a5.33,5.33,0,0,0-4.44-5.23V29.67H44.57v1.77a5.32,5.32,0,0,0-4.69,5.26c0,3.37,2.7,4.33,5.09,5.17,2.59.92,4.17,1.6,4.17,3.9a3.78,3.78,0,0,1-7.56,0H40A5.33,5.33,0,0,0,44.57,51v1.74h1.57V51a5.33,5.33,0,0,0,4.57-5.24C50.71,42.24,47.82,41.21,45.49,40.39Z"/><rect class="cls-1" x="17.2" y="8.53" width="32.99" height="1.57"/><rect class="cls-1" x="17.2" y="16.34" width="33.08" height="1.57"/><rect class="cls-1" x="17.2" y="23.85" width="33.08" height="1.57"/><rect class="cls-1" x="17.2" y="31.66" width="17.35" height="1.57"/><rect class="cls-1" x="17.2" y="39.48" width="17.39" height="1.57"/><rect class="cls-1" x="17.2" y="46.98" width="17.39" height="1.57"/><path class="cls-1" d="M52.73,0H5.43A5.44,5.44,0,0,0,0,5.44v11H9L9,61.26l6.66-5.75,5.95,5.1,5.94-5.1,5.94,5.1,5.94-5.1,5.94,5.1,5.94-5.11,6.81,5.82V5.39A5.39,5.39,0,0,0,52.73,0ZM9,14.86H1.59V5.44A3.87,3.87,0,0,1,5.44,1.57,3.66,3.66,0,0,1,9,5.45Zm47.52,43-5.23-4.47-5.94,5.1-5.94-5.11-5.94,5.11-5.94-5.11-5.94,5.11-5.95-5.11-5.08,4.39,0-52.37A5.59,5.59,0,0,0,9.14,1.57H52.73a3.82,3.82,0,0,1,3.82,3.81Z"/></g></g></svg>