<?xml version="1.0" encoding="utf-8"?>
<!-- Generator: Adobe Illustrator 21.1.0, SVG Export Plug-In . SVG Version: 6.00 Build 0)  -->
<svg version="1.1" id="Layer_1" xmlns="http://www.w3.org/2000/svg" xmlns:xlink="http://www.w3.org/1999/xlink" x="0px" y="0px"
	 viewBox="0 0 187.9 116.8" style="enable-background:new 0 0 187.9 116.8;" xml:space="preserve">
<style type="text/css">
	.st0{fill:#F9B916;}
	.st1{clip-path:url(#SVGID_2_);}
</style>
<title>Asset 8</title>
<g id="Layer_2">
	<g id="guides">
		<path class="st0" d="M131.7,113.3H29.8c-16,0-29.1-13-29.1-29.1V32.7c0-16,13.1-29.1,29.1-29.1h101.9c16.1,0,29.2,13.1,29.2,29.1
			v51.5C160.9,100.3,147.8,113.3,131.7,113.3z M29.8,11.2c-11.9,0-21.6,9.7-21.6,21.6v51.5c0,11.9,9.7,21.6,21.6,21.6h101.9
			c11.9,0,21.6-9.7,21.6-21.6V32.7c0-11.9-9.7-21.6-21.6-21.6L29.8,11.2z"/>
		<path class="st0" d="M131,89.3c0,2.7-2.2,4.8-4.9,4.8c-1.2,0-2.4-0.5-3.3-1.3c-0.7-0.6-1.6-0.6-2.4,0c-2,1.9-5.1,1.8-6.8-0.2
			c-1.9-2-1.8-5.1,0.2-6.8c1.9-1.8,4.8-1.8,6.7,0c0.7,0.6,1.6,0.6,2.4,0c2-1.9,5.1-1.8,7,0.2C130.5,87,131,88.2,131,89.3
			c0,0.9,0.7,1.6,1.6,1.6s1.6-0.7,1.6-1.6c-0.1-4.6-3.8-8.2-8.4-8.1c-2.1,0-4,0.8-5.5,2.2h2.4c-2.6-2.4-6.2-2.9-9.4-1.4
			c-4.1,1.9-6,6.8-4,11c1.9,4.1,6.8,6,11,4c0.9-0.5,1.8-1.1,2.6-1.8h-2.4c2.6,2.4,6.2,2.9,9.4,1.4c2.7-1.4,4.5-4.2,4.5-7.3
			c0-0.9-0.7-1.6-1.6-1.6C131.7,87.7,131,88.4,131,89.3L131,89.3z"/>
		<polygon class="st0" points="168.6,79.7 168.6,70.3 165,70.3 165,54.9 168.6,54.9 168.6,44.8 187.2,61.1 		"/>
		<g>
			<g>
				<defs>
					<path id="SVGID_1_" d="M29.8,7.4h101.9c14,0,25.3,11.3,25.3,25.3v51.5c0,14-11.3,25.3-25.3,25.3H29.8
						c-14,0-25.3-11.3-25.3-25.3V32.7C4.5,18.8,15.9,7.4,29.8,7.4z"/>
				</defs>
				<clipPath id="SVGID_2_">
					<use xlink:href="#SVGID_1_"  style="overflow:visible;"/>
				</clipPath>
				<g class="st1">
					<path class="st0" d="M157.7,70c-34.4,0-62.3-27.9-62.3-62.3s27.9-62.3,62.3-62.3s62.3,27.9,62.3,62.3
						C219.9,42.1,192.1,70,157.7,70z M157.7-38.6c-25.6,0-46.3,20.7-46.3,46.3S132.2,54,157.7,54S204,33.3,204,7.7l0,0
						C204-17.9,183.3-38.6,157.7-38.6L157.7-38.6z"/>
				</g>
			</g>
		</g>
	</g>
</g>
</svg>
