<?xml version="1.0" encoding="utf-8"?>
<!-- Generator: Adobe Illustrator 21.1.0, SVG Export Plug-In . SVG Version: 6.00 Build 0)  -->
<svg version="1.1" id="Layer_1" xmlns="http://www.w3.org/2000/svg" xmlns:xlink="http://www.w3.org/1999/xlink" x="0px" y="0px"
	 viewBox="0 0 187.9 116.8" style="enable-background:new 0 0 187.9 116.8;" xml:space="preserve">
<style type="text/css">
	.st0{fill:#F9B916;}
</style>
<g id="Layer_2">
	<g id="guides">
		<path class="st0" d="M108.1,102.2c-1.6-0.7-3.1-1.8-4.3-3.1c-1.2-1.3-2.2-2.9-2.8-4.6c-0.7-1.8-1-3.7-1-5.6c0-1.9,0.3-3.8,1-5.6
			c0.6-1.7,1.6-3.3,2.8-4.6c1.2-1.3,2.7-2.4,4.3-3.1c3.5-1.5,7.4-1.5,10.8,0c0.8,0.4,1.6,0.8,2.3,1.3c0-0.3,0-0.7,0-1
			c0-13-3.5-23.1-10.6-30.3s-17-10.8-29.9-10.8h-1.7c-0.7,0-1.3,0.1-2,0.2c-0.8,0.2-1.7,0.1-2.4-0.5c-0.6-0.5-0.8-1.3-0.5-2
			c0.2-0.8,0.7-1.5,1.4-2c0.8-0.6,1.7-0.9,2.7-0.9h33c1,0,1.9-0.4,2.6-1.1c0.7-0.7,1.1-1.6,1.1-2.6V4.7c0-1-0.4-1.9-1.1-2.6
			c-0.7-0.7-1.6-1.1-2.6-1.1H53.3c-1,0-2,0.3-2.8,1c-0.8,0.6-1.3,1.5-1.5,2.5L39.6,55c-0.2,1,0,2.1,0.5,3c0.5,0.9,1.4,1.6,2.4,2
			l13.9,5.4c1,0.4,2.1,0.5,3.2,0.3c1.1-0.2,2.1-0.7,3-1.4c1.9-1.6,4-2.9,6.3-3.9c2.4-1.1,5.5-1.5,9.4-1.2c2.3,0.1,4.6,0.7,6.6,1.8
			c3.2,1.6,5.7,4.4,6.8,7.8c0.5,1.5,0.8,3,0.8,4.6c0.1,3.7-1.4,7.2-4,9.7c-2.7,2.6-6.5,3.8-11.4,3.8c-2.7,0-5.3-0.3-7.8-1
			c-2.3-0.6-4.4-1.5-6.5-2.5c-1.8-0.9-3.4-2-5-3.2c-1.2-1-2.4-2-3.5-3.1c-0.7-0.7-1.6-1.1-2.5-1.2c-0.9,0-1.8,0.3-2.4,1L36.7,90.3
			c-0.7,0.8-1.1,1.7-1,2.8c0,1,0.4,1.9,1.2,2.6c2.5,2.5,5.1,4.9,7.9,7.3c2.9,2.5,6,4.6,9.4,6.5c3.6,2,7.4,3.5,11.3,4.6
			c4.4,1.2,9,1.8,13.5,1.8c5.4,0,10.7-0.9,15.7-2.8c4.9-1.8,9.4-4.4,13.4-7.7c0.9-0.8,1.7-1.6,2.5-2.4
			C109.7,102.8,108.9,102.6,108.1,102.2z"/>
		<path class="st0" d="M103.2,89c0-1.5,0.3-3.1,0.8-4.5c0.5-1.3,1.2-2.5,2.2-3.6c0.9-1,2.1-1.8,3.3-2.3c2.6-1.1,5.6-1.1,8.3,0
			c1.2,0.5,2.4,1.3,3.3,2.3c0.9,1,1.7,2.2,2.2,3.6c0.5,1.4,0.8,3,0.8,4.5c0,1.5-0.3,3-0.8,4.4c-0.5,1.3-1.2,2.5-2.2,3.6
			c-0.9,1-2,1.8-3.3,2.3c-1.3,0.6-2.7,0.8-4.1,0.8c-1.4,0-2.8-0.3-4.1-0.8c-1.3-0.5-2.4-1.3-3.3-2.3c-0.9-1-1.7-2.2-2.2-3.5
			C103.4,92,103.1,90.5,103.2,89z M112.2,89c0,0.1,0,0.3,0,0.7c0,0.4,0.1,0.8,0.2,1.1c0.1,0.3,0.2,0.7,0.4,1
			c0.1,0.3,0.4,0.5,0.7,0.5c0.2,0,0.5-0.1,0.6-0.3c0.2-0.2,0.3-0.5,0.4-0.8c0.1-0.3,0.2-0.7,0.2-1.1c0.1-0.4,0.1-0.7,0.1-1.1
			c0-0.3,0-0.7-0.1-1c0-0.4-0.1-0.7-0.2-1.1c-0.1-0.3-0.2-0.6-0.4-0.8c-0.1-0.2-0.4-0.3-0.6-0.3c-0.3,0-0.6,0.2-0.7,0.4
			c-0.2,0.3-0.3,0.7-0.4,1c-0.1,0.4-0.2,0.7-0.2,1.1C112.2,88.6,112.2,88.8,112.2,89L112.2,89z M113,114.1L134,79
			c0.2-0.3,0.5-0.5,0.8-0.7c0.3-0.2,0.6-0.3,1-0.3h6c0.3,0,0.5,0.1,0.7,0.3c0.1,0.2,0.1,0.5-0.1,0.7l-20.9,35.1
			c-0.2,0.3-0.5,0.6-0.8,0.8c-0.3,0.2-0.6,0.3-1,0.3h-6.1c-0.3,0-0.5-0.1-0.7-0.3C112.9,114.6,112.9,114.3,113,114.1L113,114.1z
			 M131.5,104.7c0-1.5,0.3-3,0.8-4.5c0.5-1.3,1.2-2.5,2.2-3.5c0.9-1,2.1-1.8,3.3-2.3c2.6-1.1,5.6-1.1,8.3,0c1.2,0.5,2.4,1.3,3.3,2.3
			c0.9,1,1.7,2.2,2.2,3.5c1,2.9,1,6,0,8.9c-0.5,1.3-1.2,2.5-2.2,3.6c-0.9,1-2.1,1.8-3.3,2.4c-1.3,0.6-2.7,0.9-4.1,0.9
			c-1.4,0-2.8-0.3-4.1-0.8c-1.2-0.5-2.4-1.3-3.3-2.3c-1-1-1.7-2.2-2.2-3.6C131.7,107.7,131.5,106.2,131.5,104.7L131.5,104.7z
			 M140.5,104.7c0,0.1,0,0.3,0,0.7c0,0.4,0.1,0.8,0.2,1.1c0.1,0.3,0.2,0.7,0.4,1c0.1,0.3,0.4,0.5,0.7,0.5c0.2,0,0.5-0.1,0.6-0.3
			c0.2-0.2,0.3-0.5,0.4-0.8c0.1-0.3,0.2-0.7,0.2-1.1c0.1-0.4,0.1-0.7,0.1-1.1c0-0.3,0-0.7-0.1-1c0-0.4-0.1-0.7-0.2-1.1
			c-0.1-0.3-0.2-0.6-0.4-0.8c-0.1-0.2-0.4-0.4-0.6-0.4c-0.3,0-0.6,0.2-0.7,0.4c-0.2,0.3-0.3,0.6-0.4,1c-0.1,0.4-0.2,0.7-0.2,1.1
			C140.6,104.3,140.6,104.5,140.5,104.7L140.5,104.7z"/>
	</g>
</g>
</svg>
