<?xml version="1.0" encoding="utf-8"?>
<!-- Generator: Adobe Illustrator 21.1.0, SVG Export Plug-In . SVG Version: 6.00 Build 0)  -->
<svg version="1.1" id="Layer_1" xmlns="http://www.w3.org/2000/svg" xmlns:xlink="http://www.w3.org/1999/xlink" x="0px" y="0px"
	 viewBox="0 0 113.5 82.9" style="enable-background:new 0 0 113.5 82.9;" xml:space="preserve">
<style type="text/css">
	.st0{fill:#B8B8B8;}
</style>
<title>Asset 10</title>
<g id="Layer_2">
	<g id="guides">
		<path class="st0" d="M78.9,54.6c-3.4-1.2-5.4-2.1-5.4-5c0-2.8,2.3-5.1,5.1-5.1c2.8,0,5.1,2.3,5.1,5.1h2.1c0-3.5-2.5-6.5-6-7.1
			v-2.4h-2.2v2.4c-3.6,0.4-6.3,3.5-6.3,7.1c0,4.5,3.6,5.8,6.9,7c3.5,1.2,5.6,2.2,5.6,5.3c0,2.8-2.3,5.1-5.1,5.1
			c-2.8,0-5.1-2.3-5.1-5.1h-2.1c0,3.5,2.6,6.5,6.2,7.1v2.3h2.1v-2.3c3.5-0.5,6.1-3.5,6.2-7.1C86,57,82.1,55.7,78.9,54.6z"/>
		<rect x="40.8" y="11.6" class="st0" width="44.5" height="2.1"/>
		<rect x="40.8" y="22.1" class="st0" width="44.6" height="2.1"/>
		<rect x="40.8" y="32.3" class="st0" width="44.6" height="2.1"/>
		<rect x="40.8" y="42.8" class="st0" width="23.4" height="2.1"/>
		<rect x="40.8" y="53.3" class="st0" width="23.4" height="2.1"/>
		<rect x="40.8" y="63.4" class="st0" width="23.4" height="2.1"/>
		<path class="st0" d="M88.7,0.1H24.9c-4,0-7.3,3.3-7.3,7.3v14.8h12.1v60.4l9-7.8l8,6.9l8-6.9l8,6.9l8-6.9l8,6.9l8-6.9l9.2,7.8V7.4
			C95.9,3.4,92.7,0.1,88.7,0.1z M29.7,20.1h-10V7.4c0-2.9,2.3-5.2,5.2-5.2c2.7,0.1,4.9,2.3,4.8,5.1c0,0.1,0,0.1,0,0.2V20.1z
			 M93.8,78.1l-7.1-6l-8,6.9l-8-6.9l-8,6.9l-8-6.9l-8,6.9l-8-6.9L31.8,78V7.4c0-1.9-0.6-3.7-1.9-5.2h58.8c2.8,0,5.1,2.3,5.1,5.1
			L93.8,78.1z"/>
	</g>
</g>
</svg>
