<svg xmlns="http://www.w3.org/2000/svg" viewBox="0 0 113.53 60.06"><defs><style>.cls-1{fill:#b8b8b8;}</style></defs><title>Asset 9</title><g id="Layer_2" data-name="Layer 2"><g id="guides"><path class="cls-1" d="M77.12,30a20.37,20.37,0,1,1-6.34-14.76A20.53,20.53,0,0,1,77.12,30a1.35,1.35,0,0,0,2.7,0A23.06,23.06,0,1,0,47.55,51.15,23.05,23.05,0,0,0,79.82,30,1.35,1.35,0,0,0,77.12,30Z"/><path class="cls-1" d="M0,1.35V58.7a1.36,1.36,0,0,0,1.35,1.35H112.18a1.36,1.36,0,0,0,1.35-1.35V1.35A1.36,1.36,0,0,0,112.18,0H1.35a1.35,1.35,0,0,0,0,2.7H112.18l-1.35-1.35V58.7l1.35-1.35H1.35L2.7,58.7V1.35A1.35,1.35,0,0,0,0,1.35Z"/><path class="cls-1" d="M7.87,12.27V6.52L6.52,7.87h6.91a1.35,1.35,0,0,0,0-2.7H6.52A1.36,1.36,0,0,0,5.17,6.52v5.75a1.35,1.35,0,0,0,2.7,0Z"/><path class="cls-1" d="M108.37,12.27V6.52A1.36,1.36,0,0,0,107,5.17H100.1a1.35,1.35,0,0,0,0,2.7H107l-1.35-1.35v5.75a1.35,1.35,0,0,0,2.7,0Z"/><path class="cls-1" d="M5.17,47.79v5.75a1.36,1.36,0,0,0,1.35,1.35h6.91a1.35,1.35,0,0,0,0-2.7H6.52l1.35,1.35V47.79a1.35,1.35,0,0,0-2.7,0Z"/><path class="cls-1" d="M105.66,47.79v5.75L107,52.19H100.1a1.35,1.35,0,0,0,0,2.7H107a1.36,1.36,0,0,0,1.35-1.35V47.79a1.35,1.35,0,0,0-2.7,0Z"/><path class="cls-1" d="M56.77,28.74A3.81,3.81,0,0,1,54,22.35a3.85,3.85,0,0,1,4.25-.86A3.8,3.8,0,0,1,60.55,25a1.35,1.35,0,0,0,2.7,0,6.48,6.48,0,1,0-6.48,6.48,1.35,1.35,0,0,0,0-2.7Z"/><path class="cls-1" d="M56.77,31.45a3.81,3.81,0,0,1,2.73,6.39,3.85,3.85,0,0,1-4.25.86A3.8,3.8,0,0,1,53,35.23a1.35,1.35,0,0,0-2.7,0,6.48,6.48,0,1,0,6.48-6.48,1.35,1.35,0,0,0,0,2.7Z"/><path class="cls-1" d="M55.37,17.3V42.75a1.35,1.35,0,0,0,2.7,0V17.3a1.35,1.35,0,0,0-2.7,0Z"/><path class="cls-1" d="M20.93,30a3.3,3.3,0,1,1-3.3-3.3,3.33,3.33,0,0,1,3.3,3.3,1.35,1.35,0,0,0,2.7,0,6,6,0,1,0-6,6,6.09,6.09,0,0,0,6-6A1.35,1.35,0,0,0,20.93,30Z"/><path class="cls-1" d="M99.21,30a3.3,3.3,0,1,1-3.3-3.3,3.33,3.33,0,0,1,3.3,3.3,1.35,1.35,0,0,0,2.7,0,6,6,0,1,0-6,6,6.09,6.09,0,0,0,6-6A1.35,1.35,0,0,0,99.21,30Z"/></g></g></svg>