<svg xmlns="http://www.w3.org/2000/svg" viewBox="0 0 42 42"><defs><style>.cls-1{fill:#d91c24;}</style></defs><title>Asset 2</title><g id="Layer_2" data-name="Layer 2"><g id="Layer_3" data-name="Layer 3"><path class="cls-1" d="M21,42A21,21,0,1,1,42,21,21,21,0,0,1,21,42ZM11.75,27.55a1.15,1.15,0,0,1,1.16-1.16H29.09a1.16,1.16,0,1,1,0,2.31H12.91A1.15,1.15,0,0,1,11.75,27.55Zm0-6.55a1.15,1.15,0,0,1,1.16-1.16H29.09a1.16,1.16,0,1,1,0,2.31H12.91A1.15,1.15,0,0,1,11.75,21Zm0-6.55a1.15,1.15,0,0,1,1.16-1.16H29.09a1.16,1.16,0,1,1,0,2.31H12.91A1.15,1.15,0,0,1,11.75,14.45ZM21,40.07A19.07,19.07,0,1,0,1.93,21,19.07,19.07,0,0,0,21,40.07Z"/></g></g></svg>