<svg xmlns="http://www.w3.org/2000/svg" xmlns:xlink="http://www.w3.org/1999/xlink" viewBox="0 0 503.14 230.17"><defs><style>.cls-1,.cls-15,.cls-20,.cls-3{fill:none;}.cls-2{isolation:isolate;}.cls-3{stroke:#ea2448;stroke-miterlimit:10;stroke-width:6.32px;}.cls-4{fill:#b71932;}.cls-5{fill:#00122f;}.cls-6{fill:#ee3840;}.cls-7{fill:#ff8c00;}.cls-8{fill:#ff9e24;}.cls-9{fill:#ffb14d;}.cls-10{fill:#dad6fc;}.cls-11{fill:#e9e5ff;}.cls-12{fill:#ed3c26;}.cls-13{fill:#334159;}.cls-14,.cls-17,.cls-18,.cls-19{fill:#94ca70;}.cls-15,.cls-17,.cls-19,.cls-20,.cls-22{stroke:#44632c;stroke-linecap:round;stroke-linejoin:round;}.cls-15,.cls-17,.cls-22{stroke-width:3.14px;}.cls-16{clip-path:url(#clip-path);}.cls-18{opacity:0.4;mix-blend-mode:multiply;}.cls-19,.cls-20{stroke-width:2.09px;}.cls-21{clip-path:url(#clip-path-2);}.cls-22{fill:#3b5825;}</style><clipPath id="clip-path"><rect class="cls-1" x="369.49" y="121.45" width="123.95" height="58.45" transform="translate(862.93 301.35) rotate(-180)"/></clipPath><clipPath id="clip-path-2"><rect class="cls-1" x="16.19" y="121.45" width="123.95" height="58.45"/></clipPath></defs><title>Asset 2</title><g class="cls-2"><g id="Layer_2" data-name="Layer 2"><g id="Layer_3" data-name="Layer 3"><path class="cls-3" d="M293.43,168.57"/><path class="cls-4" d="M289.38,171.11a3.16,3.16,0,0,0,3.15-2.94c0-.41,0-.82,0-1.24a17.56,17.56,0,1,0-35.12,0,3.16,3.16,0,0,0,6.32,0,11.24,11.24,0,1,1,22.48,0c0,.27,0,.53,0,.8a3.16,3.16,0,0,0,2.93,3.37Z"/><path class="cls-5" d="M263.87,166.93A11.14,11.14,0,1,1,275,178.07,11.15,11.15,0,0,1,263.87,166.93Zm7.58,0a3.56,3.56,0,1,0,3.56-3.56A3.56,3.56,0,0,0,271.46,166.93Z"/><path class="cls-4" d="M221.75,171.11a3.16,3.16,0,0,0,3.15-2.94c0-.41,0-.83,0-1.24a17.56,17.56,0,0,0-35.12,0,3.16,3.16,0,0,0,6.32,0,11.24,11.24,0,0,1,22.48,0c0,.27,0,.53,0,.8a3.16,3.16,0,0,0,2.93,3.37Z"/><path class="cls-5" d="M196.25,166.93a11.14,11.14,0,1,1,11.14,11.14A11.15,11.15,0,0,1,196.25,166.93Zm7.58,0a3.56,3.56,0,1,0,3.56-3.56A3.56,3.56,0,0,0,203.83,166.93Z"/><path class="cls-6" d="M204.12,40.12h5.11V21.41a16.3,16.3,0,0,1,32.6,0V40.12h5.11V21.41a21.41,21.41,0,0,0-42.81,0Z"/><path class="cls-7" d="M228.36,40.12h5.11V21.41a16.3,16.3,0,0,1,32.6,0V40.12h5.11V21.41a21.41,21.41,0,0,0-42.81,0Z"/><polygon class="cls-8" points="189.17 32.18 201.29 32.18 211.5 71.24 201.29 110.29 189.17 110.29 189.17 32.18"/><polygon class="cls-7" points="213.41 32.18 223.62 71.24 213.41 110.29 201.29 110.29 201.29 32.18 213.41 32.18"/><rect class="cls-9" x="213.41" y="32.18" width="72.72" height="78.11"/><path class="cls-10" d="M168.42,113.44a5,5,0,0,0,2.68.78h45a2.7,2.7,0,0,0,2.77-2.51,2.63,2.63,0,0,0-2.84-2.65H194.2l-4.68-21.92h19.37a2.7,2.7,0,0,0,2.77-2.51A2.63,2.63,0,0,0,208.82,82H188.27l-4.89-23.21h18.84A2.7,2.7,0,0,0,205,56.26a2.63,2.63,0,0,0-2.84-2.65H157.87a2.67,2.67,0,0,0-.3,0h-.29c-.06,0-.12.14-.18.16a3.13,3.13,0,0,0-.34.16c-.08,0-.15.11-.23.15l-.25.16c-.08.05-.15.13-.22.19l-.2.18c-.06.07-.12.14-.17.21s-.12.14-.17.22-.08.15-.13.23a2.79,2.79,0,0,0-.13.25,2.86,2.86,0,0,0-.09.28c0,.08-.05.16-.07.24s-.1,1.15-.1,1.16l6.19,27.93,4,23.63a6.58,6.58,0,0,0,2.94,4.45Zm14-30.8H166.31l-4.89-23h16.14Zm5.93,27H172.24l-4.68-22H183.7Z"/><path class="cls-10" d="M204.27,142.27c3.21,0,31.13.09,31.42.09a3.14,3.14,0,0,1,2.83,3.17,3.09,3.09,0,0,1-2.84,3.11h0c-1.15,0-28.23-.36-31.46-.39-.85,0-3.47-.12-4.56,1-.18.18-.74.64-.74,2.36a5.05,5.05,0,0,0,1.29,3.81,8.14,8.14,0,0,0,3.75,1.84s.05.42.08.42h28.43a2.52,2.52,0,1,1,0,5H203.94a11.8,11.8,0,0,1-7.69-3.11,10.77,10.77,0,0,1-3-8,8.83,8.83,0,0,1,2.43-6.52C198.14,142.52,201.76,142.23,204.27,142.27Z"/><path class="cls-11" d="M199.39,57.29l13.88,55.09a3,3,0,0,0,2.76,2.26h47.88l11.39,18.83s.06,0,.09.09c1.08,1.57,2.23,4,1.55,5.57-.86,2-4.35,3.51-5.57,3.51H241.43c-1.63,0-10.78-1-15.25,3a7.35,7.35,0,0,0-2.55,5.66c0,4.18,2.2,7.68,6.35,10.25a21.24,21.24,0,0,0,5.85,2.45,3.09,3.09,0,0,0,.65.17,2.77,2.77,0,0,0,2.57-1.56h56.58a2.52,2.52,0,1,0,0-5H233c-1.89,0-3.73-3.37-3.73-6a2.38,2.38,0,0,1,.67-1.77c2.18-2,8.37-1.81,11-1.55.09,0,.19.27.28.27h60c.83,0,8.21-.52,11.35-5.53,1.89-3,1.74-7-.46-11.56,0-.06-.06-.2-.09-.26l-11.38-19.46,17.32-68.19h15.48c1.57,0,2.84-2.43,2.84-4s-1.27-4-2.84-4H315.86c-1.3,0-2.44,1.36-2.76,2.62l-3.75,15.38H202.15a2.9,2.9,0,0,0-2.24,1.15A3,3,0,0,0,199.39,57.29Zm42,52.35v-22h30v22Zm36,0v-22h23.49l-5.37,22Zm-36-27v-23h30v23Zm66.53-23-5.61,23H277.38v-23Zm-37.37,55h25.52L307.14,134c.87,1.81,1.68,4.42.73,5.94-1.25,2-5.25,2.66-6.55,2.66H281.6c.21,0,.41-.93.57-1.31,1.35-3.17.66-6.78-2-10.75Zm-57.68-27h21.52v22H218.24Zm-7.06-28h28.58v23h-23Z"/><path class="cls-12" d="M322.1,171.11a3.16,3.16,0,0,0,3.15-2.94c0-.41,0-.82,0-1.24a17.56,17.56,0,1,0-35.12,0,3.16,3.16,0,0,0,6.32,0,11.24,11.24,0,1,1,22.48,0c0,.27,0,.53,0,.8a3.16,3.16,0,0,0,2.93,3.37Z"/><path class="cls-13" d="M296.6,166.93a11.14,11.14,0,1,1,11.14,11.14A11.15,11.15,0,0,1,296.6,166.93Zm7.58,0a3.56,3.56,0,1,0,3.56-3.56A3.56,3.56,0,0,0,304.18,166.93Z"/><path class="cls-12" d="M255.24,171.11a3.16,3.16,0,0,0,3.15-2.94c0-.41,0-.82,0-1.24a17.56,17.56,0,1,0-35.12,0,3.16,3.16,0,0,0,6.32,0,11.24,11.24,0,1,1,22.48,0c0,.27,0,.53,0,.8A3.16,3.16,0,0,0,255,171.1Z"/><path class="cls-13" d="M229.74,166.93a11.14,11.14,0,1,1,11.14,11.14A11.15,11.15,0,0,1,229.74,166.93Zm7.58,0a3.56,3.56,0,1,0,3.56-3.56A3.56,3.56,0,0,0,237.32,166.93Z"/><rect class="cls-12" x="324.87" y="34.7" width="22.35" height="9.48" rx="4.74" ry="4.74" transform="translate(672.08 78.88) rotate(-180)"/><rect class="cls-14" x="70.89" y="179.9" width="383.35" height="25.17" rx="12.59" ry="12.59"/><rect class="cls-14" x="116.91" y="204.24" width="305.83" height="24.36" rx="10.79" ry="10.79"/><line class="cls-15" x1="10.84" y1="179.9" x2="1.57" y2="179.9"/><line class="cls-15" x1="134.43" y1="207.53" x2="364.52" y2="207.53"/><line class="cls-15" x1="370.15" y1="207.53" x2="378.87" y2="207.53"/><line class="cls-15" x1="167.48" y1="228.6" x2="177.47" y2="228.6"/><line class="cls-15" x1="183.1" y1="228.6" x2="336.92" y2="228.6"/><g class="cls-16"><circle class="cls-17" cx="447.4" cy="170.97" r="39.43"/><path class="cls-18" d="M445.22,133.91s27.25,7.73,26.6,47.73h13.66S490.89,130.77,445.22,133.91Z"/><circle class="cls-15" cx="447.4" cy="170.97" r="39.43"/><circle class="cls-19" cx="401.83" cy="174.7" r="23.38"/><path class="cls-18" d="M400.57,152.75s16.49,2.89,16.1,28.89h8.27S428.21,150.85,400.57,152.75Z"/><circle class="cls-20" cx="401.83" cy="174.7" r="23.38"/></g><g class="cls-21"><circle class="cls-17" cx="62.23" cy="170.97" r="39.43"/><path class="cls-18" d="M64.41,133.91s-27.25,7.73-26.6,47.73H24.15S18.74,130.77,64.41,133.91Z"/><circle class="cls-15" cx="62.23" cy="170.97" r="39.43"/><circle class="cls-19" cx="107.81" cy="174.7" r="23.38"/><path class="cls-18" d="M109.06,152.75S92.57,157.64,93,181.64H84.69S81.42,150.85,109.06,152.75Z"/><circle class="cls-20" cx="107.81" cy="174.7" r="23.38"/></g><line class="cls-22" x1="16.19" y1="179.9" x2="501.57" y2="179.9"/></g></g></g></svg>