<svg xmlns="http://www.w3.org/2000/svg" xmlns:xlink="http://www.w3.org/1999/xlink" viewBox="0 0 136.95 136.83"><defs><style>.cls-1{fill:none;}.cls-2,.cls-9{opacity:0.6;}.cls-3{fill:#fff;}.cls-4{fill:#556080;}.cls-5{fill:#d7625e;}.cls-6{fill:#e54c3c;}.cls-7{clip-path:url(#clip-path);}.cls-8{fill:#0e80c2;}.cls-9{fill:#0b4d6d;}</style><clipPath id="clip-path" transform="translate(-33.2 -36.12)"><rect class="cls-1" width="200" height="200"/></clipPath></defs><title>Asset 1</title><g id="Layer_2" data-name="Layer 2"><g id="guides"><g class="cls-2"><path class="cls-3" d="M96,125a5.63,5.63,0,1,1-5.63-5.63A5.63,5.63,0,0,1,96,125Zm0,0" transform="translate(-33.2 -36.12)"/><path class="cls-4" d="M90.39,131.73A6.75,6.75,0,1,1,97.14,125a6.76,6.76,0,0,1-6.75,6.75Zm0-11.25a4.5,4.5,0,1,0,4.5,4.5,4.51,4.51,0,0,0-4.5-4.5Zm0,0" transform="translate(-33.2 -36.12)"/><path class="cls-3" d="M121.9,125a5.63,5.63,0,1,1-5.63-5.63A5.62,5.62,0,0,1,121.9,125Zm0,0" transform="translate(-33.2 -36.12)"/><path class="cls-4" d="M116.27,131.73A6.75,6.75,0,1,1,123,125a6.76,6.76,0,0,1-6.75,6.75Zm0-11.25a4.5,4.5,0,1,0,4.5,4.5,4.51,4.51,0,0,0-4.5-4.5Zm0,0" transform="translate(-33.2 -36.12)"/><path class="cls-4" d="M127.53,125h-5.74a1.12,1.12,0,0,1,0-2.25h5.74a1.12,1.12,0,1,1,0,2.25Zm0,0" transform="translate(-33.2 -36.12)"/><path class="cls-4" d="M110.76,125H95.9a1.12,1.12,0,1,1,0-2.25h14.85a1.12,1.12,0,1,1,0,2.25Zm0,0" transform="translate(-33.2 -36.12)"/><path class="cls-5" d="M82.51,114.84,76.69,85.58H130.9v24.77a4.48,4.48,0,0,1-4.48,4.49H82.51" transform="translate(-33.2 -36.12)"/><path class="cls-4" d="M126.42,116H81.58L75.32,84.46H132v25.9a5.62,5.62,0,0,1-5.61,5.61Zm-43-2.25h43a3.37,3.37,0,0,0,3.36-3.36V86.71H78.06Zm0,0" transform="translate(-33.2 -36.12)"/><path class="cls-4" d="M76.69,86.71a1.12,1.12,0,0,1-1.11-.94l-.78-4.69H72.38a1.12,1.12,0,1,1,0-2.25h4.33L77.8,85.4a1.12,1.12,0,0,1-.92,1.29l-.19,0Zm0,0" transform="translate(-33.2 -36.12)"/><path class="cls-6" d="M72.38,80A3.38,3.38,0,1,1,69,76.58,3.38,3.38,0,0,1,72.38,80Zm0,0" transform="translate(-33.2 -36.12)"/><path class="cls-4" d="M84.87,125H81.38a5.64,5.64,0,0,1-5.6-6.2,5.81,5.81,0,0,1,5.81-5.06,1.13,1.13,0,0,1,0,2.25A3.53,3.53,0,0,0,78,119a3.34,3.34,0,0,0,.86,2.61,3.37,3.37,0,0,0,2.5,1.12h3.49a1.12,1.12,0,1,1,0,2.25Zm0,0" transform="translate(-33.2 -36.12)"/><g class="cls-7"><path class="cls-8" d="M164.27,93.57" transform="translate(-33.2 -36.12)"/><path class="cls-9" d="M100.88,36.12a68.46,68.46,0,0,0-63.65,91.6,2.52,2.52,0,0,0,2.38,1.68,3.26,3.26,0,0,0,.87-.14A2.55,2.55,0,0,0,42,126,63.38,63.38,0,0,1,145.94,59.22l.39.36-7.67.08a2.55,2.55,0,0,0,0,5.1h0l13.78-.17A2.58,2.58,0,0,0,155,62l-.14-13.78a2.55,2.55,0,1,0-5.1.06l.08,7.67-.39-.36a67.72,67.72,0,0,0-48.59-19.49Zm0,0" transform="translate(-33.2 -36.12)"/><path class="cls-9" d="M57.36,149.87l-.39-.36,7.67-.08a2.55,2.55,0,1,0-.06-5.1l-13.78.17a2.58,2.58,0,0,0-2.52,2.58l.17,13.78A2.55,2.55,0,0,0,51,163.37h0a2.58,2.58,0,0,0,2.52-2.58l-.08-7.67.39.37A68.46,68.46,0,0,0,166.13,81.38a2.54,2.54,0,1,0-4.79,1.71,63.4,63.4,0,0,1-104,66.79Zm0,0" transform="translate(-33.2 -36.12)"/></g></g></g></g></svg>