<svg xmlns="http://www.w3.org/2000/svg" viewBox="0 0 42 42"><defs><style>.cls-1{fill:#d91c24;}.cls-2{fill:#fff;}</style></defs><title>Asset 7</title><g id="Layer_2" data-name="Layer 2"><g id="Layer_3" data-name="Layer 3"><circle class="cls-1" cx="21" cy="21" r="19.07"/><circle class="cls-1" cx="21" cy="21" r="21"/><path class="cls-2" d="M15.3,26.7a1,1,0,0,1,0-1.43l10-10a1,1,0,1,1,1.43,1.43l-10,10A1,1,0,0,1,15.3,26.7Z"/><path class="cls-2" d="M15.3,15.3a1,1,0,0,1,1.43,0l10,10a1,1,0,1,1-1.43,1.43l-10-10A1,1,0,0,1,15.3,15.3Z"/></g></g></svg>