<svg xmlns="http://www.w3.org/2000/svg" viewBox="0 0 172.43 121.47"><defs><style>.cls-1{fill:#fab718;}</style></defs><title>Asset 2</title><g id="Layer_2" data-name="Layer 2"><g id="Contacto"><path class="cls-1" d="M135.21,50.3V5.8a5.81,5.81,0,0,0-5.8-5.8H20.06a5.81,5.81,0,0,0-5.8,5.8V19.2L1.54,25.56a2.78,2.78,0,0,0,0,5L14.26,36.9V50.3a5.81,5.81,0,0,0,5.8,5.8H129.41A5.81,5.81,0,0,0,135.21,50.3Zm-115.39,0V35.18a2.78,2.78,0,0,0-1.54-2.49L9,28l9.28-4.64a2.78,2.78,0,0,0,1.54-2.49V5.8a.24.24,0,0,1,.24-.24H129.41a.24.24,0,0,1,.24.24V50.3a.24.24,0,0,1-.24.24H20.06A.24.24,0,0,1,19.82,50.3Z"/><path class="cls-1" d="M114.6,97.83H55.27a2.78,2.78,0,0,0,0,5.56H114.6a2.78,2.78,0,1,0,0-5.56Z"/><path class="cls-1" d="M140.56,83.45H55.27a2.78,2.78,0,0,0,0,5.56h85.29a2.78,2.78,0,0,0,0-5.56Z"/><path class="cls-1" d="M170.9,90.93l-12.72-6.36V71.17a5.81,5.81,0,0,0-5.8-5.8H43a5.81,5.81,0,0,0-5.8,5.8v44.5a5.81,5.81,0,0,0,5.8,5.8H152.37a5.81,5.81,0,0,0,5.8-5.8v-13.4l12.72-6.36a2.78,2.78,0,0,0,0-5Zm-16.75,7.13a2.78,2.78,0,0,0-1.54,2.49v15.12a.24.24,0,0,1-.24.24H43a.24.24,0,0,1-.24-.24V71.17a.24.24,0,0,1,.24-.24H152.37a.24.24,0,0,1,.24.24V86.29a2.78,2.78,0,0,0,1.54,2.49l9.28,4.64Z"/><path class="cls-1" d="M91.64,32.46H31.79a2.78,2.78,0,1,0,0,5.56H91.64a2.78,2.78,0,1,0,0-5.56Z"/><path class="cls-1" d="M117.6,18.08H31.79a2.78,2.78,0,1,0,0,5.56H117.6a2.78,2.78,0,1,0,0-5.56Z"/></g></g></svg>