<svg xmlns="http://www.w3.org/2000/svg" viewBox="0 0 120.18 120.12"><defs><style>.cls-1{fill:#fab718;}</style></defs><title>Asset 1</title><g id="Layer_2" data-name="Layer 2"><g id="Contacto"><path class="cls-1" d="M89.27,70.94h0l-9.18-7a8.11,8.11,0,0,0-10.62.7L66,68.14a18.37,18.37,0,0,1-7.27-3.73l-.31-.26A19.46,19.46,0,0,1,56,61.76l-.26-.31A18.37,18.37,0,0,1,52,54.16l3.51-3.51A8.1,8.1,0,0,0,56.18,40l-7-9.18A8.43,8.43,0,0,0,39,28.25l-1,.45A17.47,17.47,0,0,0,27.57,44.29,46,46,0,0,0,38.34,74.86l.45.54a48.1,48.1,0,0,0,5.88,5.88l.54.45a46.09,46.09,0,0,0,29.6,10.78h1A17.46,17.46,0,0,0,91.36,82.1l.45-1A8.43,8.43,0,0,0,89.27,70.94ZM86,78.45l-.45,1a11,11,0,0,1-9.82,6.56,39.78,39.78,0,0,1-26.3-9.22l-.54-.45a41.65,41.65,0,0,1-5.09-5.09l-.5-.61a39.57,39.57,0,0,1-9.21-26.27,11,11,0,0,1,6.56-9.8l1-.45a2,2,0,0,1,2.39.62l7,9.16a1.63,1.63,0,0,1-.14,2.13l-4.74,4.74a3.23,3.23,0,0,0-.9,2.8,24.82,24.82,0,0,0,5.49,12l.26.31a25.92,25.92,0,0,0,3.23,3.19l.31.26a24.82,24.82,0,0,0,12,5.48,3.24,3.24,0,0,0,2.8-.9l4.74-4.74a1.63,1.63,0,0,1,2.11-.09l9.18,7a2,2,0,0,1,.61,2.34ZM17.62,17.56a60,60,0,0,0-9.85,72l-5,17.31a8.51,8.51,0,0,0,10.55,10.55l17.32-5a60.06,60.06,0,1,0-12.92-94.8ZM98,97.92a53.53,53.53,0,0,1-65.31,8.18,3.23,3.23,0,0,0-2.58-.32l-18.62,5.41a2.05,2.05,0,0,1-2.58-2.58L14.3,90A3.23,3.23,0,0,0,14,87.38,53.6,53.6,0,1,1,97.92,97.87Z"/></g></g></svg>