<svg xmlns="http://www.w3.org/2000/svg" viewBox="0 0 97 97"><defs><style>.cls-1{fill:#c6c6c6;}.cls-2{fill:#343434;}</style></defs><title>Asset 7</title><g id="Layer_2" data-name="Layer 2"><g id="guides"><circle class="cls-1" cx="48.5" cy="48.5" r="48.5"/><path class="cls-2" d="M67.24,68.11a2.37,2.37,0,0,1-1.62-.64,23.42,23.42,0,0,0-15.12-6,23.14,23.14,0,0,0-16.86,6A2.37,2.37,0,0,1,30.36,64a27.9,27.9,0,0,1,20.32-7.34A28.14,28.14,0,0,1,68.86,64a2.37,2.37,0,0,1-1.62,4.11Z"/><path class="cls-2" d="M78.9,54.23a1.52,1.52,0,0,1-.44-.06l-10.3-3a1.58,1.58,0,0,1-.28-2.92s8-4.14,10.41-5.42a1.58,1.58,0,1,1,1.49,2.79c-1.35.72-4.46,2.34-6.94,3.62l6.51,1.9a1.58,1.58,0,0,1-.44,3.1Z"/><path class="cls-2" d="M20.78,54.23a1.58,1.58,0,0,1-.44-3.1l6.51-1.9c-2.48-1.29-5.59-2.91-6.94-3.62a1.58,1.58,0,1,1,1.49-2.79c2.4,1.28,10.41,5.42,10.41,5.42a1.58,1.58,0,0,1-.28,2.92l-10.3,3A1.51,1.51,0,0,1,20.78,54.23Z"/><path class="cls-2" d="M81.24,37.38l-.24,0a18.14,18.14,0,0,1-12-7.88,1.58,1.58,0,1,1,2.7-1.64,15.2,15.2,0,0,0,9.79,6.4,1.58,1.58,0,0,1-.24,3.15Z"/><path class="cls-2" d="M18.45,37.38a1.58,1.58,0,0,1-.24-3.15A15,15,0,0,0,28,27.84a1.58,1.58,0,0,1,2.7,1.64,18.14,18.14,0,0,1-12,7.88Z"/></g></g></svg>