<svg xmlns="http://www.w3.org/2000/svg" viewBox="0 0 97 97"><defs><style>.cls-1{fill:#c6c6c6;}.cls-2{fill:#343434;}</style></defs><title>Asset 8</title><g id="Layer_2" data-name="Layer 2"><g id="guides"><circle class="cls-1" cx="48.5" cy="48.5" r="48.5"/><ellipse class="cls-2" cx="27.79" cy="39.61" rx="4.98" ry="5.95"/><path class="cls-2" d="M72.53,45.61a1.58,1.58,0,0,1-1.07-.42c-3.25-3-8-.65-8.09-.62a1.58,1.58,0,0,1-2-2.27,12.69,12.69,0,0,1,11.39-5.69,1.58,1.58,0,1,1-.22,3.15,9.33,9.33,0,0,0-4.32.77,8.8,8.8,0,0,1,5.42,2.33,1.58,1.58,0,0,1-1.07,2.74Z"/><path class="cls-2" d="M51.84,80.05a23.8,23.8,0,0,1-14.58-5,2.37,2.37,0,0,1,2.91-3.75A19,19,0,0,0,70.85,55.7a2.37,2.37,0,0,1,4.74-.14A23.8,23.8,0,0,1,52.56,80Z"/></g></g></svg>