<svg xmlns="http://www.w3.org/2000/svg" viewBox="0 0 97 97"><defs><style>.cls-1{fill:#c6c6c6;}.cls-2{fill:#343434;}.cls-3{fill:#fff;}</style></defs><title>Asset 4</title><g id="Layer_2" data-name="Layer 2"><g id="guides"><circle class="cls-1" cx="48.5" cy="48.5" r="48.5"/><path class="cls-2" d="M80.56,42.25a.76.76,0,0,0,1.16-.63h0a6.41,6.41,0,1,0-12.81,0h0a.76.76,0,0,0,1.17.63,10,10,0,0,1,10.48,0Z"/><path class="cls-2" d="M26.92,42.25a.76.76,0,0,0,1.17-.63h0a6.41,6.41,0,0,0-12.82,0h0a.76.76,0,0,0,1.17.63,10,10,0,0,1,10.48,0Z"/><path class="cls-2" d="M23.7,55.85a2.88,2.88,0,0,0-1.83,3.73c3.61,9.14,14.2,16.84,26.63,16.84s23-7.7,26.63-16.84a2.88,2.88,0,0,0-1.83-3.73C58.32,50.78,38.68,50.78,23.7,55.85Z"/><path class="cls-3" d="M35.16,73.3a30,30,0,0,0,26.68,0,22.28,22.28,0,0,0-26.68,0Z"/></g></g></svg>