<svg xmlns="http://www.w3.org/2000/svg" viewBox="0 0 97 97"><defs><style>.cls-1{fill:#c6c6c6;}.cls-2{fill:#343434;}</style></defs><title>Asset 5</title><g id="Layer_2" data-name="Layer 2"><g id="guides"><circle class="cls-1" cx="48.5" cy="48.5" r="48.5"/><path class="cls-2" d="M76.61,42.25a.76.76,0,0,0,1.17-.63h0A6.41,6.41,0,1,0,65,41.6h0a.76.76,0,0,0,1.17.63,10,10,0,0,1,10.48,0Z"/><path class="cls-2" d="M30.88,42.25A.76.76,0,0,0,32,41.61h0a6.41,6.41,0,0,0-12.82,0h0a.76.76,0,0,0,1.17.63,10,10,0,0,1,10.48,0Z"/><path class="cls-2" d="M48.76,70.59a32.68,32.68,0,0,1-22-8.61A2.37,2.37,0,0,1,30,58.51a27.77,27.77,0,0,0,37.13.44,2.37,2.37,0,0,1,3.14,3.55A32.35,32.35,0,0,1,48.76,70.59Z"/></g></g></svg>