<svg xmlns="http://www.w3.org/2000/svg" xmlns:xlink="http://www.w3.org/1999/xlink" viewBox="0 0 183.5 183.35"><defs><style>.cls-1{fill:none;}.cls-2,.cls-7{opacity:0.6;}.cls-3{fill:#ba8b10;}.cls-4{fill:#f8b916;}.cls-5{clip-path:url(#clip-path);}.cls-6{fill:#0e80c3;}.cls-7{fill:#0b4d6d;}</style><clipPath id="clip-path" transform="translate(-44.49 -48.39)"><rect class="cls-1" width="267.99" height="267.99"/></clipPath></defs><title>Asset 2</title><g id="Layer_2" data-name="Layer 2"><g id="Layer_3" data-name="Layer 3"><g class="cls-2"><path class="cls-3" d="M181.77,153.29A2.42,2.42,0,0,1,181,158a2.45,2.45,0,0,1-.75-.12l-4.16-1.35a2.42,2.42,0,1,1,1.5-4.61Z" transform="translate(-44.49 -48.39)"/><path class="cls-4" d="M177.84,128.42a6,6,0,0,1-1.53,6.21l-14.54,14.17a1.22,1.22,0,0,0-.35,1.07l3.43,20a6,6,0,0,1-8.79,6.38l-18-9.45a1.2,1.2,0,0,0-1.13,0l-18,9.45a6.06,6.06,0,0,1-8.79-6.38l3.43-20a1.21,1.21,0,0,0-.35-1.07L98.73,134.63a6.06,6.06,0,0,1,3.36-10.33l20.1-2.92a1.21,1.21,0,0,0,.91-.66l9-18.21a6.06,6.06,0,0,1,10.86,0l9,18.21a1.21,1.21,0,0,0,.91.66L173,124.3A6,6,0,0,1,177.84,128.42Z" transform="translate(-44.49 -48.39)"/><path class="cls-3" d="M165.83,102.51a2.42,2.42,0,0,1,.54,3.38l-2.57,3.54a2.42,2.42,0,1,1-3.92-2.85l2.57-3.54A2.42,2.42,0,0,1,165.83,102.51Z" transform="translate(-44.49 -48.39)"/><path class="cls-3" d="M139.94,182.82v4.38a2.42,2.42,0,1,1-4.85,0v-4.38a2.42,2.42,0,1,1,4.85,0Z" transform="translate(-44.49 -48.39)"/><path class="cls-3" d="M115.16,106.57a2.42,2.42,0,0,1-3.92,2.85l-2.57-3.54a2.42,2.42,0,0,1,3.92-2.85Z" transform="translate(-44.49 -48.39)"/><path class="cls-3" d="M100.48,153.49a2.42,2.42,0,0,1-1.56,3.06l-4.16,1.35A2.45,2.45,0,0,1,94,158a2.42,2.42,0,0,1-.75-4.73l4.16-1.35A2.42,2.42,0,0,1,100.48,153.49Z" transform="translate(-44.49 -48.39)"/><g class="cls-5"><path class="cls-6" d="M220.1,125.38" transform="translate(-44.49 -48.39)"/><path class="cls-7" d="M135.17,48.4A91.73,91.73,0,0,0,49.88,171.14a3.38,3.38,0,0,0,3.19,2.25,4.37,4.37,0,0,0,1.16-.19,3.41,3.41,0,0,0,2.06-4.35A84.92,84.92,0,0,1,195.55,79.36l.52.49L185.79,80a3.41,3.41,0,0,0,0,6.83h0l18.46-.23a3.45,3.45,0,0,0,3.38-3.45l-.19-18.46a3.42,3.42,0,1,0-6.83.08L200.8,75l-.53-.49a90.74,90.74,0,0,0-65.1-26.12Zm0,0" transform="translate(-44.49 -48.39)"/><path class="cls-7" d="M76.86,200.82l-.52-.49,10.28-.11a3.41,3.41,0,1,0-.08-6.83l-18.46.22a3.45,3.45,0,0,0-3.38,3.45l.23,18.46a3.42,3.42,0,0,0,3.41,3.38h0a3.45,3.45,0,0,0,3.38-3.45l-.11-10.28.52.49A91.73,91.73,0,0,0,222.6,109a3.41,3.41,0,1,0-6.42,2.29A85,85,0,0,1,76.86,200.82Zm0,0" transform="translate(-44.49 -48.39)"/></g></g></g></g></svg>