<svg xmlns="http://www.w3.org/2000/svg" viewBox="0 0 107.68 104.28"><defs><style>.cls-1{fill:#fab718;stroke:#fab718;stroke-linecap:round;stroke-linejoin:round;}</style></defs><title>Asset 8</title><g id="Layer_2" data-name="Layer 2"><g id="guides"><path class="cls-1" d="M86.57,103.78H19.3A18.85,18.85,0,0,1,.5,85V2.76A2.26,2.26,0,0,1,2.76.5H90.19a2.26,2.26,0,0,1,2.26,2.26V87.47a2.26,2.26,0,0,1-2.26,2.26h0a2.26,2.26,0,0,1-2.26-2.26V7.29A2.26,2.26,0,0,0,85.66,5H7.29A2.26,2.26,0,0,0,5,7.29V85A14.31,14.31,0,0,0,19.3,99.25H86.79A15.9,15.9,0,0,0,102.65,83.4V5a2.26,2.26,0,0,1,2.26-2.26h0A2.26,2.26,0,0,1,107.18,5V83.4A20.64,20.64,0,0,1,86.57,103.78Z"/><path class="cls-1" d="M46.48,63.46H14.54a2.26,2.26,0,0,1-2.26-2.26V31.3A2.26,2.26,0,0,1,14.54,29h29.9A2.26,2.26,0,0,1,46.7,31.3V63.46ZM19.07,58.93H39.91a2.26,2.26,0,0,0,2.26-2.26V35.83a2.26,2.26,0,0,0-2.26-2.26H19.07a2.26,2.26,0,0,0-2.26,2.26V56.67A2.26,2.26,0,0,0,19.07,58.93Z"/><rect class="cls-1" x="57.35" y="31.3" width="20.38" height="4.53" rx="2.26" ry="2.26"/><rect class="cls-1" x="57.35" y="43.99" width="20.38" height="4.53" rx="2.26" ry="2.26"/><rect class="cls-1" x="57.35" y="56.67" width="20.38" height="4.53" rx="2.26" ry="2.26"/><rect class="cls-1" x="14.54" y="16.35" width="63.42" height="4.53" rx="2.26" ry="2.26"/><rect class="cls-1" x="14.54" y="74.34" width="63.42" height="4.53" rx="2.26" ry="2.26"/><rect class="cls-1" x="17.94" y="86.79" width="60.02" height="4.53" rx="2.26" ry="2.26"/></g></g></svg>