<svg xmlns="http://www.w3.org/2000/svg" viewBox="0 0 24.83 23.75"><defs><style>.cls-1{fill:#58595b;}</style></defs><title>Asset 28</title><g id="Layer_2" data-name="Layer 2"><g id="guides"><path class="cls-1" d="M5.57,23.75a1.35,1.35,0,0,1-1.32-1.57l1.16-6.74a.34.34,0,0,0-.1-.3L.41,10.35a1.34,1.34,0,0,1,.75-2.29l6.77-1a.35.35,0,0,0,.26-.19l3-6.14A1.33,1.33,0,0,1,12.42,0h0a1.34,1.34,0,0,1,1.21.75l3,6.14a.35.35,0,0,0,.26.19l6.77,1a1.34,1.34,0,0,1,.75,2.29l-4.9,4.78a.34.34,0,0,0-.1.3l1.16,6.74a1.34,1.34,0,0,1-2,1.42l-6.06-3.18a.34.34,0,0,0-.32,0L6.2,23.59A1.35,1.35,0,0,1,5.57,23.75ZM12.42,1a.34.34,0,0,0-.31.19l-3,6.14a1.34,1.34,0,0,1-1,.74L1.3,9a.34.34,0,0,0-.19.59L6,14.41a1.34,1.34,0,0,1,.39,1.19L5.23,22.34a.34.34,0,0,0,.5.36l6.06-3.18a1.35,1.35,0,0,1,1.25,0l6.06,3.18a.34.34,0,0,0,.5-.36L18.44,15.6a1.34,1.34,0,0,1,.39-1.19l4.9-4.78A.34.34,0,0,0,23.54,9l-6.77-1a1.34,1.34,0,0,1-1-.74l-3-6.14A.34.34,0,0,0,12.42,1Z"/></g></g></svg>