<svg xmlns="http://www.w3.org/2000/svg" viewBox="0 0 26.5 25.36"><defs><style>.cls-1{fill:#f8b916;}</style></defs><title>Asset 31</title><g id="Layer_2" data-name="Layer 2"><g id="guides"><path class="cls-1" d="M6.07,25.36a1.64,1.64,0,0,1-1.61-1.91l1.21-7.07a.14.14,0,0,0,0-.12l-5.14-5A1.64,1.64,0,0,1,1.4,8.45l7.1-1a.14.14,0,0,0,.1-.08L11.78.91a1.64,1.64,0,0,1,2.93,0l3.18,6.44a.14.14,0,0,0,.1.08l7.1,1A1.64,1.64,0,0,1,26,11.25l-5.14,5a.14.14,0,0,0,0,.12L22,23.45a1.64,1.64,0,0,1-2.37,1.72l-6.35-3.34a.13.13,0,0,0-.13,0L6.83,25.17A1.64,1.64,0,0,1,6.07,25.36ZM13.25,1.5a.12.12,0,0,0-.12.08L10,8a1.63,1.63,0,0,1-1.23.9l-7.1,1a.13.13,0,0,0-.11.09.13.13,0,0,0,0,.14l5.14,5a1.63,1.63,0,0,1,.47,1.45L5.94,23.7a.14.14,0,0,0,.2.14l6.35-3.34a1.64,1.64,0,0,1,1.52,0l6.35,3.34a.13.13,0,0,0,.14,0,.13.13,0,0,0,.05-.13l-1.21-7.07a1.63,1.63,0,0,1,.47-1.45l5.14-5a.14.14,0,0,0-.08-.23l-7.1-1A1.63,1.63,0,0,1,16.55,8L13.37,1.58A.12.12,0,0,0,13.25,1.5Z"/></g></g></svg>