<svg xmlns="http://www.w3.org/2000/svg" viewBox="0 0 136.95 136.83"><defs><style>.cls-1{fill:#0e80c3;}.cls-2{fill:#0b4d6d;}.cls-3{fill:#027372;}.cls-4{fill:#02acab;}.cls-5{fill:#81e3e2;}.cls-6{fill:#42c8c6;}</style></defs><title>Asset 8</title><g id="Layer_2" data-name="Layer 2"><g id="Historial"><path class="cls-1" d="M131.06,57.46"/><path class="cls-2" d="M67.68,0A68.46,68.46,0,0,0,4,91.61,2.52,2.52,0,0,0,6.4,93.29a3.26,3.26,0,0,0,.87-.14A2.55,2.55,0,0,0,8.81,89.9,63.38,63.38,0,0,1,112.74,23.11l.39.36-7.67.08a2.55,2.55,0,0,0,0,5.1h0l13.78-.17a2.58,2.58,0,0,0,2.52-2.58l-.14-13.78a2.55,2.55,0,1,0-5.1.06l.08,7.67-.39-.36A67.72,67.72,0,0,0,67.68,0Z"/><path class="cls-2" d="M24.16,113.76l-.39-.36,7.67-.08a2.55,2.55,0,1,0-.06-5.1l-13.78.17A2.58,2.58,0,0,0,15.09,111l.17,13.78a2.55,2.55,0,0,0,2.55,2.52h0a2.58,2.58,0,0,0,2.52-2.58L20.27,117l.39.37A68.46,68.46,0,0,0,132.93,45.26,2.54,2.54,0,1,0,128.14,47a63.4,63.4,0,0,1-104,66.79Zm0,0"/><polygon class="cls-3" points="41.36 68.64 48.07 101.44 97.42 41.33 41.36 68.64"/><polygon class="cls-4" points="62.23 87.24 48.07 101.44 50.48 80.79 59.52 81.04 62.23 87.24"/><polygon class="cls-5" points="97.42 41.33 42.98 76.56 28.18 68.22 97.42 41.33"/><polygon class="cls-5" points="97.42 41.33 97.35 41.53 68.78 90.83 50.48 80.79 97.42 41.33"/><polygon class="cls-6" points="68.78 90.83 97.35 41.53 77.88 95.83 68.78 90.83"/></g></g></svg>