<svg xmlns="http://www.w3.org/2000/svg" viewBox="0 0 60 60"><defs><style>.cls-1{fill:#ffbf87;}.cls-2{fill:#d8625e;}.cls-3{fill:#556080;}.cls-4{fill:#c6a381;}</style></defs><title>Asset 11</title><g id="Layer_2" data-name="Layer 2"><g id="Contacto"><rect class="cls-1" x="1.3" y="1.3" width="57.39" height="57.39"/><rect class="cls-2" x="43.17" y="1.3" width="7.83" height="10.43"/><path class="cls-3" d="M58.7,0H1.3A1.3,1.3,0,0,0,0,1.3V58.7A1.3,1.3,0,0,0,1.3,60H58.7A1.3,1.3,0,0,0,60,58.7V1.3A1.3,1.3,0,0,0,58.7,0ZM49.57,2.61v7.83H44.35V2.61Zm7.83,54.78H2.61V2.61H41.74v9.13A1.3,1.3,0,0,0,43,13h7.83a1.3,1.3,0,0,0,1.3-1.3V2.61h5.22Z"/><path class="cls-4" d="M14,39.51h0l-.08-.07-.05,0-.05,0-.06,0-.05,0-.06,0-.05,0-.06,0-.06,0-.06,0h-.63l-.06,0-.06,0-.06,0-.05,0-.06,0-.05,0-.06,0-.05,0-.05,0-.08.07h0L6.9,44.73a1.3,1.3,0,0,0,1.84,1.84l3-3v9.89a1.3,1.3,0,1,0,2.61,0V43.58l3,3a1.3,1.3,0,1,0,1.84-1.84Z"/><path class="cls-4" d="M40.43,39.13a1.3,1.3,0,1,0,0,2.61h13a1.3,1.3,0,1,0,0-2.61Z"/><path class="cls-4" d="M53.48,44.35H48.26a1.3,1.3,0,1,0,0,2.61h5.22a1.3,1.3,0,1,0,0-2.61Z"/><path class="cls-4" d="M45.27,46.57a1.3,1.3,0,1,0-.92.38A1.31,1.31,0,0,0,45.27,46.57Z"/><path class="cls-4" d="M35.22,47h5.22a1.3,1.3,0,0,0,0-2.61H35.22a1.3,1.3,0,0,0,0,2.61Z"/><path class="cls-4" d="M53.48,49.57H35.22a1.3,1.3,0,0,0,0,2.61H53.48a1.3,1.3,0,1,0,0-2.61Z"/></g></g></svg>