<svg xmlns="http://www.w3.org/2000/svg" viewBox="0 0 31.83 31.84"><defs><style>.cls-1{fill:#d81c24;}</style></defs><title>Asset 2</title><g id="Layer_2" data-name="Layer 2"><g id="guides"><path class="cls-1" d="M16,17.31c2.53,0,4.59-2.51,4.59-5.59S18.58,6.14,16,6.14a4.21,4.21,0,0,0-3.29,1.69,6.24,6.24,0,0,0-1.3,3.9C11.46,14.81,13.52,17.31,16,17.31Zm0-9.95c1.86,0,3.37,2,3.37,4.36S17.91,16.09,16,16.09s-3.37-2-3.37-4.36S14.19,7.37,16,7.37Zm3.86,9.34a.61.61,0,1,0,0,1.22,3.8,3.8,0,0,1,3.8,3.8.49.49,0,0,1-.49.49H8.89a.49.49,0,0,1-.49-.49,3.8,3.8,0,0,1,3.79-3.8.61.61,0,0,0,0-1.22,5,5,0,0,0-5,5,1.72,1.72,0,0,0,1.71,1.71H23.21a1.72,1.72,0,0,0,1.71-1.71A5,5,0,0,0,19.91,16.7Z"/><path class="cls-1" d="M15.92,31.84A15.92,15.92,0,1,1,31.83,15.92,15.94,15.94,0,0,1,15.92,31.84Zm0-30.61A14.69,14.69,0,1,0,30.61,15.92,14.71,14.71,0,0,0,15.92,1.22Z"/></g></g></svg>