<svg xmlns="http://www.w3.org/2000/svg" xmlns:xlink="http://www.w3.org/1999/xlink" viewBox="0 0 136.95 136.83"><defs><style>.cls-1{fill:none;}.cls-2,.cls-5{opacity:0.6;}.cls-3{clip-path:url(#clip-path);}.cls-4{fill:#0e80c3;}.cls-5{fill:#0b4d6d;}.cls-6{fill:#d8625e;}</style><clipPath id="clip-path" transform="translate(-33.2 -36.12)"><rect class="cls-1" width="200" height="200"/></clipPath></defs><title>Asset 6</title><g id="Layer_2" data-name="Layer 2"><g id="Historial"><g class="cls-2"><g class="cls-3"><path class="cls-4" d="M164.27,93.57" transform="translate(-33.2 -36.12)"/><path class="cls-5" d="M100.88,36.12a68.46,68.46,0,0,0-63.65,91.6,2.52,2.52,0,0,0,2.38,1.68,3.26,3.26,0,0,0,.87-.14A2.55,2.55,0,0,0,42,126,63.38,63.38,0,0,1,145.94,59.22l.39.36-7.67.08a2.55,2.55,0,0,0,0,5.1h0l13.78-.17A2.58,2.58,0,0,0,155,62l-.14-13.78a2.55,2.55,0,1,0-5.1.06l.08,7.67-.39-.36a67.72,67.72,0,0,0-48.59-19.49Zm0,0" transform="translate(-33.2 -36.12)"/><path class="cls-5" d="M57.36,149.87l-.39-.36,7.67-.08a2.55,2.55,0,1,0-.06-5.1l-13.78.17a2.58,2.58,0,0,0-2.52,2.58l.17,13.78A2.55,2.55,0,0,0,51,163.37h0a2.58,2.58,0,0,0,2.52-2.58l-.08-7.67.39.37A68.46,68.46,0,0,0,166.13,81.38a2.54,2.54,0,1,0-4.79,1.71,63.4,63.4,0,0,1-104,66.79Zm0,0" transform="translate(-33.2 -36.12)"/><path class="cls-6" d="M121.68,88.66l-16-13.13a9.31,9.31,0,0,0-5.34-1.9H82a4,4,0,0,0-4.07,4c0,.53,0,52.91,0,53.19a3.25,3.25,0,0,0,3.4,3.4l38.8,0a3.94,3.94,0,0,0,3.9-4.05V93.92A7.34,7.34,0,0,0,121.68,88.66ZM100.39,73.8h0Zm11.09,40.81a1.2,1.2,0,0,1-1.12.6h-5.45v6a1.55,1.55,0,0,1-1.5,1.57H98.73a1.5,1.5,0,0,1-1.45-1.57v-6H91.78a1.14,1.14,0,0,1-1-1.86L100,100.24a1.29,1.29,0,0,1,2.17,0l9.19,13.11A1.2,1.2,0,0,1,111.48,114.62ZM105.42,93h0Zm2.78-3.74a2.66,2.66,0,0,1-2.78-2.79V75.31l16.51,13.57Z" transform="translate(-33.2 -36.12)"/></g></g></g></g></svg>