<svg xmlns="http://www.w3.org/2000/svg" viewBox="0 0 70.14 64.8"><defs><style>.cls-1{fill:#dedede;}.cls-2{fill:#ffbf87;}.cls-3{fill:#d8625e;}.cls-4{fill:#475762;}.cls-5{fill:#556080;}.cls-6{fill:#e64c3c;}</style></defs><title>Asset 10</title><g id="Layer_2" data-name="Layer 2"><g id="Contacto"><path class="cls-1" d="M38.68,47.35a8.84,8.84,0,0,1,3.55,8.28L68.66,50l-1.84-8.65Z"/><rect class="cls-2" x="25.21" y="5.72" width="23.57" height="17.68" transform="translate(-2.22 8.04) rotate(-12.04)"/><path class="cls-2" d="M27.32,25.66l4.3,20.17a8.82,8.82,0,0,1,7.06,1.51l22.38-4.77-1.23-5.76L58,28.16l-1.84-8.65Z"/><rect class="cls-3" x="45.16" y="21.3" width="5.89" height="5.89" transform="translate(-4 10.57) rotate(-12.04)"/><circle class="cls-4" cx="33.46" cy="54.48" r="8.84" transform="translate(-10.63 8.18) rotate(-12.04)"/><path class="cls-5" d="M66.51,39.9l-4.32.92-.92-4.32a1.47,1.47,0,0,0-2.88.61l.92,4.32L39,45.77a10.29,10.29,0,0,0-1.21-.66h0l-.42-.18-.07,0-.36-.14-.1,0-.37-.12-.29-.08L36,44.48l-.3-.07-.12,0-.32-.06h-.08a10.23,10.23,0,0,0-1.51-.14h-.87L29.07,26.8l14.41-3.07L44.4,28a1.47,1.47,0,0,0,1.75,1.13L51.91,28A1.47,1.47,0,0,0,53,26.2l-.92-4.32L55,21.26l1.54,7.2a1.47,1.47,0,0,0,2.88-.61l-1.84-8.65a1.47,1.47,0,0,0-1.75-1.13L51.51,19,48.13,3.15A1.47,1.47,0,0,0,46.38,2L24.76,6.62,23.84,2.3a1.47,1.47,0,0,0-1.75-1.13L14.89,2.7l-.31-1.44A1.47,1.47,0,0,0,12.83.13L1.3,2.59A1.47,1.47,0,0,0,.17,4.34L1.4,10.1a1.47,1.47,0,0,0,1.75,1.13L14.68,8.77A1.47,1.47,0,0,0,15.81,7L15.5,5.59l5.76-1.23.92,4.32L25.88,26l4,18.84A10.31,10.31,0,1,0,43.5,56.86L69,51.43a1.47,1.47,0,0,0,1.13-1.75L68.26,41A1.47,1.47,0,0,0,66.51,39.9Zm-52.73-33L3.35,9.41,2.18,4.23,12.87,2ZM49.85,25.38,47,26l-.61-2.88,2.88-.61ZM45.55,5.2l3.07,14.41-4.32.92L28.45,23.92l-1.84-8.65,7.2-1.54a1.47,1.47,0,0,0-.61-2.88L26,12.39l-.61-2.88ZM35,61.69a7.37,7.37,0,0,1-3.07-14.41l.38-.07h0l.35,0h0a7.36,7.36,0,0,1,1.92.05h0l.35.07h0l.31.07.08,0,.26.08.12,0,.21.08.16.06.16.06.2.09.09,0A7.41,7.41,0,0,1,39.29,50l0,.05.16.22.07.11.12.18.09.14.09.15.09.16.08.14.08.17.07.14.08.18.06.15.07.17.06.17.05.16.06.21,0,.13c0,.11.06.23.08.35s0,.23.06.34l0,.11c0,.08,0,.15,0,.23v.14q0,.11,0,.21v.14c0,.07,0,.14,0,.21s0,.09,0,.14,0,.15,0,.23,0,.07,0,.11,0,.22,0,.33v.11A7.38,7.38,0,0,1,35,61.69ZM66.91,48.85,43.76,53.79c0-.13,0-.26,0-.4v-.1q0-.19,0-.37l0-.13c0-.15-.05-.31-.09-.46s-.08-.36-.13-.54l0-.14c0-.13-.08-.26-.12-.39l-.06-.16-.13-.36L43,50.57l-.15-.35-.08-.16-.16-.33-.09-.17-.17-.3-.11-.18-.17-.27L42,48.62l-.16-.22-.13-.18L61.36,44l4.32-.92Z"/><path class="cls-5" d="M58.6,31a1.47,1.47,0,1,0,1.11.2A1.48,1.48,0,0,0,58.6,31Z"/><path class="cls-5" d="M38.13,12.81a1.47,1.47,0,1,0-1.11-.2A1.48,1.48,0,0,0,38.13,12.81Z"/><path class="cls-6" d="M1.66,2.2,12.55,0A2.06,2.06,0,0,1,15,1.63l1,4.9A2.06,2.06,0,0,1,14.45,9L3.61,11.4A2.06,2.06,0,0,1,1.15,9.81L0,4.66A2.06,2.06,0,0,1,1.66,2.2Z"/></g></g></svg>