<svg xmlns="http://www.w3.org/2000/svg" viewBox="0 0 374.17 343.75"><defs><style>.cls-1,.cls-6{fill:#d91c24;}.cls-1{opacity:0.08;}.cls-2{fill:#f9de58;}.cls-3{fill:#d6b71d;}.cls-4{fill:#77bc4a;}.cls-5{fill:#86d359;}.cls-7{fill:#4d4d4d;}.cls-8{fill:gray;}.cls-9{fill:#fff;}.cls-10{fill:#e86e4d;}.cls-11{fill:#6ec6eb;}.cls-12{fill:#e8777c;}.cls-13{fill:#868686;}.cls-14{fill:#fc7a51;}.cls-15{fill:none;stroke:#ea2448;stroke-miterlimit:10;stroke-width:6.32px;}.cls-16{fill:#b71932;}.cls-17{fill:#00122f;}.cls-18{fill:#b8b8b8;}.cls-19{fill:#ed3c26;}.cls-20{fill:#334159;}</style></defs><title>Asset 4</title><g id="Layer_2" data-name="Layer 2"><g id="Layer_3" data-name="Layer 3"><rect class="cls-1" x="140.07" y="47.27" width="63.75" height="258.46" rx="29.55" ry="29.55" transform="translate(175.17 -69.88) rotate(45)"/><rect class="cls-1" x="58.09" y="53.02" width="59.63" height="221.39" rx="27.64" ry="27.64" transform="translate(141.51 -14.21) rotate(45)"/><rect class="cls-1" x="259.18" y="140.4" width="55.51" height="221.39" rx="25.73" ry="25.73" transform="translate(261.59 -129.35) rotate(45)"/><rect class="cls-1" x="158.85" y="145.14" width="59.63" height="221.39" rx="27.64" ry="27.64" transform="translate(236.16 -58.47) rotate(45)"/><rect class="cls-1" x="60.97" y="-11.9" width="62.62" height="150.34" rx="29.03" ry="29.03" transform="translate(71.77 -46.72) rotate(45)"/><path class="cls-2" d="M155.21,274a24.33,24.33,0,1,1-24.33-24.33A24.33,24.33,0,0,1,155.21,274Zm0,0"/><path class="cls-3" d="M146.66,274a15.78,15.78,0,1,1-15.78-15.78A15.78,15.78,0,0,1,146.66,274Zm0,0"/><path class="cls-2" d="M184.94,274a24.33,24.33,0,1,1-24.33-24.33A24.33,24.33,0,0,1,184.94,274Zm0,0"/><path class="cls-3" d="M176.39,274a15.78,15.78,0,1,1-15.78-15.78A15.78,15.78,0,0,1,176.39,274Zm0,0"/><path class="cls-2" d="M194.11,173.93H70.57V186h-2.3a10.93,10.93,0,0,1,0-21.86H182.64a11.62,11.62,0,0,1,11.47,9.78"/><path class="cls-4" d="M214.47,170.21H74.29v12.08H187.47a11.61,11.61,0,0,1,11.62,11.62V265c0,.19,0,.38,0,.56h52.34V170.21H214.47"/><path class="cls-4" d="M218.19,166.49H78v12.08H191.19a11.62,11.62,0,0,1,11.62,11.62v71.09c0,.19,0,.37,0,.56h52.34V166.49H218.19"/><path class="cls-5" d="M210.76,173.93H70.57V186H183.75a11.62,11.62,0,0,1,11.62,11.62V268.7c0,.19,0,.37,0,.56H247.7V173.93H210.76"/><path class="cls-4" d="M236,201.69V241.5a30.17,30.17,0,0,0-16.11,16.11H195.37v-60A11.62,11.62,0,0,0,183.76,186h36.35A30.15,30.15,0,0,0,236,201.69"/><path class="cls-6" d="M291.64,144.21v70.16a8.2,8.2,0,0,1-8.2,8.2H158a8.19,8.19,0,0,1-8.2-8.2V144.21A8.19,8.19,0,0,1,158,136H283.45a8.2,8.2,0,0,1,8.2,8.2"/><rect class="cls-7" x="149.78" y="154.43" width="141.87" height="21.16"/><path class="cls-8" d="M100.56,20.77h78.2a10,10,0,0,1,10,10V190a10,10,0,0,1-10,10h-78.2a10,10,0,0,1-10-10V30.74a10,10,0,0,1,10-10"/><rect class="cls-9" x="95.23" y="44.42" width="88.86" height="128.7"/><path class="cls-7" d="M147.35,187.17a7.69,7.69,0,1,1-7.69-7.69,7.69,7.69,0,0,1,7.69,7.69Zm0,0"/><path class="cls-2" d="M214.67,274a24.33,24.33,0,1,1-24.33-24.33A24.33,24.33,0,0,1,214.67,274Zm0,0"/><path class="cls-3" d="M206.12,274a15.78,15.78,0,1,1-15.78-15.78A15.78,15.78,0,0,1,206.12,274Zm0,0"/><path class="cls-10" d="M69,186v94.32A11.62,11.62,0,0,1,57.34,268.7V175.07A10.93,10.93,0,0,0,68.27,186Zm0,0"/><path class="cls-11" d="M178.55,199.92h0M188.72,136v0"/><path class="cls-12" d="M291.64,175.59H230.33l14.32,47h38.8a8.2,8.2,0,0,0,8.2-8.2V175.59M283.45,136H218.27l5.61,18.41h67.76V144.21a8.2,8.2,0,0,0-8.2-8.2"/><polyline class="cls-13" points="291.64 154.43 223.88 154.43 230.33 175.59 291.64 175.59 291.64 154.43"/><path class="cls-14" d="M195.37,197.62V268.7c0,.2,0,.38,0,.56a11.61,11.61,0,0,1-11.6,11.06H69A11.62,11.62,0,0,1,57.34,268.7V175.07A10.93,10.93,0,0,0,68.27,186H183.75a11.62,11.62,0,0,1,11.62,11.62Zm0,0"/><rect class="cls-4" x="195.57" y="222.37" width="52.12" height="6.31"/><path class="cls-2" d="M182.51,233.16A9.46,9.46,0,1,1,173,223.7a9.46,9.46,0,0,1,9.46,9.46Zm0,0"/><path class="cls-10" d="M69,186v94.32A11.62,11.62,0,0,1,57.34,268.7V175.07A10.93,10.93,0,0,0,68.27,186Zm0,0"/><path class="cls-15" d="M155.83,128.62"/><path class="cls-16" d="M154.42,129.51a1.11,1.11,0,0,0,1.1-1c0-.14,0-.29,0-.43a6.14,6.14,0,0,0-12.28,0,1.1,1.1,0,0,0,2.21,0,3.93,3.93,0,0,1,7.86,0c0,.09,0,.19,0,.28a1.11,1.11,0,0,0,1,1.18Z"/><path class="cls-17" d="M145.5,128.05a3.9,3.9,0,1,1,3.9,3.9A3.9,3.9,0,0,1,145.5,128.05Zm2.65,0a1.24,1.24,0,1,0,1.24-1.24A1.24,1.24,0,0,0,148.15,128.05Z"/><path class="cls-16" d="M130.77,129.51a1.11,1.11,0,0,0,1.1-1c0-.14,0-.29,0-.43a6.14,6.14,0,0,0-12.28,0,1.1,1.1,0,0,0,2.21,0,3.93,3.93,0,0,1,7.86,0c0,.09,0,.19,0,.28a1.11,1.11,0,0,0,1,1.18Z"/><path class="cls-17" d="M121.85,128.05a3.9,3.9,0,1,1,3.9,3.9A3.9,3.9,0,0,1,121.85,128.05Zm2.65,0a1.24,1.24,0,1,0,1.24-1.24A1.24,1.24,0,0,0,124.5,128.05Z"/><path class="cls-8" d="M112.11,109.34a1.73,1.73,0,0,0,.94.27h15.74a.94.94,0,0,0,1-.88.92.92,0,0,0-1-.93h-7.63l-1.64-7.67h6.77a.94.94,0,0,0,1-.88.92.92,0,0,0-1-.93h-7.18l-1.71-8.12h6.59a.94.94,0,0,0,1-.88.92.92,0,0,0-1-.93H108.21s0,.05-.06.06l-.12.06-.08.05-.09.05-.08.07-.07.06-.06.07-.06.08,0,.08,0,.09a1,1,0,0,0,0,.1l0,.08s0,.4,0,.4l2.16,9.77,1.38,8.27a2.3,2.3,0,0,0,1,1.56ZM117,98.57h-5.65l-1.71-8h5.65Zm2.07,9.44h-5.65l-1.64-7.69h5.65Z"/><path class="cls-8" d="M124.65,119.43l11,0a1.1,1.1,0,0,1,1,1.11,1.08,1.08,0,0,1-1,1.09h0l-11-.14c-.3,0-1.21,0-1.59.33-.06.06-.26.22-.26.82a1.77,1.77,0,0,0,.45,1.33,2.85,2.85,0,0,0,1.31.64s0,.15,0,.15h9.94a.88.88,0,1,1,0,1.75h-10a4.13,4.13,0,0,1-2.69-1.09,3.77,3.77,0,0,1-1.06-2.8,3.09,3.09,0,0,1,.85-2.28A4.14,4.14,0,0,1,124.65,119.43Z"/><path class="cls-18" d="M122.94,89.71,127.8,109a1,1,0,0,0,1,.79h16.75l4,6.59,0,0a2.39,2.39,0,0,1,.54,1.95,2.76,2.76,0,0,1-1.95,1.23H137.65c-.57,0-3.77-.35-5.34,1.07a2.57,2.57,0,0,0-.89,2,4.15,4.15,0,0,0,2.22,3.58,7.43,7.43,0,0,0,2,.86,1.08,1.08,0,0,0,.23.06,1,1,0,0,0,.9-.55h19.79a.88.88,0,1,0,0-1.75H134.72c-.66,0-1.3-1.18-1.3-2.08a.83.83,0,0,1,.24-.62c.76-.69,2.93-.63,3.86-.54,0,0,.07.1.1.1h21c.29,0,2.87-.18,4-1.94a4.1,4.1,0,0,0-.16-4s0-.07,0-.09l-4-6.8,6.06-23.85h5.41c.55,0,1-.85,1-1.4s-.45-1.4-1-1.4h-6.19a1.16,1.16,0,0,0-1,.92l-1.31,5.38H123.91a1,1,0,0,0-.78.4A1,1,0,0,0,122.94,89.71ZM137.63,108v-7.69h10.49V108Zm12.59,0v-7.69h8.22L156.56,108Zm-12.59-9.44v-8h10.49v8Zm23.27-8-2,8h-8.72v-8Zm-13.07,19.24h8.93l3.87,6.78a2.47,2.47,0,0,1,.25,2.08c-.44.71-1.84.93-2.29.93h-6.9c.07,0,.14-.32.2-.46a3.86,3.86,0,0,0-.71-3.76Zm-20.17-9.44h7.53V108h-5.65Zm-2.47-9.79h10v8h-8Z"/><path class="cls-19" d="M165.86,129.51a1.11,1.11,0,0,0,1.1-1c0-.14,0-.29,0-.43a6.14,6.14,0,0,0-12.28,0,1.1,1.1,0,0,0,2.21,0,3.93,3.93,0,0,1,7.86,0c0,.09,0,.19,0,.28a1.11,1.11,0,0,0,1,1.18Z"/><path class="cls-20" d="M156.94,128.05a3.9,3.9,0,1,1,3.9,3.9A3.9,3.9,0,0,1,156.94,128.05Zm2.65,0a1.24,1.24,0,1,0,1.24-1.24A1.24,1.24,0,0,0,159.59,128.05Z"/><path class="cls-19" d="M142.48,129.51a1.11,1.11,0,0,0,1.1-1c0-.14,0-.29,0-.43a6.14,6.14,0,0,0-12.28,0,1.1,1.1,0,0,0,2.21,0,3.93,3.93,0,0,1,7.86,0c0,.09,0,.19,0,.28a1.11,1.11,0,0,0,1,1.18Z"/><path class="cls-20" d="M133.56,128.05a3.9,3.9,0,1,1,3.9,3.9A3.9,3.9,0,0,1,133.56,128.05Zm2.65,0a1.24,1.24,0,1,0,1.24-1.24A1.24,1.24,0,0,0,136.21,128.05Z"/><rect class="cls-19" x="166.83" y="81.81" width="7.82" height="3.32" rx="1.66" ry="1.66" transform="translate(341.47 166.93) rotate(-180)"/></g></g></svg>