<svg xmlns="http://www.w3.org/2000/svg" viewBox="0 0 71.11 59.06"><defs><style>.cls-1{fill:#fff;}.cls-2{fill:#556080;}.cls-3{fill:#d8625e;}.cls-4{fill:#e64c3c;}</style></defs><title>Asset 9</title><g id="Layer_2" data-name="Layer 2"><g id="Contacto"><path class="cls-1" d="M32.55,51.83a6,6,0,1,1-6-6,6,6,0,0,1,6,6Zm0,0"/><path class="cls-2" d="M26.52,59.06a7.23,7.23,0,1,1,7.23-7.23,7.24,7.24,0,0,1-7.23,7.23Zm0-12.05a4.82,4.82,0,1,0,4.82,4.82A4.83,4.83,0,0,0,26.52,47Zm0,0"/><path class="cls-1" d="M60.27,51.83a6,6,0,1,1-6-6,6,6,0,0,1,6,6Zm0,0"/><path class="cls-2" d="M54.24,59.06a7.23,7.23,0,1,1,7.23-7.23,7.24,7.24,0,0,1-7.23,7.23Zm0-12.05a4.82,4.82,0,1,0,4.82,4.82A4.83,4.83,0,0,0,54.24,47Zm0,0"/><path class="cls-2" d="M66.29,51.83H60.14a1.2,1.2,0,0,1,0-2.41h6.15a1.2,1.2,0,1,1,0,2.41Zm0,0"/><path class="cls-2" d="M48.34,51.83H32.42a1.2,1.2,0,1,1,0-2.41H48.33a1.2,1.2,0,1,1,0,2.41Zm0,0"/><path class="cls-3" d="M18.08,41,11.85,9.64H69.91V36.17A4.8,4.8,0,0,1,65.11,41h-47"/><path class="cls-2" d="M65.11,42.19h-48L10.38,8.44H71.11V36.18a6,6,0,0,1-6,6Zm-46-2.41h46a3.6,3.6,0,0,0,3.6-3.59V10.85H13.32Zm0,0"/><path class="cls-2" d="M11.85,10.85a1.2,1.2,0,0,1-1.19-1l-.84-5H7.23a1.2,1.2,0,1,1,0-2.41h4.64l1.17,7a1.2,1.2,0,0,1-1,1.38l-.2,0Zm0,0"/><path class="cls-4" d="M7.23,3.61A3.62,3.62,0,1,1,3.61,0,3.62,3.62,0,0,1,7.23,3.61Zm0,0"/><path class="cls-2" d="M20.61,51.83H16.87a6,6,0,0,1-6-6.64,6.22,6.22,0,0,1,6.23-5.42,1.21,1.21,0,0,1,0,2.41,3.78,3.78,0,0,0-3.83,3.24,3.57,3.57,0,0,0,.92,2.79,3.61,3.61,0,0,0,2.68,1.2h3.74a1.2,1.2,0,1,1,0,2.41Zm0,0"/></g></g></svg>