<svg xmlns="http://www.w3.org/2000/svg" xmlns:xlink="http://www.w3.org/1999/xlink" viewBox="0 0 131.02 130.91"><defs><style>.cls-1{fill:none;}.cls-2{clip-path:url(#clip-path);}.cls-3{fill:#0e80c2;}.cls-4{fill:#0b4d6d;}.cls-5{fill:#e44728;}.cls-6{fill:#f85428;}.cls-7{fill:#f6b139;}.cls-8{fill:#2196d7;}.cls-9{fill:#2ba4f6;}.cls-10{fill:#6ec6f8;}</style><clipPath id="clip-path" transform="translate(-31.76 -34.55)"><rect class="cls-1" width="191.34" height="191.34"/></clipPath></defs><title>Asset 3</title><g id="Layer_2" data-name="Layer 2"><g id="guides"><g class="cls-2"><path class="cls-3" d="M157.15,89.52" transform="translate(-31.76 -34.55)"/><path class="cls-4" d="M96.51,34.56a65.49,65.49,0,0,0-60.9,87.64,2.41,2.41,0,0,0,2.28,1.61,3.12,3.12,0,0,0,.83-.13,2.44,2.44,0,0,0,1.47-3.11,60.64,60.64,0,0,1,99.43-63.9L140,57l-7.34.08a2.44,2.44,0,0,0,0,4.88h0l13.18-.16a2.46,2.46,0,0,0,2.41-2.46l-.13-13.18a2.44,2.44,0,1,0-4.88.05l.08,7.34L143,53.2A64.79,64.79,0,0,0,96.51,34.56Zm0,0" transform="translate(-31.76 -34.55)"/><path class="cls-4" d="M54.88,143.39,54.5,143l7.34-.08a2.44,2.44,0,1,0-.05-4.88l-13.18.16a2.47,2.47,0,0,0-2.41,2.47l.16,13.18a2.44,2.44,0,0,0,2.44,2.41h0a2.46,2.46,0,0,0,2.41-2.46l-.08-7.34.37.35a65.49,65.49,0,0,0,107.41-69,2.43,2.43,0,1,0-4.58,1.63,60.66,60.66,0,0,1-99.48,63.9Zm0,0" transform="translate(-31.76 -34.55)"/><rect class="cls-5" x="56.93" y="45.8" width="2.15" height="4.84"/><rect class="cls-5" x="62.05" y="45.8" width="2.15" height="4.84"/><rect class="cls-5" x="67.17" y="45.8" width="2.15" height="4.84"/><rect class="cls-5" x="72.29" y="45.8" width="2.15" height="4.84"/><rect class="cls-5" x="77.4" y="45.8" width="2.15" height="4.84"/><rect class="cls-5" x="82.52" y="45.8" width="2.15" height="4.84"/><rect class="cls-5" x="87.64" y="45.8" width="2.15" height="4.84"/><rect class="cls-5" x="92.76" y="45.8" width="2.15" height="4.84"/><rect class="cls-5" x="56.93" y="93.82" width="2.15" height="4.84"/><rect class="cls-5" x="62.05" y="93.82" width="2.15" height="4.84"/><rect class="cls-5" x="67.17" y="93.82" width="2.15" height="4.84"/><rect class="cls-5" x="72.29" y="93.82" width="2.15" height="4.84"/><rect class="cls-5" x="77.4" y="93.82" width="2.15" height="4.84"/><rect class="cls-5" x="82.52" y="93.82" width="2.15" height="4.84"/><rect class="cls-5" x="87.64" y="93.82" width="2.15" height="4.84"/><rect class="cls-5" x="92.76" y="93.82" width="2.15" height="4.84"/><polyline class="cls-6" points="84.06 49.48 89.48 49.48 94.91 49.48 94.91 94.99 89.48 94.99 84.06 94.99 78.63 94.99 73.21 94.99 67.78 94.99 62.36 94.99 56.93 94.99 56.93 88.79"/><rect class="cls-5" x="56.93" y="81.99" width="37.97" height="6.61"/><rect class="cls-5" x="56.93" y="68.77" width="37.97" height="6.61"/><rect class="cls-5" x="56.93" y="55.55" width="37.97" height="6.61"/><rect class="cls-7" x="46.08" y="39.42" width="2.15" height="4.84"/><rect class="cls-7" x="51.2" y="39.42" width="2.15" height="4.84"/><rect class="cls-7" x="56.32" y="39.42" width="2.15" height="4.84"/><rect class="cls-7" x="61.44" y="39.42" width="2.15" height="4.84"/><rect class="cls-7" x="66.55" y="39.42" width="2.15" height="4.84"/><rect class="cls-7" x="71.67" y="39.42" width="2.15" height="4.84"/><rect class="cls-7" x="76.79" y="39.42" width="2.15" height="4.84"/><rect class="cls-7" x="81.91" y="39.42" width="2.15" height="4.84"/><rect class="cls-7" x="46.08" y="87.43" width="2.15" height="4.84"/><rect class="cls-7" x="51.2" y="87.43" width="2.15" height="4.84"/><rect class="cls-7" x="56.32" y="87.43" width="2.15" height="4.84"/><rect class="cls-7" x="61.44" y="87.43" width="2.15" height="4.84"/><rect class="cls-7" x="66.55" y="87.43" width="2.15" height="4.84"/><rect class="cls-7" x="71.67" y="87.43" width="2.15" height="4.84"/><rect class="cls-7" x="76.79" y="87.43" width="2.15" height="4.84"/><rect class="cls-7" x="81.91" y="87.43" width="2.15" height="4.84"/><polygon class="cls-7" points="73.21 43.09 78.63 43.09 84.06 43.09 84.06 88.6 78.63 88.6 73.21 88.6 67.78 88.6 62.36 88.6 56.93 88.6 51.51 88.6 46.09 88.6 46.09 82.41 73.21 43.09"/><rect class="cls-8" x="35.23" y="33.22" width="2.15" height="4.84"/><rect class="cls-8" x="40.35" y="33.22" width="2.15" height="4.84"/><rect class="cls-8" x="45.47" y="33.22" width="2.15" height="4.84"/><rect class="cls-8" x="50.59" y="33.22" width="2.15" height="4.84"/><rect class="cls-8" x="55.7" y="33.22" width="2.15" height="4.84"/><rect class="cls-8" x="60.82" y="33.22" width="2.15" height="4.84"/><rect class="cls-8" x="65.94" y="33.22" width="2.15" height="4.84"/><rect class="cls-8" x="71.06" y="33.22" width="2.15" height="4.84"/><rect class="cls-8" x="35.23" y="81.24" width="2.15" height="4.84"/><rect class="cls-8" x="40.35" y="81.24" width="2.15" height="4.84"/><rect class="cls-8" x="45.47" y="81.24" width="2.15" height="4.84"/><rect class="cls-8" x="50.59" y="81.24" width="2.15" height="4.84"/><rect class="cls-8" x="55.7" y="81.24" width="2.15" height="4.84"/><rect class="cls-8" x="60.82" y="81.24" width="2.15" height="4.84"/><rect class="cls-8" x="65.94" y="81.24" width="2.15" height="4.84"/><rect class="cls-8" x="71.06" y="81.24" width="2.15" height="4.84"/><rect class="cls-9" x="35.23" y="36.9" width="37.97" height="45.51"/><path class="cls-8" d="M82.88,83.51a4.27,4.27,0,1,1-4.32,5.26" transform="translate(-31.76 -34.55)"/><circle class="cls-10" cx="45.33" cy="48.61" r="5.79"/><circle class="cls-8" cx="57.72" cy="69.35" r="3.37"/><circle class="cls-10" cx="62.62" cy="47.04" r="3.37"/><circle class="cls-10" cx="57.93" cy="55.47" r="1.68"/><circle class="cls-10" cx="54.34" cy="77.25" r="1.68"/><circle class="cls-8" cx="69.84" cy="73.43" r="1.68"/><circle class="cls-8" cx="44.43" cy="42.8" r="1.68"/><path class="cls-8" d="M77.46,105.89A3.37,3.37,0,1,1,72,104.71" transform="translate(-31.76 -34.55)"/><circle class="cls-8" cx="66.21" cy="60.87" r="4.58"/><circle class="cls-10" cx="43.94" cy="66.24" r="5.39"/><path class="cls-10" d="M105,108.59V117H97.59a5.79,5.79,0,0,1,7.38-8.37Z" transform="translate(-31.76 -34.55)"/></g></g></g></svg>