<svg xmlns="http://www.w3.org/2000/svg" viewBox="0 0 374.17 343.75"><defs><style>.cls-1{fill:#cb4b57;}.cls-2{fill:#8f1622;}.cls-3{fill:#be1e2d;}.cls-4{fill:#535859;}.cls-5{fill:#3c4142;}.cls-6{fill:#b6cdd3;}.cls-7{fill:#9eb3ba;}.cls-8{fill:#9ad8ca;}.cls-9{fill:#d91c24;opacity:0.08;}.cls-10{fill:none;stroke:#ea2448;stroke-miterlimit:10;stroke-width:6.32px;}.cls-11{fill:#b71932;}.cls-12{fill:#00122f;}.cls-13{fill:gray;}.cls-14{fill:#b8b8b8;}.cls-15{fill:#ed3c26;}.cls-16{fill:#334159;}.cls-17{fill:#414042;}.cls-18{fill:#6d6e71;}.cls-19{fill:#bfe8ef;}</style></defs><title>Asset 3</title><g id="Layer_2" data-name="Layer 2"><g id="guides"><polyline class="cls-1" points="233.12 37.04 232.88 37.17 206.2 59.76 223.06 79.9 232.95 71.32 227.26 139.94 291.7 145.29 297.4 76.68 305.75 86.77 325.69 69.69 303.1 43 302.89 42.84 302.93 42.79 302.91 42.77 302.89 42.84 282.49 33.84 254.72 31.53 233.12 37.04"/><polyline class="cls-2" points="233.12 37.04 232.88 37.17 211.52 66.05 223.06 79.9 232.95 71.32 227.26 139.94 291.7 145.29 297.4 76.68 305.75 86.77 325.69 69.69 303.1 43 302.89 42.84 302.93 42.79 302.91 42.77 302.89 42.84 282.49 33.84 254.72 31.53 233.12 37.04"/><polyline class="cls-3" points="246.21 141.51 291.7 145.29 297.4 76.68 305.75 86.77 325.8 69.69 302.91 42.77 302.94 42.79 302.91 42.77 282.49 33.84 255.34 31.58"/><polyline class="cls-3" points="296.98 76.64 305.54 86.75 325.69 69.69 303.1 43 302.93 42.79 302.91 42.77 302.89 42.78"/><path class="cls-4" d="M278.86,31.63l-20.19-1.68-5.63,2c.22.49,15.16,19.38,14,19.28s16.73-16.25,17-16.69Zm0,0"/><path class="cls-5" d="M268.46,34.48a22,22,0,0,0-12.1,2.2c3.94,5.69,10,14.55,10.57,16.13.78-1.46,8.27-9.2,13.09-14.16a22,22,0,0,0-11.57-4.17Zm0,0"/><path class="cls-2" d="M258.35,43l8.39,10.08L265,40.64Zm0,0"/><path class="cls-6" d="M256.94,45.73l-6.09-13.44,6.66-3.93L265,40.64Zm0,0"/><path class="cls-7" d="M256.94,45.73l.19-12.92.39-4.45L265,40.64Zm0,0"/><path class="cls-2" d="M277,44.57l-9.93,8.56,3.74-12Zm0,0"/><path class="cls-7" d="M278,47.47l8.22-12.25-5.93-5-9.43,10.87Zm0,0"/><path class="cls-6" d="M278,47.47l1.94-12.77.35-4.45-9.43,10.87Zm0,0"/><path class="cls-6" d="M267.87,55.88a1.19,1.19,0,1,1-1.09-1.28,1.19,1.19,0,0,1,1.09,1.28Zm0,0"/><path class="cls-7" d="M265.92,54.87a1.19,1.19,0,0,1,1.53,1.81"/><path class="cls-6" d="M267.31,62.69a1.19,1.19,0,1,1-1.09-1.28,1.19,1.19,0,0,1,1.09,1.28Zm0,0"/><path class="cls-7" d="M265.35,61.69a1.19,1.19,0,0,1,1.53,1.81"/><path class="cls-8" d="M286.54,67.95"/></g><g id="Layer_3" data-name="Layer 3"><rect class="cls-9" x="170.36" y="38.02" width="63.75" height="258.46" rx="29.55" ry="29.55" transform="translate(226.97 428.51) rotate(-135)"/><rect class="cls-9" x="256.45" y="69.33" width="59.63" height="221.39" rx="27.64" ry="27.64" transform="translate(361.38 509.75) rotate(-135)"/><rect class="cls-9" x="59.49" y="-18.04" width="55.51" height="221.39" rx="25.73" ry="25.73" transform="translate(83.42 219.86) rotate(-135)"/><rect class="cls-9" x="155.7" y="-22.79" width="59.63" height="221.39" rx="27.64" ry="27.64" transform="translate(254.53 281.25) rotate(-135)"/><rect class="cls-9" x="250.58" y="205.31" width="62.62" height="150.34" rx="29.03" ry="29.03" transform="translate(282.89 678.13) rotate(-135)"/><path class="cls-10" d="M255.24,310.54"/><path class="cls-11" d="M251.19,313.09a3.16,3.16,0,0,0,3.15-2.94c0-.41,0-.82,0-1.24a17.56,17.56,0,0,0-35.12,0,3.16,3.16,0,1,0,6.32,0,11.24,11.24,0,0,1,22.48,0c0,.27,0,.53,0,.8a3.16,3.16,0,0,0,2.93,3.37Z"/><path class="cls-12" d="M225.68,308.91A11.14,11.14,0,1,1,236.82,320,11.15,11.15,0,0,1,225.68,308.91Zm7.58,0a3.56,3.56,0,1,0,3.56-3.56A3.56,3.56,0,0,0,233.27,308.91Z"/><path class="cls-11" d="M183.56,313.09a3.16,3.16,0,0,0,3.15-2.94c0-.41,0-.83,0-1.24a17.56,17.56,0,0,0-35.12,0,3.16,3.16,0,1,0,6.32,0,11.24,11.24,0,0,1,22.48,0c0,.27,0,.53,0,.8a3.16,3.16,0,0,0,2.93,3.37Z"/><path class="cls-12" d="M158.06,308.91A11.14,11.14,0,1,1,169.2,320,11.15,11.15,0,0,1,158.06,308.91Zm7.58,0a3.56,3.56,0,1,0,3.56-3.56A3.56,3.56,0,0,0,165.64,308.91Z"/><path class="cls-13" d="M130.23,255.42a5,5,0,0,0,2.68.78h45a2.7,2.7,0,0,0,2.77-2.51,2.63,2.63,0,0,0-2.84-2.65H156l-4.68-21.92H170.7a2.7,2.7,0,0,0,2.77-2.51,2.63,2.63,0,0,0-2.84-2.65H150.08l-4.89-23.21H164a2.7,2.7,0,0,0,2.77-2.51,2.63,2.63,0,0,0-2.84-2.65H119.68a2.67,2.67,0,0,0-.3,0h-.29c-.06,0-.12.14-.18.16a3.13,3.13,0,0,0-.34.16c-.08,0-.15.11-.23.15l-.25.16c-.08.05-.15.13-.22.19l-.2.18c-.06.07-.12.14-.17.21s-.12.14-.17.22-.08.15-.13.23a2.79,2.79,0,0,0-.13.25,2.86,2.86,0,0,0-.09.28c0,.08-.05.16-.07.24s-.1,1.15-.1,1.16L123,227.11l4,23.63a6.58,6.58,0,0,0,2.94,4.45Zm14-30.8H128.12l-4.89-23h16.14Zm5.93,27H134l-4.68-22h16.14Z"/><path class="cls-13" d="M166.08,284.24c3.21,0,31.13.09,31.42.09a3.14,3.14,0,0,1,2.83,3.17,3.09,3.09,0,0,1-2.84,3.11h0c-1.15,0-28.23-.36-31.46-.39-.85,0-3.47-.12-4.56,1-.18.18-.74.64-.74,2.36a5.05,5.05,0,0,0,1.29,3.81,8.14,8.14,0,0,0,3.75,1.84s.05.42.08.42h28.43a2.52,2.52,0,1,1,0,5H165.75a11.8,11.8,0,0,1-7.69-3.11,10.77,10.77,0,0,1-3-8,8.83,8.83,0,0,1,2.43-6.52C160,284.5,163.57,284.21,166.08,284.24Z"/><path class="cls-14" d="M161.2,199.27l13.88,55.09a3,3,0,0,0,2.76,2.26h47.88l11.39,18.83s.06,0,.09.09c1.08,1.57,2.23,4,1.55,5.57-.86,2-4.35,3.51-5.57,3.51H203.25c-1.63,0-10.78-1-15.25,3a7.35,7.35,0,0,0-2.55,5.66c0,4.18,2.2,7.68,6.35,10.25a21.24,21.24,0,0,0,5.85,2.45,3.09,3.09,0,0,0,.65.17,2.77,2.77,0,0,0,2.57-1.56h56.58a2.52,2.52,0,1,0,0-5H194.86c-1.89,0-3.73-3.37-3.73-6a2.38,2.38,0,0,1,.67-1.77c2.18-2,8.37-1.81,11-1.55.09,0,.19.27.28.27h60c.83,0,8.21-.52,11.35-5.53,1.89-3,1.74-7-.46-11.56,0-.06-.06-.2-.09-.26l-11.38-19.46,17.32-68.19h15.48c1.57,0,2.84-2.43,2.84-4s-1.27-4-2.84-4H277.67c-1.3,0-2.44,1.36-2.76,2.62l-3.75,15.38H164a2.9,2.9,0,0,0-2.24,1.15A3,3,0,0,0,161.2,199.27Zm42,52.35v-22h30v22Zm36,0v-22h23.49l-5.37,22Zm-36-27v-23h30v23Zm66.53-23-5.61,23H239.19v-23Zm-37.37,55h25.52L269,276c.87,1.81,1.68,4.42.73,5.94-1.25,2-5.25,2.66-6.55,2.66H243.41c.21,0,.41-.93.57-1.31,1.35-3.17.66-6.78-2-10.75Zm-57.68-27h21.52v22H180.05Zm-7.06-28h28.58v23h-23Z"/><path class="cls-15" d="M283.91,313.09a3.16,3.16,0,0,0,3.15-2.94c0-.41,0-.82,0-1.24a17.56,17.56,0,0,0-35.12,0,3.16,3.16,0,1,0,6.32,0,11.24,11.24,0,0,1,22.48,0c0,.27,0,.53,0,.8a3.16,3.16,0,0,0,2.93,3.37Z"/><path class="cls-16" d="M258.41,308.91A11.14,11.14,0,1,1,269.55,320,11.15,11.15,0,0,1,258.41,308.91Zm7.58,0a3.56,3.56,0,1,0,3.56-3.56A3.56,3.56,0,0,0,266,308.91Z"/><path class="cls-15" d="M217.05,313.09a3.16,3.16,0,0,0,3.15-2.94c0-.41,0-.82,0-1.24a17.56,17.56,0,0,0-35.12,0,3.16,3.16,0,1,0,6.32,0,11.24,11.24,0,0,1,22.48,0c0,.27,0,.53,0,.8a3.16,3.16,0,0,0,2.93,3.37Z"/><path class="cls-16" d="M191.55,308.91A11.14,11.14,0,1,1,202.69,320,11.15,11.15,0,0,1,191.55,308.91Zm7.58,0a3.56,3.56,0,1,0,3.56-3.56A3.56,3.56,0,0,0,199.13,308.91Z"/><rect class="cls-15" x="286.68" y="176.68" width="22.35" height="9.48" rx="4.74" ry="4.74" transform="translate(595.7 362.83) rotate(-180)"/><path class="cls-17" d="M149.86,21.16,94.35,25.65l-.84-9.27,55.69-4.51Zm0,0"/><rect class="cls-17" x="102.65" y="21.02" width="41.9" height="41.9" transform="translate(-2.98 10.11) rotate(-4.63)"/><path class="cls-18" d="M128.17,156l-18.47,1.5L94.08,23.34l23.2-1.88Zm0,0"/><path class="cls-18" d="M137.45,155.28l18.47-1.5-6.17-135-23.2,1.88Zm0,0"/><rect class="cls-18" x="102.47" y="21.02" width="41.9" height="37.25" transform="translate(-2.8 10.09) rotate(-4.63)"/><path class="cls-19" d="M122.18,24.42a.54.54,0,0,1-.57-.49l-.09-1.07a.54.54,0,1,1,1.07-.09l.09,1.07a.54.54,0,0,1-.49.58Zm0,0"/><path class="cls-19" d="M124.56,53.74a.54.54,0,0,1-.57-.49l-.17-2.1a.54.54,0,0,1,1.07-.09l.17,2.1a.54.54,0,0,1-.49.58Zm-.34-4.19a.54.54,0,0,1-.57-.49L123.47,47a.54.54,0,1,1,1.07-.09l.17,2.09a.54.54,0,0,1-.49.58Zm-.34-4.19a.54.54,0,0,1-.57-.49l-.17-2.09a.54.54,0,1,1,1.07-.09l.17,2.09a.54.54,0,0,1-.49.58Zm-.34-4.19a.54.54,0,0,1-.57-.49l-.17-2.09a.54.54,0,1,1,1.07-.09l.17,2.09a.54.54,0,0,1-.49.58ZM123.2,37a.54.54,0,0,1-.57-.49l-.17-2.1a.54.54,0,0,1,1.07-.09l.17,2.09a.54.54,0,0,1-.49.58Zm-.34-4.19a.54.54,0,0,1-.57-.49l-.17-2.09a.54.54,0,1,1,1.07-.09l.17,2.09a.54.54,0,0,1-.49.58Zm-.34-4.19a.54.54,0,0,1-.57-.49L121.78,26a.54.54,0,1,1,1.07-.09L123,28a.54.54,0,0,1-.49.58Zm0,0"/><path class="cls-19" d="M124.81,56.9a.54.54,0,0,1-.57-.49l-.09-1.07a.54.54,0,0,1,1.07-.09l.09,1.07a.54.54,0,0,1-.49.58Zm0,0"/><path class="cls-19" d="M126.47,41.65a.54.54,0,0,1-.45-.88l1.39-1.64a.54.54,0,1,1,.82.7l-1.39,1.63a.54.54,0,0,1-.36.19Zm2.39-3.4a.54.54,0,0,1-.58-.49l-.17-2.14a.54.54,0,0,1,1.07-.09l.17,2.14a.53.53,0,0,1-.49.58ZM128.52,34a.54.54,0,0,1-.58-.49l-.17-2.14a.54.54,0,0,1,1.07-.09l.17,2.14a.53.53,0,0,1-.49.57Zm-.35-4.28a.54.54,0,0,1-.58-.49L127.42,27a.54.54,0,1,1,1.07-.09l.17,2.14a.53.53,0,0,1-.49.58Zm-.35-4.28a.54.54,0,0,1-.58-.49l-.17-2.14a.54.54,0,0,1,1.07-.09l.17,2.14a.54.54,0,0,1-.49.58Zm0,0"/><polyline class="cls-17" points="101.22 25.09 102.44 40.21 97.55 46.29"/><path class="cls-19" d="M98.1,46.49a.53.53,0,0,1-.39-.13.53.53,0,0,1-.06-.76l1.21-1.42a.53.53,0,0,1,.81.69L98.46,46.3a.52.52,0,0,1-.36.19Zm2.6-3.06a.52.52,0,0,1-.39-.13.53.53,0,0,1-.06-.75l1.39-1.64a.54.54,0,0,1,.82.7l-1.39,1.63a.53.53,0,0,1-.37.19ZM103,40a.54.54,0,0,1-.57-.49l-.17-2.14a.54.54,0,0,1,1.07-.09l.17,2.14A.54.54,0,0,1,103,40Zm-.35-4.28a.54.54,0,0,1-.57-.49l-.17-2.14a.54.54,0,0,1,1.07-.09l.17,2.14a.54.54,0,0,1-.49.58Zm-.35-4.29a.53.53,0,0,1-.57-.49l-.17-2.14a.54.54,0,1,1,1.07-.09l.17,2.14a.54.54,0,0,1-.49.58Zm-.35-4.28a.54.54,0,0,1-.57-.49l-.17-2.14a.54.54,0,1,1,1.07-.09l.17,2.14a.54.54,0,0,1-.49.58Zm0,0"/><path class="cls-17" d="M102,34.76l-1.94-1.21-4-1,5.71-.46Zm0,0"/><polyline class="cls-17" points="142.99 21.71 144.21 36.83 150.02 42.05"/><path class="cls-19" d="M149.51,42.33a.53.53,0,0,1-.39-.13L147.69,41a.54.54,0,1,1,.7-.81l1.43,1.21a.54.54,0,0,1,.06.76.52.52,0,0,1-.37.19Zm-3.06-2.6a.52.52,0,0,1-.39-.13l-1.64-1.39a.54.54,0,0,1-.06-.76.54.54,0,0,1,.76-.06l1.64,1.39a.53.53,0,0,1,.06.75.52.52,0,0,1-.37.19Zm-2.79-3a.54.54,0,0,1-.57-.49l-.17-2.14A.53.53,0,0,1,144,34l.17,2.14a.54.54,0,0,1-.49.58Zm-.35-4.28a.54.54,0,0,1-.57-.49l-.17-2.14a.53.53,0,1,1,1.07-.09l.17,2.14a.54.54,0,0,1-.49.58ZM143,28.12a.54.54,0,0,1-.57-.49l-.17-2.14a.53.53,0,1,1,1.07-.09l.17,2.14a.53.53,0,0,1-.49.58Zm-.35-4.28a.54.54,0,0,1-.57-.49l-.17-2.14a.53.53,0,1,1,1.07-.09l.17,2.14a.54.54,0,0,1-.49.58Zm0,0"/><path class="cls-17" d="M143.77,31.38l1.72-1.5,3.77-1.67-5.71.46Zm0,0"/><path class="cls-17" d="M127.81,156.09c.07.81-3.92,1.8-8.9,2.21s-9.07.07-9.14-.75,3.92-1.8,8.9-2.21,9.07-.07,9.14.75Zm0,0"/><path class="cls-17" d="M155.84,153.82c.07.81-3.92,1.8-8.9,2.21s-9.07.07-9.14-.75,3.92-1.8,8.9-2.21,9.07-.07,9.14.75Zm0,0"/><rect class="cls-18" x="103.16" y="15.42" width="4.65" height="9.31" transform="translate(-1.28 8.58) rotate(-4.63)"/><rect class="cls-18" x="135.64" y="12.79" width="4.66" height="9.31" transform="translate(-0.96 11.19) rotate(-4.63)"/></g></g></svg>