<svg xmlns="http://www.w3.org/2000/svg" viewBox="0 0 136.95 136.83"><defs><style>.cls-1{fill:#0b4d6d;}.cls-2{fill:#f7a800;}</style></defs><title>Asset 7</title><g id="Layer_2" data-name="Layer 2"><g id="Historial"><path class="cls-1" d="M67.68,0A68.46,68.46,0,0,0,4,91.61,2.52,2.52,0,0,0,6.4,93.29a3.26,3.26,0,0,0,.87-.14A2.55,2.55,0,0,0,8.81,89.9,63.38,63.38,0,0,1,112.74,23.11l.39.36-7.67.08a2.55,2.55,0,0,0,0,5.1h0l13.78-.17a2.58,2.58,0,0,0,2.52-2.58l-.14-13.78a2.55,2.55,0,1,0-5.1.06l.08,7.67-.39-.36A67.72,67.72,0,0,0,67.68,0Zm0,0"/><path class="cls-1" d="M24.16,113.76l-.39-.36,7.67-.08a2.55,2.55,0,1,0-.06-5.1l-13.78.17A2.58,2.58,0,0,0,15.09,111l.17,13.78a2.55,2.55,0,0,0,2.55,2.52h0a2.58,2.58,0,0,0,2.52-2.58L20.27,117l.39.37A68.46,68.46,0,0,0,132.93,45.26,2.54,2.54,0,1,0,128.14,47a63.4,63.4,0,0,1-104,66.79Z"/><path class="cls-2" d="M56.87,95.67a5.6,5.6,0,0,1-4-1.64L33.05,74.18A5.61,5.61,0,0,1,41,66.24L56.87,82.12,92.61,46.38a5.61,5.61,0,1,1,7.94,7.94L60.84,94A5.6,5.6,0,0,1,56.87,95.67Z"/></g></g></svg>