<svg xmlns="http://www.w3.org/2000/svg" viewBox="0 0 30.48 30.48"><defs><style>.cls-1{fill:#f8b917;opacity:0.3;}.cls-2{fill:#fab718;}</style></defs><title>Asset 5</title><g id="Layer_2" data-name="Layer 2"><g id="Historial"><circle class="cls-1" cx="15.24" cy="15.24" r="15.24"/><path class="cls-2" d="M20.62,11.27,16.47,7.85a2.42,2.42,0,0,0-1.39-.49H10.3a1.05,1.05,0,0,0-1.06,1c0,.14,0,13.76,0,13.83a.85.85,0,0,0,.89.88H20.23a1,1,0,0,0,1-1.05V12.64A1.91,1.91,0,0,0,20.62,11.27ZM15.08,7.4h0ZM18,17.48a.31.31,0,0,1-.29.16H16.26V21a.4.4,0,0,1-.39.41H14.65a.39.39,0,0,1-.38-.41V17.63H12.84a.3.3,0,0,1-.26-.48L15,13.74a.34.34,0,0,1,.56,0l2.39,3.41A.31.31,0,0,1,18,17.48Zm-1.58-5.09h0Zm.06,0a.69.69,0,0,1-.72-.72V8.72l4.58,3.62Z"/></g></g></svg>