<svg xmlns="http://www.w3.org/2000/svg" xmlns:xlink="http://www.w3.org/1999/xlink" viewBox="0 0 131.02 130.91"><defs><style>.cls-1{fill:none;}.cls-2{clip-path:url(#clip-path);}.cls-3{fill:#0e80c2;}.cls-4{fill:#0b4d6d;}.cls-5{fill:#e5e5e5;}.cls-6{fill:#fff;}.cls-7{fill:#bfeeff;}.cls-8{fill:#e5f9ff;}</style><clipPath id="clip-path" transform="translate(-31.76 -34.55)"><rect class="cls-1" width="191.34" height="191.34"/></clipPath></defs><title>Asset 2</title><g id="Layer_2" data-name="Layer 2"><g id="guides"><g class="cls-2"><path class="cls-3" d="M157.15,89.52" transform="translate(-31.76 -34.55)"/><path class="cls-4" d="M96.51,34.56a65.49,65.49,0,0,0-60.9,87.64,2.41,2.41,0,0,0,2.28,1.61,3.12,3.12,0,0,0,.83-.13,2.44,2.44,0,0,0,1.47-3.11,60.64,60.64,0,0,1,99.43-63.9L140,57l-7.34.08a2.44,2.44,0,0,0,0,4.88h0l13.18-.16a2.46,2.46,0,0,0,2.41-2.46l-.13-13.18a2.44,2.44,0,1,0-4.88.05l.08,7.34L143,53.2A64.79,64.79,0,0,0,96.51,34.56Zm0,0" transform="translate(-31.76 -34.55)"/><path class="cls-4" d="M54.88,143.39,54.5,143l7.34-.08a2.44,2.44,0,1,0-.05-4.88l-13.18.16a2.47,2.47,0,0,0-2.41,2.47l.16,13.18a2.44,2.44,0,0,0,2.44,2.41h0a2.46,2.46,0,0,0,2.41-2.46l-.08-7.34.37.35a65.49,65.49,0,0,0,107.41-69,2.43,2.43,0,1,0-4.58,1.63,60.66,60.66,0,0,1-99.48,63.9Zm0,0" transform="translate(-31.76 -34.55)"/><rect class="cls-5" x="39.1" y="35.32" width="49.61" height="60.26"/><circle class="cls-6" cx="63.91" cy="71.09" r="18.97"/><path class="cls-7" d="M103,105.65a13.36,13.36,0,0,1,3-8.51,13.41,13.41,0,1,0,0,17A13.36,13.36,0,0,1,103,105.65Z" transform="translate(-31.76 -34.55)"/><circle class="cls-8" cx="63.91" cy="71.09" r="8.52"/><path d="M120.48,89.74a1.06,1.06,0,0,0-1.06,1.06v37.32a1,1,0,0,1-1,1H81.23a1.06,1.06,0,0,0,0,2.13h37.23a3.08,3.08,0,0,0,3.08-3.08V90.8A1.06,1.06,0,0,0,120.48,89.74Z" transform="translate(-31.76 -34.55)"/><path d="M118.46,68.81H72.88a3.08,3.08,0,0,0-3.08,3.08v56.23a3.08,3.08,0,0,0,3.08,3.08h4.81a1.06,1.06,0,1,0,0-2.13H72.88a1,1,0,0,1-1-1V81.9h47.48v5.5a1.06,1.06,0,1,0,2.13,0V71.88A3.08,3.08,0,0,0,118.46,68.81ZM81.94,70.93v2H76.8v-2Zm-10,1a1,1,0,0,1,1-1h1.8V74a1.06,1.06,0,0,0,1.06,1.06H83A1.06,1.06,0,0,0,84.06,74v-3.1h2v8.84H71.93Zm33.37,7.89v-6.4a1.06,1.06,0,1,0-2.13,0v6.4h-15V70.93h30.29a1,1,0,0,1,1,1v7.89Z" transform="translate(-31.76 -34.55)"/><path d="M109.4,118.78a1.06,1.06,0,0,0,1.5-.12,20,20,0,1,0-3.07,2.91,1.06,1.06,0,1,0-1.29-1.69,17.74,17.74,0,0,1-10.86,3.67,17.91,17.91,0,1,1,13.61-6.27A1.06,1.06,0,0,0,109.4,118.78Z" transform="translate(-31.76 -34.55)"/><path d="M106.86,96.46a14.48,14.48,0,0,0-23.78,16.33,1.06,1.06,0,0,0,1.85-1,12.35,12.35,0,0,1,19.74-14.56,14.48,14.48,0,0,0,0,16.94,12.35,12.35,0,0,1-17.87.11,1.06,1.06,0,1,0-1.53,1.48,14.48,14.48,0,0,0,21.59-.87,1.06,1.06,0,0,0,0-1.35,12.35,12.35,0,0,1,0-15.68A1.06,1.06,0,0,0,106.86,96.46Z" transform="translate(-31.76 -34.55)"/><path d="M116.59,72.42h-8.5a1.06,1.06,0,1,0,0,2.13h8.5a1.06,1.06,0,1,0,0-2.13Z" transform="translate(-31.76 -34.55)"/><path d="M116.59,76.16h-8.5a1.06,1.06,0,1,0,0,2.13h8.5a1.06,1.06,0,1,0,0-2.13Z" transform="translate(-31.76 -34.55)"/></g></g></g></svg>