<svg xmlns="http://www.w3.org/2000/svg" viewBox="0 0 50 39.93"><defs><style>.cls-1{fill:#d91c24;}</style></defs><title>Asset 3</title><g id="Layer_2" data-name="Layer 2"><g id="Layer_3" data-name="Layer 3"><path class="cls-1" d="M19.89,21.46c3.14,0,5.69-3.11,5.69-6.92S23,7.61,19.89,7.61A5.21,5.21,0,0,0,15.81,9.7a7.73,7.73,0,0,0-1.61,4.83C14.2,18.36,16.76,21.46,19.89,21.46Zm0-12.33c2.3,0,4.17,2.42,4.17,5.41s-1.87,5.41-4.17,5.41-4.17-2.43-4.17-5.41S17.59,9.13,19.89,9.13ZM24.67,20.7a.76.76,0,1,0,0,1.52,4.71,4.71,0,0,1,4.71,4.71.61.61,0,0,1-.61.61H11a.61.61,0,0,1-.61-.61,4.71,4.71,0,0,1,4.7-4.71.76.76,0,1,0,0-1.52,6.23,6.23,0,0,0-6.22,6.22A2.13,2.13,0,0,0,11,29.05H28.77a2.13,2.13,0,0,0,2.13-2.12A6.23,6.23,0,0,0,24.67,20.7Z"/><path class="cls-1" d="M19.73,39.46A19.73,19.73,0,1,1,39.46,19.73,19.75,19.75,0,0,1,19.73,39.46Zm0-37.94A18.21,18.21,0,1,0,37.94,19.73,18.23,18.23,0,0,0,19.73,1.52Z"/><polygon class="cls-1" points="44.22 35.63 50 35.63 47.11 37.72 44.22 39.93 41.33 37.78 38.44 35.63 44.22 35.63"/></g></g></svg>