<svg xmlns="http://www.w3.org/2000/svg" viewBox="0 0 23.37 21.25"><defs><!-- <style>.cls-1{fill:#f8b916;}</style> --></defs><title>Asset 29</title><g id="Layer_2" data-name="Layer 2"><g id="guides"><path class="cls-1" d="M.53,0a.53.53,0,1,0,0,1.06H3.36c1.36,3.36,2.69,6.72,4,10.09l-1.25,3a.56.56,0,0,0,.49.74H19.92a.53.53,0,1,0,0-1.06H7.44l.9-2.16,13-1a.55.55,0,0,0,.47-.41L23.36,3.3a.56.56,0,0,0-.51-.65H5.14L4.21.33A.54.54,0,0,0,3.72,0Zm5,3.72H22.18L20.82,9.6l-12.5,1ZM9.3,16.47a2.39,2.39,0,1,0,2.39,2.39A2.4,2.4,0,0,0,9.3,16.47Zm8,0a2.39,2.39,0,1,0,2.39,2.39A2.4,2.4,0,0,0,17.27,16.47Zm-8,1.06A1.33,1.33,0,1,1,8,18.86,1.32,1.32,0,0,1,9.3,17.53Zm8,0a1.33,1.33,0,1,1-1.33,1.33A1.32,1.32,0,0,1,17.27,17.53Z"/></g></g></svg>