<svg xmlns="http://www.w3.org/2000/svg" xmlns:xlink="http://www.w3.org/1999/xlink" viewBox="0 0 131.02 130.91"><defs><style>.cls-1{fill:none;}.cls-2{clip-path:url(#clip-path);}.cls-3{fill:#0e80c2;}.cls-4{fill:#0b4d6d;}.cls-5{fill:#c42134;}.cls-6{fill:#333;}</style><clipPath id="clip-path" transform="translate(-31.76 -34.55)"><rect class="cls-1" width="191.34" height="191.34"/></clipPath></defs><title>Asset 4</title><g id="Layer_2" data-name="Layer 2"><g id="guides"><g class="cls-2"><path class="cls-3" d="M157.15,89.52" transform="translate(-31.76 -34.55)"/><path class="cls-4" d="M96.51,34.56a65.49,65.49,0,0,0-60.9,87.64,2.41,2.41,0,0,0,2.28,1.61,3.12,3.12,0,0,0,.83-.13,2.44,2.44,0,0,0,1.47-3.11,60.64,60.64,0,0,1,99.43-63.9L140,57l-7.34.08a2.44,2.44,0,0,0,0,4.88h0l13.18-.16a2.46,2.46,0,0,0,2.41-2.46l-.13-13.18a2.44,2.44,0,1,0-4.88.05l.08,7.34L143,53.2A64.79,64.79,0,0,0,96.51,34.56Zm0,0" transform="translate(-31.76 -34.55)"/><path class="cls-4" d="M54.88,143.39,54.5,143l7.34-.08a2.44,2.44,0,1,0-.05-4.88l-13.18.16a2.47,2.47,0,0,0-2.41,2.47l.16,13.18a2.44,2.44,0,0,0,2.44,2.41h0a2.46,2.46,0,0,0,2.41-2.46l-.08-7.34.37.35a65.49,65.49,0,0,0,107.41-69,2.43,2.43,0,1,0-4.58,1.63,60.66,60.66,0,0,1-99.48,63.9Zm0,0" transform="translate(-31.76 -34.55)"/><path class="cls-5" d="M120.12,72.36a58.84,58.84,0,0,1-21.94-4.23l-.4-.16-.4.16a58.84,58.84,0,0,1-21.94,4.23H73V94.95H67.65a3.23,3.23,0,0,0-3.23,3.23v18.29a3.23,3.23,0,0,0,3.23,3.23h9.68a28,28,0,0,0,10.26,9.66l10.17,5.55,10.17-5.55a27.93,27.93,0,0,0,14.57-24.54V72.36Zm-53.54,44.1V98.17a1.08,1.08,0,0,1,1.08-1.08h9.68a1.08,1.08,0,0,1,1.08,1.08v18.29a1.08,1.08,0,0,1-1.08,1.08H67.65A1.08,1.08,0,0,1,66.58,116.46Zm14-16.14A6.84,6.84,0,0,0,87,93.5V88a2.69,2.69,0,1,1,5.38,0v6.77a3.45,3.45,0,0,0,3.45,3.45h7.89a3.73,3.73,0,0,1,3.73,3.73v11.91a3.73,3.73,0,0,1-3.73,3.73H87.88a2.55,2.55,0,0,1-2.12-1.13,4.69,4.69,0,0,0-3.91-2.09H80.56v-14Zm39.8,4.49a25.79,25.79,0,0,1-13.45,22.65l-9.14,5-9.14-5a25.8,25.8,0,0,1-9.23-8.54,3.2,3.2,0,0,0,1.14-2.25,23.55,23.55,0,0,0,9.12,8.9L97.77,130l8.11-4.43a23.63,23.63,0,0,0,12.32-20.76V88.49h-2.15v16.32a21.48,21.48,0,0,1-11.2,18.87l-7.08,3.86-7.08-3.86a21.41,21.41,0,0,1-7.49-6.82,2.53,2.53,0,0,1,.77.73,4.69,4.69,0,0,0,3.91,2.09h15.85a5.88,5.88,0,0,0,5.88-5.88V101.9A5.88,5.88,0,0,0,103.73,96H95.84a1.3,1.3,0,0,1-1.3-1.3V88a4.84,4.84,0,1,0-9.68,0V93.5a4.67,4.67,0,0,1-4.31,4.64,3.21,3.21,0,0,0-1.07-2.35V78.69a65.22,65.22,0,0,0,18.29-3.8,65.23,65.23,0,0,0,18.29,3.8v1.2h2.15V76.64l-1,0a63.12,63.12,0,0,1-19-3.86l-.37-.14-.37.14a63.13,63.13,0,0,1-19,3.86l-1,0V94.95H75.18V74.51h.25a61,61,0,0,0,22.34-4.22,61,61,0,0,0,22.34,4.22h.25v30.3h0Z" transform="translate(-31.76 -34.55)"/><rect class="cls-6" x="84.3" y="49.64" width="2.15" height="2.15"/><rect class="cls-6" x="36.97" y="78.68" width="7.53" height="2.15"/></g></g></g></svg>