<svg xmlns="http://www.w3.org/2000/svg" viewBox="0 0 302.19 54.82"><defs><style>.cls-1{fill:#fff;}</style></defs><title>Asset 1</title><g id="Layer_2" data-name="Layer 2"><g id="Layer_3" data-name="Layer 3"><path class="cls-1" d="M302.19,26.4a1.59,1.59,0,0,1-1.62,1.6,1.6,1.6,0,1,1,1.62-1.6Zm-2.86,0a1.23,1.23,0,1,0,1.22-1.27A1.23,1.23,0,0,0,299.33,26.4Zm1,.83h-.37V25.64a3.09,3.09,0,0,1,.61-.06.88.88,0,0,1,.55.13.41.41,0,0,1,.16.34.42.42,0,0,1-.33.38v0c.16,0,.23.17.28.39a1.3,1.3,0,0,0,.12.39h-.39a1,1,0,0,1-.13-.38.29.29,0,0,0-.33-.25h-.18Zm0-.89h.17c.2,0,.38-.07.38-.23s-.11-.24-.35-.24l-.2,0Z"/><path class="cls-1" d="M75,25.61H71.64a2.18,2.18,0,0,1-2.15-2.55l.06-.36a2.18,2.18,0,0,1,2.15-1.81H84.37a2.18,2.18,0,0,1,2.15,2.55l-.06.36a2.18,2.18,0,0,1-2.15,1.81H80.45L78.18,38.53A2.18,2.18,0,0,1,76,40.34H75a2.18,2.18,0,0,1-2.15-2.56Z"/><path class="cls-1" d="M89,25.44h1.13a2,2,0,0,1,2,2.37L90.19,38.67a2,2,0,0,1-2,1.66H87.08a2,2,0,0,1-2-2.37L87,27.11A2,2,0,0,1,89,25.44Zm1.06-6h1.15a2,2,0,0,1,2,2.34h0a2,2,0,0,1-2,1.69H90.07a2,2,0,0,1-2-2.36h0A2,2,0,0,1,90.07,19.41Z"/><path class="cls-1" d="M101.85,24.8c3.56,0,6,1.83,6,4.53,0,3-3.39,4.67-8.22,4.67H97.82c0,1.89.89,2.56,2.5,2.56a6.88,6.88,0,0,0,2.34-.46,2,2,0,0,1,2.46.93h0a2,2,0,0,1-1,2.73,11,11,0,0,1-4.5.94c-4.2,0-7.11-2.58-7.11-6.72A9,9,0,0,1,101.85,24.8Zm-3.67,6.56h1.08c2.83,0,3.67-.86,3.67-1.75,0-.69-.56-1.25-1.5-1.25C100,28.36,98.73,29.56,98.18,31.36Z"/><path class="cls-1" d="M118,31a8.08,8.08,0,0,0,.17-1.28.93.93,0,0,0-1-1.06c-1,0-2,.84-2.89,2.16a.67.67,0,0,0-.1.26l-1.55,8.72a.65.65,0,0,1-.64.53h-3.91a.65.65,0,0,1-.64-.76l2.47-13.91a.65.65,0,0,1,.64-.53h3.24a.65.65,0,0,1,.64.61h0a.65.65,0,0,0,1.06.46,6.25,6.25,0,0,1,4-1.4,3.69,3.69,0,0,1,4.06,3.92,15.81,15.81,0,0,1-.28,2.58l-1.52,8.5a.65.65,0,0,1-.64.53h-3.91a.65.65,0,0,1-.64-.76Z"/><path class="cls-1" d="M124.16,34.5c0-5.39,3.17-9.64,7.17-9.64a5.6,5.6,0,0,1,3.22.9.55.55,0,0,0,.84-.36l1-5.58a.55.55,0,0,1,.54-.45H141a.55.55,0,0,1,.54.65l-3.5,19.87a.55.55,0,0,1-.54.46h-3.36a.55.55,0,0,1-.55-.54h0a.55.55,0,0,0-.89-.43,5.5,5.5,0,0,1-3.61,1.25C126.46,40.61,124.16,38.45,124.16,34.5Zm9.6.21.87-5a.55.55,0,0,0-.25-.56,3.1,3.1,0,0,0-1.69-.51c-1.92,0-3.31,2.5-3.31,5.36,0,2,.83,2.81,1.81,2.81a3.23,3.23,0,0,0,2.51-1.91A.59.59,0,0,0,133.76,34.71Z"/><path class="cls-1" d="M140.58,34.56c0-5.42,3.08-9.7,7.25-9.7a5.46,5.46,0,0,1,3.34,1,.69.69,0,0,0,1.08-.3h0a.69.69,0,0,1,.65-.45h3.39a.69.69,0,0,1,.68.81l-1.74,9.77a5.1,5.1,0,0,0-.06.58.56.56,0,0,0,.38.59.68.68,0,0,1,.42.75l-.38,2.25a.7.7,0,0,1-.63.57c-1.87.16-3.43-.11-4.26-1.24a.68.68,0,0,0-1-.1,5.85,5.85,0,0,1-4,1.5C142.89,40.64,140.58,38.56,140.58,34.56Zm10.48-4.75a.68.68,0,0,0-.32-.71,3.16,3.16,0,0,0-1.63-.46c-1.89,0-3.28,2.47-3.28,5.39,0,1.94.81,2.72,1.78,2.72a3.14,3.14,0,0,0,2.52-1.83.73.73,0,0,0,.09-.24Z"/><path class="cls-1" d="M182,24.8c3.56,0,6,1.83,6,4.53,0,3-3.39,4.67-8.22,4.67H178c0,1.89.89,2.56,2.5,2.56a6.88,6.88,0,0,0,2.34-.46,2,2,0,0,1,2.46.93h0a2,2,0,0,1-1,2.73,11,11,0,0,1-4.5.94c-4.2,0-7.11-2.58-7.11-6.72A9,9,0,0,1,182,24.8Zm-3.67,6.56h1.08c2.83,0,3.67-.86,3.67-1.75,0-.69-.56-1.25-1.5-1.25C180.09,28.36,178.87,29.56,178.31,31.36Z"/><path class="cls-1" d="M191.55,25.14h1.4a1.67,1.67,0,0,1,1.67,1.57h0a.25.25,0,0,0,.45.14,5.07,5.07,0,0,1,4.2-2.18,6.08,6.08,0,0,1,1.65.22.26.26,0,0,1,.17.32l-1.27,4.1a.25.25,0,0,1-.31.17,6,6,0,0,0-1.6-.23c-1.57,0-2.79,1.39-3.81,3.13a.27.27,0,0,0,0,.09l-1.37,7.66a.25.25,0,0,1-.25.21h-4.71a.25.25,0,0,1-.25-.3l2.42-13.52A1.67,1.67,0,0,1,191.55,25.14Z"/><path class="cls-1" d="M202.93,45.89h-4.07a.57.57,0,0,1-.56-.67l3.49-19.62a.57.57,0,0,1,.56-.47h3.57a.57.57,0,0,1,.57.54h0a.57.57,0,0,0,.92.41,5.5,5.5,0,0,1,3.52-1.23c2.53,0,4.78,1.89,4.78,6.2,0,5.7-3.11,9.56-7.17,9.56a5.18,5.18,0,0,1-3.18-1,.56.56,0,0,0-.89.35l-1,5.49A.57.57,0,0,1,202.93,45.89Zm4.25-9.06c2,0,3.31-2.58,3.31-5.45,0-1.89-.81-2.69-1.81-2.69a3.28,3.28,0,0,0-2.5,1.85.6.6,0,0,0-.08.21l-.89,5a.58.58,0,0,0,.24.57A2.86,2.86,0,0,0,207.18,36.83Z"/><path class="cls-1" d="M225.69,24.8c3.56,0,6,1.83,6,4.53,0,3-3.39,4.67-8.22,4.67h-1.81c0,1.89.89,2.56,2.5,2.56a6.88,6.88,0,0,0,2.34-.46A2,2,0,0,1,229,37h0a2,2,0,0,1-1,2.73,11,11,0,0,1-4.5.94c-4.2,0-7.11-2.58-7.11-6.72A9,9,0,0,1,225.69,24.8ZM222,31.36h1.08c2.83,0,3.67-.86,3.67-1.75,0-.69-.56-1.25-1.5-1.25C223.8,28.36,222.57,29.56,222,31.36Z"/><path class="cls-1" d="M234.86,19.36h5.22l-3.7,21h-5.22Z"/><path class="cls-1" d="M241,35.36h0a2.47,2.47,0,0,1,2.43,2.91v0a2.47,2.47,0,0,1-2.43,2h0a2.47,2.47,0,0,1-2.43-2.9v0A2.47,2.47,0,0,1,241,35.36Z"/><path class="cls-1" d="M253.39,24.8a9,9,0,0,1,3.12.55,2,2,0,0,1,.79,3.3l0,0a2,2,0,0,1-2.24.48,3.83,3.83,0,0,0-1.5-.3c-2,0-3.58,2-3.58,4.72,0,1.86,1.08,2.94,2.47,2.94a3.88,3.88,0,0,0,1.43-.27,2,2,0,0,1,2.39.63h0a2,2,0,0,1-.79,3.1,10,10,0,0,1-3.78.69c-3.64,0-7.06-2.25-7.06-7A8.68,8.68,0,0,1,253.39,24.8Z"/><path class="cls-1" d="M257.92,33.72c0-5.28,3.61-8.92,8.86-8.92a6.57,6.57,0,0,1,7,7c0,5.25-3.58,8.92-8.86,8.92A6.6,6.6,0,0,1,257.92,33.72Zm10.56-2.11c0-2.06-.72-3.08-2-3.08-1.83,0-3.25,2.67-3.25,5.33,0,2.08.72,3.08,2,3.08C267.09,36.95,268.48,34.28,268.48,31.61Z"/><path class="cls-1" d="M278.73,40.34h-5.11l2.48-14.13a1.29,1.29,0,0,1,1.27-1.07h2a1.29,1.29,0,0,1,1.29,1.26l0,.77a6.72,6.72,0,0,1,4.89-2.36,3.39,3.39,0,0,1,3.64,2.53,6.86,6.86,0,0,1,5.11-2.53,3.45,3.45,0,0,1,3.75,3.61,21.32,21.32,0,0,1-.33,3.06l-1.58,8.86h-5L292.84,31a8.59,8.59,0,0,0,.14-1.25.92.92,0,0,0-1-1.06c-1,0-1.92.75-2.83,2v.06l-1.72,9.56h-5L284.12,31a8.2,8.2,0,0,0,.14-1.22c0-.67-.31-1.08-1-1.08-1,0-1.94.78-2.83,2.08Z"/><path class="cls-1" d="M163.56,25.61h-3.39A2.18,2.18,0,0,1,158,23.06l.06-.36a2.18,2.18,0,0,1,2.15-1.81h12.66A2.18,2.18,0,0,1,175,23.43l-.06.36a2.18,2.18,0,0,1-2.15,1.81H169l-2.27,12.92a2.18,2.18,0,0,1-2.15,1.8h-1a2.18,2.18,0,0,1-2.15-2.56Z"/><path class="cls-1" d="M48.75,16H43a3.68,3.68,0,0,1-3.63-4.3l.1-.61A3.68,3.68,0,0,1,43.14,8H64.51a3.68,3.68,0,0,1,3.63,4.3l-.1.61A3.68,3.68,0,0,1,64.41,16H57.9l-3.8,21.71a3.68,3.68,0,0,1-3.62,3H48.76a3.68,3.68,0,0,1-3.62-4.32Z"/><path class="cls-1" d="M51.85,32.83H19.13a3.68,3.68,0,0,0-3.63,3.06l-.1.61A3.68,3.68,0,0,0,19,40.8H50.47a3.68,3.68,0,0,0,3.62-3l1.35-7.83A3.51,3.51,0,0,1,51.85,32.83Z"/><path class="cls-1" d="M22.72,46.54a2.81,2.81,0,1,1-2.81,2.81,2.82,2.82,0,0,1,2.81-2.81m0-2.66a5.47,5.47,0,1,0,5.47,5.47,5.47,5.47,0,0,0-5.47-5.47Z"/><path class="cls-1" d="M49.33,48.19a2.2,2.2,0,1,1-2.2,2.2,2.2,2.2,0,0,1,2.2-2.2m0-2.23a4.43,4.43,0,1,0,4.43,4.43A4.43,4.43,0,0,0,49.33,46Z"/><path class="cls-1" d="M24.64,37.75,19.47,8h5.68a3.68,3.68,0,0,0,3.63-4.3l-.1-.61A3.68,3.68,0,0,0,25.05,0H3.68A3.68,3.68,0,0,0,.05,4.3l.1.61A3.68,3.68,0,0,0,3.78,8h6.51l5.17,29.78a3.68,3.68,0,0,0,3.62,3h9.18A3.68,3.68,0,0,1,24.64,37.75Z"/></g></g></svg>