<svg xmlns="http://www.w3.org/2000/svg" xmlns:xlink="http://www.w3.org/1999/xlink" viewBox="0 0 300 54.69"><defs><style>.cls-1{isolation:isolate;}.cls-2{fill:url(#linear-gradient);}.cls-3{opacity:0.88;fill:url(#radial-gradient);}.cls-3,.cls-4{mix-blend-mode:multiply;}.cls-4{opacity:0.68;fill:url(#radial-gradient-2);}.cls-5{fill:url(#linear-gradient-2);}.cls-6{fill:#58595b;}.cls-7{fill:#ed3c26;}.cls-8{fill:url(#linear-gradient-3);}</style><linearGradient id="linear-gradient" x1="53.65" y1="7.97" x2="53.65" y2="40.62" gradientUnits="userSpaceOnUse"><stop offset="0.12" stop-color="#ffe02c"/><stop offset="0.27" stop-color="#fed82a"/><stop offset="0.49" stop-color="#fac326"/><stop offset="0.77" stop-color="#f5a11f"/><stop offset="0.85" stop-color="#f3941d"/></linearGradient><radialGradient id="radial-gradient" cx="49.79" cy="37.8" fx="57.05517769898208" fy="30.511970848830103" r="10.29" gradientUnits="userSpaceOnUse"><stop offset="0" stop-color="#861704"/><stop offset="0.35" stop-color="#c22b1c"/><stop offset="0.41" stop-color="#c32d1c" stop-opacity="0.98"/><stop offset="0.49" stop-color="#c7341c" stop-opacity="0.9"/><stop offset="0.57" stop-color="#cc401c" stop-opacity="0.78"/><stop offset="0.65" stop-color="#d5501d" stop-opacity="0.61"/><stop offset="0.74" stop-color="#df651d" stop-opacity="0.4"/><stop offset="0.83" stop-color="#eb7e1e" stop-opacity="0.14"/><stop offset="0.87" stop-color="#f28b1e" stop-opacity="0"/></radialGradient><radialGradient id="radial-gradient-2" cx="52.45" cy="35.97" fy="54.434854477037874" r="18.67" gradientTransform="matrix(0.99, -0.12, 0.13, 1.03, -4.22, 5.59)" gradientUnits="userSpaceOnUse"><stop offset="0" stop-color="#861704"/><stop offset="0.35" stop-color="#c22b1c"/><stop offset="0.43" stop-color="#c32d1c" stop-opacity="0.98"/><stop offset="0.52" stop-color="#c7341c" stop-opacity="0.9"/><stop offset="0.62" stop-color="#cc401c" stop-opacity="0.78"/><stop offset="0.72" stop-color="#d5501d" stop-opacity="0.61"/><stop offset="0.82" stop-color="#df651d" stop-opacity="0.4"/><stop offset="0.93" stop-color="#eb7e1e" stop-opacity="0.14"/><stop offset="0.98" stop-color="#f28b1e" stop-opacity="0"/></radialGradient><linearGradient id="linear-gradient-2" x1="20.08" y1="30.92" x2="54.46" y2="39.82" gradientUnits="userSpaceOnUse"><stop offset="0.71" stop-color="#f3941d"/><stop offset="0.75" stop-color="#f5a41a"/><stop offset="0.82" stop-color="#fccd13"/><stop offset="0.85" stop-color="#ffe00f"/><stop offset="0.88" stop-color="#fdd511"/><stop offset="0.94" stop-color="#f9b616"/><stop offset="0.98" stop-color="#f4971c"/></linearGradient><linearGradient id="linear-gradient-3" x1="14.38" x2="14.38" y2="40.7" gradientUnits="userSpaceOnUse"><stop offset="0.41" stop-color="#ed3c26"/><stop offset="0.55" stop-color="#ed3f26"/><stop offset="0.65" stop-color="#ee4725"/><stop offset="0.73" stop-color="#ef5623"/><stop offset="0.8" stop-color="#f06b21"/><stop offset="0.87" stop-color="#f2861e"/><stop offset="0.9" stop-color="#f3941d"/><stop offset="0.92" stop-color="#f2811f"/><stop offset="0.98" stop-color="#ee4f24"/><stop offset="1" stop-color="#ed3c26"/></linearGradient></defs><title>Asset 2</title><g class="cls-1"><g id="Layer_2" data-name="Layer 2"><g id="guides"><path class="cls-2" d="M48.64,15.92H42.93a3.67,3.67,0,0,1-3.62-4.29l.1-.61A3.67,3.67,0,0,1,43,8H64.36A3.67,3.67,0,0,1,68,12.26l-.1.61a3.67,3.67,0,0,1-3.62,3.05H57.76L54,37.58a3.67,3.67,0,0,1-3.62,3H48.65A3.67,3.67,0,0,1,45,36.31Z"/><path class="cls-3" d="M48.51,16.53,45.1,35.77a3.67,3.67,0,0,0,3.61,4.31h1.71A3.67,3.67,0,0,0,54,37l3.6-20.51Z"/><path class="cls-4" d="M48.64,15.92H42.93a3.67,3.67,0,0,1-3.62-4.29l.1-.61A3.67,3.67,0,0,1,43,8H64.36A3.67,3.67,0,0,1,68,12.26l-.1.61a3.67,3.67,0,0,1-3.62,3.05H57.76L54,37.58a3.67,3.67,0,0,1-3.62,3H48.65A3.67,3.67,0,0,1,45,36.31Z"/><path class="cls-5" d="M51.73,32.75H19.09a3.67,3.67,0,0,0-3.62,3.05l-.1.61A3.67,3.67,0,0,0,19,40.71H50.35a3.67,3.67,0,0,0,3.62-3l1.35-7.81A3.51,3.51,0,0,1,51.73,32.75Z"/><path class="cls-6" d="M300,26.72a1.59,1.59,0,0,1-1.62,1.6,1.6,1.6,0,1,1,1.62-1.6Zm-2.86,0a1.23,1.23,0,1,0,1.22-1.27A1.23,1.23,0,0,0,297.14,26.72Zm1,.83h-.37V26a3.09,3.09,0,0,1,.61-.06.88.88,0,0,1,.55.13.41.41,0,0,1,.16.34.42.42,0,0,1-.33.38v0c.16,0,.23.17.28.39a1.3,1.3,0,0,0,.12.39h-.39a1,1,0,0,1-.13-.38.29.29,0,0,0-.33-.25h-.18Zm0-.89h.17c.2,0,.38-.07.38-.23s-.11-.24-.35-.24l-.2,0Z"/><path class="cls-6" d="M22.67,46.43a2.81,2.81,0,1,1-2.81,2.81,2.81,2.81,0,0,1,2.81-2.81m0-2.65a5.46,5.46,0,1,0,5.46,5.46,5.46,5.46,0,0,0-5.46-5.46Z"/><path class="cls-6" d="M49.21,48.08A2.19,2.19,0,1,1,47,50.27a2.2,2.2,0,0,1,2.19-2.19m0-2.23a4.42,4.42,0,1,0,4.42,4.42,4.42,4.42,0,0,0-4.42-4.42Z"/><path class="cls-6" d="M72.84,25.93H69.45a2.18,2.18,0,0,1-2.15-2.55l.06-.36a2.18,2.18,0,0,1,2.15-1.81H82.18a2.18,2.18,0,0,1,2.15,2.55l-.06.36a2.18,2.18,0,0,1-2.15,1.81H78.26L76,38.85a2.18,2.18,0,0,1-2.15,1.8h-1a2.18,2.18,0,0,1-2.15-2.56Z"/><path class="cls-6" d="M86.81,25.76h1.13a2,2,0,0,1,2,2.37L88,39a2,2,0,0,1-2,1.66H84.89a2,2,0,0,1-2-2.37l1.93-10.86A2,2,0,0,1,86.81,25.76Zm1.06-6H89a2,2,0,0,1,2,2.34h0a2,2,0,0,1-2,1.69H87.88a2,2,0,0,1-2-2.36h0A2,2,0,0,1,87.88,19.73Z"/><path class="cls-6" d="M99.66,25.12c3.56,0,6,1.83,6,4.53,0,3-3.39,4.67-8.22,4.67H95.63c0,1.89.89,2.56,2.5,2.56a6.88,6.88,0,0,0,2.34-.46,2,2,0,0,1,2.46.93h0a2,2,0,0,1-1,2.73,11,11,0,0,1-4.5.94c-4.2,0-7.11-2.58-7.11-6.72A9,9,0,0,1,99.66,25.12ZM96,31.68h1.08c2.83,0,3.67-.86,3.67-1.75,0-.69-.56-1.25-1.5-1.25C97.77,28.68,96.54,29.87,96,31.68Z"/><path class="cls-6" d="M115.85,31.32A8.08,8.08,0,0,0,116,30,.93.93,0,0,0,115,29c-1,0-2,.84-2.89,2.16a.67.67,0,0,0-.1.26l-1.55,8.72a.65.65,0,0,1-.64.53H105.9a.65.65,0,0,1-.64-.76L107.73,26a.65.65,0,0,1,.64-.53h3.24a.65.65,0,0,1,.64.61h0a.65.65,0,0,0,1.06.46,6.25,6.25,0,0,1,4-1.4A3.69,3.69,0,0,1,121.33,29a15.81,15.81,0,0,1-.28,2.58l-1.52,8.5a.65.65,0,0,1-.64.53H115a.65.65,0,0,1-.64-.76Z"/><path class="cls-6" d="M122,34.82c0-5.39,3.17-9.64,7.17-9.64a5.6,5.6,0,0,1,3.22.9.55.55,0,0,0,.84-.36l1-5.58a.55.55,0,0,1,.54-.45h4.1a.55.55,0,0,1,.54.65l-3.5,19.87a.55.55,0,0,1-.54.46H132a.55.55,0,0,1-.55-.54h0a.55.55,0,0,0-.89-.43,5.5,5.5,0,0,1-3.61,1.25C124.27,40.93,122,38.77,122,34.82Zm9.6.21.87-5a.55.55,0,0,0-.25-.56A3.1,3.1,0,0,0,130.5,29c-1.92,0-3.31,2.5-3.31,5.36,0,2,.83,2.81,1.81,2.81a3.23,3.23,0,0,0,2.51-1.91A.59.59,0,0,0,131.57,35Z"/><path class="cls-6" d="M138.39,34.88c0-5.42,3.08-9.7,7.25-9.7a5.46,5.46,0,0,1,3.34,1,.69.69,0,0,0,1.08-.3h0a.69.69,0,0,1,.65-.45h3.39a.69.69,0,0,1,.68.81L153,36a5.1,5.1,0,0,0-.06.58.56.56,0,0,0,.38.59.68.68,0,0,1,.42.75l-.38,2.25a.7.7,0,0,1-.63.57c-1.87.16-3.43-.11-4.26-1.24a.68.68,0,0,0-1-.1,5.85,5.85,0,0,1-4,1.5C140.7,41,138.39,38.88,138.39,34.88Zm10.48-4.75a.68.68,0,0,0-.32-.71,3.16,3.16,0,0,0-1.63-.46c-1.89,0-3.28,2.47-3.28,5.39,0,1.94.81,2.72,1.78,2.72a3.14,3.14,0,0,0,2.52-1.83A.73.73,0,0,0,148,35Z"/><path class="cls-7" d="M179.79,25.12c3.56,0,6,1.83,6,4.53,0,3-3.39,4.67-8.22,4.67h-1.81c0,1.89.89,2.56,2.5,2.56a6.88,6.88,0,0,0,2.34-.46,2,2,0,0,1,2.46.93h0a2,2,0,0,1-1,2.73,11,11,0,0,1-4.5.94c-4.2,0-7.11-2.58-7.11-6.72A9,9,0,0,1,179.79,25.12Zm-3.67,6.56h1.08c2.83,0,3.67-.86,3.67-1.75,0-.69-.56-1.25-1.5-1.25C177.9,28.68,176.68,29.87,176.12,31.68Z"/><path class="cls-7" d="M189.36,25.46h1.4A1.67,1.67,0,0,1,192.42,27h0a.25.25,0,0,0,.45.14,5.07,5.07,0,0,1,4.2-2.18,6.08,6.08,0,0,1,1.65.22.26.26,0,0,1,.17.32l-1.27,4.1a.25.25,0,0,1-.31.17,6,6,0,0,0-1.6-.23c-1.57,0-2.79,1.39-3.81,3.13a.27.27,0,0,0,0,.09l-1.37,7.66a.25.25,0,0,1-.25.21h-4.71a.25.25,0,0,1-.25-.3l2.42-13.52A1.67,1.67,0,0,1,189.36,25.46Z"/><path class="cls-7" d="M200.74,46.21h-4.07a.57.57,0,0,1-.56-.67l3.49-19.62a.57.57,0,0,1,.56-.47h3.57a.57.57,0,0,1,.57.54h0a.57.57,0,0,0,.92.41,5.5,5.5,0,0,1,3.52-1.23c2.53,0,4.78,1.89,4.78,6.2,0,5.7-3.11,9.56-7.17,9.56a5.18,5.18,0,0,1-3.18-1,.56.56,0,0,0-.89.35l-1,5.49A.57.57,0,0,1,200.74,46.21ZM205,37.15c2,0,3.31-2.58,3.31-5.45,0-1.89-.81-2.69-1.81-2.69a3.28,3.28,0,0,0-2.5,1.85.6.6,0,0,0-.08.21L203,36a.58.58,0,0,0,.24.57A2.86,2.86,0,0,0,205,37.15Z"/><path class="cls-7" d="M223.5,25.12c3.56,0,6,1.83,6,4.53,0,3-3.39,4.67-8.22,4.67h-1.81c0,1.89.89,2.56,2.5,2.56a6.88,6.88,0,0,0,2.34-.46,2,2,0,0,1,2.46.93h0a2,2,0,0,1-1,2.73,11,11,0,0,1-4.5.94c-4.2,0-7.11-2.58-7.11-6.72A9,9,0,0,1,223.5,25.12Zm-3.67,6.56h1.08c2.83,0,3.67-.86,3.67-1.75,0-.69-.56-1.25-1.5-1.25C221.61,28.68,220.39,29.87,219.83,31.68Z"/><path class="cls-7" d="M232.67,19.68h5.22l-3.7,21H229Z"/><path class="cls-6" d="M238.84,35.68h0a2.47,2.47,0,0,1,2.43,2.91v0a2.47,2.47,0,0,1-2.43,2h0a2.47,2.47,0,0,1-2.43-2.9v0A2.47,2.47,0,0,1,238.84,35.68Z"/><path class="cls-6" d="M251.2,25.12a9,9,0,0,1,3.12.55,2,2,0,0,1,.79,3.3l0,0a2,2,0,0,1-2.24.48,3.83,3.83,0,0,0-1.5-.3c-2,0-3.58,2-3.58,4.72,0,1.86,1.08,2.94,2.47,2.94a3.88,3.88,0,0,0,1.43-.27,2,2,0,0,1,2.39.63h0a2,2,0,0,1-.79,3.1,10,10,0,0,1-3.78.69c-3.64,0-7.06-2.25-7.06-7A8.68,8.68,0,0,1,251.2,25.12Z"/><path class="cls-6" d="M255.73,34c0-5.28,3.61-8.92,8.86-8.92a6.57,6.57,0,0,1,7,7c0,5.25-3.58,8.92-8.86,8.92A6.6,6.6,0,0,1,255.73,34Zm10.56-2.11c0-2.06-.72-3.08-2-3.08-1.83,0-3.25,2.67-3.25,5.33,0,2.08.72,3.08,2,3.08C264.9,37.26,266.29,34.6,266.29,31.93Z"/><path class="cls-6" d="M276.54,40.65h-5.11l2.48-14.13a1.29,1.29,0,0,1,1.27-1.07h2a1.29,1.29,0,0,1,1.29,1.26l0,.77a6.72,6.72,0,0,1,4.89-2.36,3.39,3.39,0,0,1,3.64,2.53,6.86,6.86,0,0,1,5.11-2.53,3.45,3.45,0,0,1,3.75,3.61,21.32,21.32,0,0,1-.33,3.06L294,40.65h-5l1.64-9.34a8.59,8.59,0,0,0,.14-1.25.92.92,0,0,0-1-1.06c-1,0-1.92.75-2.83,2v.06l-1.72,9.56h-5l1.67-9.34a8.2,8.2,0,0,0,.14-1.22c0-.67-.31-1.08-1-1.08-1,0-1.94.78-2.83,2.08Z"/><path class="cls-7" d="M161.37,25.93H158a2.18,2.18,0,0,1-2.15-2.55l.06-.36A2.18,2.18,0,0,1,158,21.21H170.7a2.18,2.18,0,0,1,2.15,2.55l-.06.36a2.18,2.18,0,0,1-2.15,1.81h-3.86l-2.27,12.92a2.18,2.18,0,0,1-2.15,1.8h-1a2.18,2.18,0,0,1-2.15-2.56Z"/><path class="cls-8" d="M24.58,37.66,19.43,8H25.1a3.67,3.67,0,0,0,3.62-4.29l-.1-.61A3.67,3.67,0,0,0,25,0H3.67A3.67,3.67,0,0,0,.05,4.29l.1.61A3.67,3.67,0,0,0,3.78,8h6.49l5.16,29.71a3.67,3.67,0,0,0,3.62,3H28.2A3.67,3.67,0,0,1,24.58,37.66Z"/></g></g></g></svg>