<svg xmlns="http://www.w3.org/2000/svg" xmlns:xlink="http://www.w3.org/1999/xlink" viewBox="0 0 68.03 54.69"><defs><style>.cls-1{isolation:isolate;}.cls-2{fill:url(#linear-gradient);}.cls-3{opacity:0.88;fill:url(#radial-gradient);}.cls-3,.cls-4{mix-blend-mode:multiply;}.cls-4{opacity:0.68;fill:url(#radial-gradient-2);}.cls-5{fill:url(#linear-gradient-2);}.cls-6{fill:#58595b;}.cls-7{fill:url(#linear-gradient-3);}</style><linearGradient id="linear-gradient" x1="53.65" y1="7.97" x2="53.65" y2="40.62" gradientUnits="userSpaceOnUse"><stop offset="0.12" stop-color="#ffe02c"/><stop offset="0.27" stop-color="#fed82a"/><stop offset="0.49" stop-color="#fac326"/><stop offset="0.77" stop-color="#f5a11f"/><stop offset="0.85" stop-color="#f3941d"/></linearGradient><radialGradient id="radial-gradient" cx="49.79" cy="37.8" fx="57.055177698982234" fy="30.51197084882858" r="10.29" gradientUnits="userSpaceOnUse"><stop offset="0" stop-color="#861704"/><stop offset="0.35" stop-color="#c22b1c"/><stop offset="0.41" stop-color="#c32d1c" stop-opacity="0.98"/><stop offset="0.49" stop-color="#c7341c" stop-opacity="0.9"/><stop offset="0.57" stop-color="#cc401c" stop-opacity="0.78"/><stop offset="0.65" stop-color="#d5501d" stop-opacity="0.61"/><stop offset="0.74" stop-color="#df651d" stop-opacity="0.4"/><stop offset="0.83" stop-color="#eb7e1e" stop-opacity="0.14"/><stop offset="0.87" stop-color="#f28b1e" stop-opacity="0"/></radialGradient><radialGradient id="radial-gradient-2" cx="52.45" cy="35.97" fy="54.4348544770375" r="18.67" gradientTransform="matrix(0.99, -0.12, 0.13, 1.03, -4.22, 5.59)" gradientUnits="userSpaceOnUse"><stop offset="0" stop-color="#861704"/><stop offset="0.35" stop-color="#c22b1c"/><stop offset="0.43" stop-color="#c32d1c" stop-opacity="0.98"/><stop offset="0.52" stop-color="#c7341c" stop-opacity="0.9"/><stop offset="0.62" stop-color="#cc401c" stop-opacity="0.78"/><stop offset="0.72" stop-color="#d5501d" stop-opacity="0.61"/><stop offset="0.82" stop-color="#df651d" stop-opacity="0.4"/><stop offset="0.93" stop-color="#eb7e1e" stop-opacity="0.14"/><stop offset="0.98" stop-color="#f28b1e" stop-opacity="0"/></radialGradient><linearGradient id="linear-gradient-2" x1="20.08" y1="30.92" x2="54.46" y2="39.82" gradientUnits="userSpaceOnUse"><stop offset="0.71" stop-color="#f3941d"/><stop offset="0.75" stop-color="#f5a41a"/><stop offset="0.82" stop-color="#fccd13"/><stop offset="0.85" stop-color="#ffe00f"/><stop offset="0.88" stop-color="#fdd511"/><stop offset="0.94" stop-color="#f9b616"/><stop offset="0.98" stop-color="#f4971c"/></linearGradient><linearGradient id="linear-gradient-3" x1="14.38" x2="14.38" y2="40.7" gradientUnits="userSpaceOnUse"><stop offset="0.41" stop-color="#ed3c26"/><stop offset="0.55" stop-color="#ed3f26"/><stop offset="0.65" stop-color="#ee4725"/><stop offset="0.73" stop-color="#ef5623"/><stop offset="0.8" stop-color="#f06b21"/><stop offset="0.87" stop-color="#f2861e"/><stop offset="0.9" stop-color="#f3941d"/><stop offset="0.92" stop-color="#f2811f"/><stop offset="0.98" stop-color="#ee4f24"/><stop offset="1" stop-color="#ed3c26"/></linearGradient></defs><title>Asset 1</title><g class="cls-1"><g id="Layer_2" data-name="Layer 2"><g id="Layer_3" data-name="Layer 3"><path class="cls-2" d="M48.64,15.92H42.93a3.67,3.67,0,0,1-3.62-4.29l.1-.61A3.67,3.67,0,0,1,43,8H64.36A3.67,3.67,0,0,1,68,12.26l-.1.61a3.67,3.67,0,0,1-3.62,3.05H57.76L54,37.58a3.67,3.67,0,0,1-3.62,3H48.65A3.67,3.67,0,0,1,45,36.31Z"/><path class="cls-3" d="M48.51,16.53,45.1,35.77a3.67,3.67,0,0,0,3.61,4.31h1.71A3.67,3.67,0,0,0,54,37l3.6-20.51Z"/><path class="cls-4" d="M48.64,15.92H42.93a3.67,3.67,0,0,1-3.62-4.29l.1-.61A3.67,3.67,0,0,1,43,8H64.36A3.67,3.67,0,0,1,68,12.26l-.1.61a3.67,3.67,0,0,1-3.62,3.05H57.76L54,37.58a3.67,3.67,0,0,1-3.62,3H48.65A3.67,3.67,0,0,1,45,36.31Z"/><path class="cls-5" d="M51.73,32.75H19.09a3.67,3.67,0,0,0-3.62,3.05l-.1.61A3.67,3.67,0,0,0,19,40.71H50.35a3.67,3.67,0,0,0,3.62-3l1.35-7.81A3.51,3.51,0,0,1,51.73,32.75Z"/><path class="cls-6" d="M22.67,46.43a2.81,2.81,0,1,1-2.81,2.81,2.81,2.81,0,0,1,2.81-2.81m0-2.65a5.46,5.46,0,1,0,5.46,5.46,5.46,5.46,0,0,0-5.46-5.46Z"/><path class="cls-6" d="M49.21,48.08A2.19,2.19,0,1,1,47,50.27a2.2,2.2,0,0,1,2.19-2.19m0-2.23a4.42,4.42,0,1,0,4.42,4.42,4.42,4.42,0,0,0-4.42-4.42Z"/><path class="cls-7" d="M24.58,37.66,19.43,8H25.1a3.67,3.67,0,0,0,3.62-4.29l-.1-.61A3.67,3.67,0,0,0,25,0H3.67A3.67,3.67,0,0,0,.05,4.29l.1.61A3.67,3.67,0,0,0,3.78,8h6.49l5.16,29.71a3.67,3.67,0,0,0,3.62,3H28.2A3.67,3.67,0,0,1,24.58,37.66Z"/></g></g></g></svg>