<svg xmlns="http://www.w3.org/2000/svg" xmlns:xlink="http://www.w3.org/1999/xlink" viewBox="0 0 54.68 69.52"><defs><style>.cls-1{fill:none;}.cls-2{isolation:isolate;}.cls-3{fill:#84d1c9;}.cls-4{clip-path:url(#clip-path);}.cls-13,.cls-5,.cls-6{fill:#f7cdb9;}.cls-10,.cls-13,.cls-6{mix-blend-mode:multiply;}.cls-7{fill:#ed3c26;}.cls-8{fill:#b3281b;}.cls-9{fill:#4f4c4d;}.cls-10{fill:#c8c8c8;}.cls-11{fill:#383643;}.cls-12{fill:#3c2417;}.cls-13{opacity:0.8;}.cls-14{fill:#fff;}.cls-15{fill:#4f3c30;}</style><clipPath id="clip-path" transform="translate(0 -1.2)"><path class="cls-1" d="M46.41,62.4A27.18,27.18,0,0,1,8,24c.19-.19,3.7-22.35,3.89-22.53L45.28,0c.21.2.92,23.75,1.12,24A27.18,27.18,0,0,1,46.41,62.4Z"/></clipPath></defs><title>Asset 3</title><g class="cls-2"><g id="Layer_2" data-name="Layer 2"><g id="guides"><path class="cls-3" d="M.3,43.17c0,.35-.29.64-.28,1.07H.3Z" transform="translate(0 -1.2)"/><path class="cls-3" d="M54.68,43.17v1.07h-.33C54.36,43.82,54.68,43.52,54.68,43.17Z" transform="translate(0 -1.2)"/><g class="cls-4"><circle class="cls-3" cx="27.18" cy="43.17" r="27.18" transform="translate(-22.57 30.67) rotate(-45)"/><g id="man"><polygon class="cls-5" points="32.02 31.84 30.85 31.3 30.85 27.55 23.29 27.55 23.29 31.3 22.11 31.8 22.43 42.42 23.29 42.42 23.29 44.04 30.85 44.04 30.85 42.42 31.71 42.42 32.02 31.84"/><polygon class="cls-6" points="30.84 27.93 30.84 30.98 23.29 29.39 23.29 27.93 30.84 27.93"/><path class="cls-7" d="M43.16,38.71C41.77,35.7,37.88,35,32.31,33l-.6-.21v0c-.37,2.07-1.41,4.76-4.64,5.08-3.23-.32-4.27-3-4.64-5.08v0l-.6.21C16.25,35,12.36,35.7,11,38.71c-1.74,3.85,3.25,7.84,3.25,7.84s.45,24.17,1.2,24.17H38.7c.75,0,1.2-24.17,1.2-24.17S44.89,42.56,43.16,38.71Z" transform="translate(0 -1.2)"/><path class="cls-8" d="M27.18,37.91l-2.32,2.45-4.64-6.77,3-1.33.93.86Z" transform="translate(0 -1.2)"/><path class="cls-8" d="M27.18,37.91l2.66,2.29,4.07-6.61-3-1.33-.93.86Z" transform="translate(0 -1.2)"/><path class="cls-9" d="M34.74,59.29H19.65a2.2,2.2,0,0,1-2.2-2.2L16.5,44.5a2.2,2.2,0,0,1,2.2-2.2h17a2.2,2.2,0,0,1,2.2,2.2l-.94,12.59A2.2,2.2,0,0,1,34.74,59.29Z" transform="translate(0 -1.2)"/><path class="cls-10" d="M35.72,42.3H18.67a2.16,2.16,0,0,0-1.81,1A2.15,2.15,0,0,1,18,42.92H35.1a2.16,2.16,0,0,1,2.16,2.16l-.94,12.67A2.15,2.15,0,0,1,36,58.94a2.16,2.16,0,0,0,1-1.81l.94-12.67A2.16,2.16,0,0,0,35.72,42.3Z" transform="translate(0 -1.2)"/><rect class="cls-11" x="18.26" y="48.67" width="1.85" height="1.85" rx="0.88" ry="0.88"/><path class="cls-5" d="M18.08,52.08s-1.48.16-2.63.25l-.84.05-.73,0h-.7l-.11,4.72H14l.87,0,1-.06c1.32-.1,2.91-.28,2.91-.28a2.09,2.09,0,0,0,1.43-2.6C19.92,52.87,19,52,18.08,52.08Z" transform="translate(0 -1.2)"/><path class="cls-5" d="M16.51,50.86A3,3,0,0,0,14.67,52a7.33,7.33,0,0,0-.76,1.13,1,1,0,0,0,.12,1.1.49.49,0,0,0,.81-.17s.06-.11.15-.26a5.31,5.31,0,0,1,.39-.55,2.13,2.13,0,0,1,1.3-.88c.31,0,.51-.41.46-.84S16.81,50.82,16.51,50.86Z" transform="translate(0 -1.2)"/><path class="cls-7" d="M13.78,58.17c-1.94,0-7.4.29-9-1-1.15-.93-3.15-4-.63-9.11a39.9,39.9,0,0,1,8.32-11.16l3.79,7.92c-3,2.8-3.69,2.62-6.48,5.73-.85.94-.51,1.26-.49,1.28.45.36,3.15.16,4.92,0l.45,6.28A5,5,0,0,1,13.78,58.17Z" transform="translate(0 -1.2)"/><path class="cls-5" d="M36.28,52.08s1.48.16,2.63.25l.84.05.73,0h.7l.11,4.72h-.87l-.87,0-1-.06c-1.32-.1-2.91-.28-2.91-.28a2.09,2.09,0,0,1-1.43-2.6C34.45,52.87,35.37,52,36.28,52.08Z" transform="translate(0 -1.2)"/><path class="cls-5" d="M37.86,50.86A3,3,0,0,1,39.7,52a7.33,7.33,0,0,1,.76,1.13,1,1,0,0,1-.12,1.1.49.49,0,0,1-.81-.17s-.06-.11-.15-.26A5.31,5.31,0,0,0,39,53.3a2.13,2.13,0,0,0-1.3-.88c-.31,0-.51-.41-.46-.84S37.56,50.82,37.86,50.86Z" transform="translate(0 -1.2)"/><path class="cls-7" d="M40.59,58.17c1.94,0,7.4.29,9-1,1.15-.93,3.15-4,.63-9.11A38.68,38.68,0,0,0,42,37.09l-3.73,7.79c3,2.8,3.58,2.54,6.37,5.64.85.94.51,1.26.49,1.28-.45.36-3.15.16-4.92,0l-.45,6.28A5,5,0,0,0,40.59,58.17Z" transform="translate(0 -1.2)"/><g id="man-2" data-name="man"><path class="cls-12" d="M36,21.51c0,.3,0,.6,0,.9s0,.41-.08.6a9.61,9.61,0,0,1-.39,1.66l0-.07a3.12,3.12,0,0,0,0,2.3,1,1,0,0,1-.73-.63c-.47.87-6.54,4.12-7.77,4.12s-7.29-3.26-7.76-4.12a1,1,0,0,1-.74.63,3.12,3.12,0,0,0,0-2.3l0,.07A9.33,9.33,0,0,1,18.17,23a5.5,5.5,0,0,1-.07-.6,8.58,8.58,0,0,1,0-.9,9.94,9.94,0,0,1,.21-2c0-.24.11-.48.17-.71a9.61,9.61,0,0,1,.72-1.81,9.3,9.3,0,0,1,1.26-1.86,9,9,0,0,1,1.36-1.28l.12-.09a8.64,8.64,0,0,1,1.24-.78,8.54,8.54,0,0,1,7.79,0,9,9,0,0,1,2.72,2.15,9.3,9.3,0,0,1,1.26,1.86,9.61,9.61,0,0,1,.72,1.81c.07.24.13.48.17.71A9.94,9.94,0,0,1,36,21.51Z" transform="translate(0 -1.2)"/><path class="cls-5" d="M35.31,18.1l.26-3.32c0-4.35-4.15-7.87-8.5-7.87s-8.5,3.52-8.5,7.87l.26,3.32a1.54,1.54,0,0,0-.65.33,1.57,1.57,0,0,0-.55,1.2v1.64a1.57,1.57,0,0,0,1.56,1.57c0,4.1,4.93,8,7.88,8s7.88-3.89,7.88-8a1.57,1.57,0,0,0,1.56-1.57V19.63A1.57,1.57,0,0,0,35.31,18.1Z" transform="translate(0 -1.2)"/><path class="cls-13" d="M35.31,18.1l.26-3.32c0-4.35-4.15-7.87-8.5-7.87v11.8a32.82,32.82,0,0,0-1.89,6h1.89v6.14c2.95,0,7.88-3.89,7.88-8a1.57,1.57,0,0,0,1.56-1.57V19.63A1.57,1.57,0,0,0,35.31,18.1Z" transform="translate(0 -1.2)"/><circle class="cls-6" cx="23.45" cy="19.66" r="1.24" transform="translate(-0.67 -0.37) rotate(-2)"/><circle class="cls-12" cx="23.45" cy="19.35" r="1.24" transform="translate(-0.66 -0.37) rotate(-2)"/><circle class="cls-14" cx="23.87" cy="19.59" r="0.31" transform="translate(-0.67 -0.36) rotate(-2)"/><circle class="cls-6" cx="30.69" cy="19.66" r="1.24" transform="translate(-0.67 -0.12) rotate(-2)"/><circle class="cls-12" cx="30.69" cy="19.35" r="1.24" transform="translate(-0.66 -0.12) rotate(-2)"/><circle class="cls-14" cx="31.11" cy="19.59" r="0.31" transform="translate(-0.66 -0.1) rotate(-2)"/><path class="cls-15" d="M35.7,9.19h0A9.47,9.47,0,0,0,27,3.85a9.47,9.47,0,0,0-8.67,5.33h0c-1.95,3.65-1.63,8.54-.77,11.31a7.55,7.55,0,0,0,.51,1.28h0c.35.65.72,1,1.06.84h0V19.18a7,7,0,0,0,.7-1.05,33.19,33.19,0,0,0,1.91-4.94l.07-.2,0,.11a4.79,4.79,0,0,0,3.64,3.29,3.16,3.16,0,0,1-.37-1.62A4.18,4.18,0,0,0,27,16.31a10.61,10.61,0,0,0,4.56,1.14,2.23,2.23,0,0,1-.28-1.09,4.22,4.22,0,0,0,2.41,1.69,3.84,3.84,0,0,1-.13-1.89,20.05,20.05,0,0,0,.64,1.94h0a7.4,7.4,0,0,0,.66,1.35v3.17h0c.33.14.71-.19,1.06-.84h0a7.55,7.55,0,0,0,.51-1.28C37.33,17.73,37.65,12.84,35.7,9.19Zm-.81,2.29v.05l0-.05Z" transform="translate(0 -1.2)"/></g></g><path class="cls-7" d="M24.08,2A6.8,6.8,0,0,1,27,1.2a17.63,17.63,0,0,1,4.43,1.15s4,1,5,2.61A3.65,3.65,0,0,1,37.06,7c0,.81,0,5.56,0,5.56H17.71V7.41S17.23,4.56,21.4,3C22.79,2.52,24.08,2,24.08,2Z" transform="translate(0 -1.2)"/><path class="cls-8" d="M27.52,9.36s6.51-.78,10,3.22H16.88S18.93,9.36,27.52,9.36Z" transform="translate(0 -1.2)"/></g></g></g></g></svg>